<svg width="551" height="568" viewBox="0 0 551 568" fill="none" xmlns="http://www.w3.org/2000/svg">
<g clip-path="url(#clip0_2_3218)">
<path d="M386.602 567.986H235.877C234.124 567.984 232.445 567.287 231.206 566.048C229.967 564.809 229.27 563.13 229.268 561.377V455.998C229.27 454.246 229.967 452.566 231.206 451.327C232.445 450.088 234.124 449.391 235.877 449.389H386.602C388.354 449.391 390.034 450.088 391.273 451.327C392.511 452.566 393.208 454.246 393.21 455.998V561.377C393.208 563.129 392.511 564.809 391.273 566.048C390.034 567.287 388.354 567.984 386.602 567.986V567.986Z" fill="#F2F2F2"/>
<path d="M140.287 293.286C141.297 291.993 142.012 290.494 142.38 288.894C142.749 287.295 142.762 285.634 142.42 284.029C142.077 282.424 141.386 280.914 140.397 279.604C139.407 278.295 138.142 277.219 136.692 276.451L135.742 175.638L116.9 184.285L121.044 281.786C119.916 284.308 119.752 287.157 120.584 289.792C121.416 292.427 123.185 294.665 125.557 296.083C127.929 297.5 130.739 297.999 133.454 297.483C136.168 296.968 138.6 295.474 140.287 293.286V293.286Z" fill="#9E616A"/>
<path d="M139.779 150.114C139.779 150.114 121.45 141.223 118.915 157.998C116.38 174.773 105.954 218.431 105.954 218.431L137.593 216.194L139.779 150.114Z" fill="#9E616A"/>
<path d="M140.287 293.286C141.297 291.993 142.012 290.494 142.38 288.894C142.749 287.295 142.762 285.634 142.42 284.029C142.077 282.424 141.386 280.914 140.397 279.604C139.407 278.295 138.142 277.219 136.692 276.451L135.742 175.638L116.9 184.285L121.044 281.786C119.916 284.308 119.752 287.157 120.584 289.792C121.416 292.427 123.185 294.665 125.557 296.083C127.929 297.5 130.739 297.999 133.454 297.483C136.168 296.968 138.6 295.474 140.287 293.286V293.286Z" fill="#9E616A"/>
<path d="M139.779 150.114C139.779 150.114 121.45 141.223 118.915 157.998C116.38 174.773 105.954 218.431 105.954 218.431L137.593 216.194L139.779 150.114Z" fill="#C587EC"/>
<path d="M86.7078 538.459C85.9678 538.493 85.2351 538.299 84.6091 537.903C83.9832 537.506 83.4942 536.927 83.2084 536.244C82.9226 535.56 82.8538 534.805 83.0113 534.081C83.1689 533.357 83.5452 532.699 84.0892 532.197C84.1803 531.834 84.2457 531.574 84.3368 531.212C84.3042 531.133 84.2714 531.055 84.2384 530.976C83.4928 529.215 82.2435 527.713 80.6473 526.66C79.0512 525.607 77.1794 525.049 75.267 525.056C73.3547 525.063 71.4871 525.635 69.8988 526.7C68.3105 527.765 67.0724 529.276 66.3399 531.042C63.4125 538.093 59.6854 545.156 58.7677 552.61C58.3636 555.905 58.5341 559.246 59.2716 562.483C52.396 547.484 48.8257 531.183 48.8027 514.684C48.8013 510.543 49.0313 506.406 49.4917 502.292C49.8722 498.919 50.4002 495.569 51.0755 492.244C54.7607 474.203 62.6729 457.293 74.1625 442.903C79.7234 439.869 84.2206 435.203 87.048 429.534C88.0724 427.496 88.7963 425.321 89.1974 423.076C88.5701 423.158 87.9325 423.209 87.3052 423.251C87.1098 423.261 86.9041 423.271 86.7087 423.281L86.635 423.285C85.9456 423.316 85.2619 423.147 84.6663 422.798C84.0707 422.449 83.5885 421.936 83.2778 421.32C82.9672 420.704 82.8413 420.011 82.9153 419.325C82.9893 418.638 83.26 417.988 83.6949 417.452C83.9657 417.119 84.2368 416.786 84.5079 416.453C84.9193 415.939 85.341 415.435 85.7523 414.921C85.7998 414.872 85.8444 414.82 85.886 414.766C86.3591 414.18 86.8321 413.604 87.3052 413.018C86.4417 411.678 85.2803 410.555 83.9115 409.738C79.1707 406.961 72.6302 408.884 69.2057 413.172C65.7709 417.461 65.1231 423.477 66.3159 428.835C67.489 433.394 69.4295 437.72 72.0543 441.628C71.7972 441.957 71.5298 442.276 71.2727 442.605C66.573 448.648 62.4769 455.137 59.043 461.979C59.8781 454.314 58.8814 446.56 56.135 439.355C53.3515 432.64 48.1343 426.985 43.54 421.18C38.0214 414.207 26.7051 417.25 25.7329 426.089C25.7234 426.175 25.7143 426.26 25.7053 426.346C26.3877 426.731 27.0557 427.14 27.7093 427.572C28.5304 428.12 29.1666 428.904 29.5346 429.821C29.9026 430.737 29.9852 431.743 29.7716 432.707C29.558 433.671 29.0582 434.548 28.3376 435.223C27.617 435.899 26.7092 436.34 25.7333 436.491L25.6333 436.506C25.8764 438.966 26.3062 441.403 26.9188 443.798C28.694 450.482 31.8309 456.727 36.1328 462.142C40.4348 467.557 45.8091 472.025 51.9187 475.266C52.3198 475.472 52.7106 475.677 53.1117 475.873C49.6617 485.65 47.4976 495.834 46.674 506.169C46.2077 512.266 46.2352 518.391 46.7563 524.484L46.7254 524.268C45.409 517.493 41.7947 511.379 36.493 506.96C28.6186 500.492 17.4936 498.11 8.99854 492.911C8.09572 492.331 7.04597 492.022 5.97309 492.019C4.90021 492.016 3.84894 492.32 2.9433 492.896C2.03767 493.471 1.31543 494.293 0.861761 495.265C0.408091 496.238 0.241923 497.319 0.382849 498.383C0.394242 498.459 0.405811 498.534 0.417578 498.61C1.68394 499.126 2.91693 499.72 4.10941 500.389C4.79182 500.774 5.45982 501.183 6.11341 501.615C6.93449 502.164 7.57073 502.947 7.93873 503.864C8.30672 504.78 8.38932 505.786 8.17573 506.75C7.96213 507.714 7.4623 508.591 6.74171 509.267C6.02111 509.942 5.11338 510.384 4.13743 510.534L4.03742 510.549C3.96542 510.56 3.90373 510.57 3.83185 510.58C5.9956 515.747 9.03248 520.502 12.8095 524.638C17.4754 529.645 23.1148 533.646 29.3818 536.396C35.6489 539.145 42.4115 540.586 49.2552 540.63H49.2655C51.1233 548.702 53.8149 556.56 57.2972 564.077H85.9889C86.0918 563.758 86.1843 563.429 86.2769 563.11C83.6211 563.277 80.9549 563.118 78.3377 562.637C80.4665 560.025 82.5952 557.392 84.7239 554.78C84.7714 554.731 84.8161 554.68 84.8576 554.626C85.9374 553.289 87.0275 551.962 88.1073 550.625L88.1079 550.624C88.1654 546.526 87.6952 542.438 86.7087 538.46L86.7078 538.459Z" fill="#F2F2F2"/>
<path d="M509.708 538.459C508.968 538.493 508.235 538.299 507.609 537.903C506.983 537.506 506.494 536.927 506.208 536.244C505.923 535.56 505.854 534.805 506.011 534.081C506.169 533.357 506.545 532.699 507.089 532.197C507.18 531.834 507.246 531.574 507.337 531.212C507.304 531.133 507.271 531.055 507.238 530.976C506.493 529.215 505.243 527.713 503.647 526.66C502.051 525.607 500.179 525.049 498.267 525.056C496.355 525.063 494.487 525.635 492.899 526.7C491.31 527.765 490.072 529.276 489.34 531.042C486.412 538.093 482.685 545.156 481.768 552.61C481.364 555.905 481.534 559.246 482.272 562.483C475.396 547.484 471.826 531.183 471.803 514.684C471.801 510.543 472.031 506.406 472.492 502.292C472.872 498.919 473.4 495.569 474.075 492.244C477.761 474.203 485.673 457.293 497.162 442.903C502.723 439.869 507.221 435.203 510.048 429.534C511.072 427.496 511.796 425.321 512.197 423.076C511.57 423.158 510.932 423.209 510.305 423.251C510.11 423.261 509.904 423.271 509.709 423.281L509.635 423.285C508.946 423.316 508.262 423.147 507.666 422.798C507.071 422.449 506.588 421.936 506.278 421.32C505.967 420.704 505.841 420.011 505.915 419.325C505.989 418.638 506.26 417.988 506.695 417.452C506.966 417.119 507.237 416.786 507.508 416.453C507.919 415.939 508.341 415.435 508.752 414.921C508.8 414.872 508.844 414.82 508.886 414.766C509.359 414.18 509.832 413.604 510.305 413.018C509.442 411.678 508.28 410.555 506.911 409.738C502.171 406.961 495.63 408.884 492.206 413.172C488.771 417.461 488.123 423.477 489.316 428.835C490.489 433.394 492.429 437.72 495.054 441.628C494.797 441.957 494.53 442.276 494.273 442.605C489.573 448.648 485.477 455.137 482.043 461.979C482.878 454.314 481.881 446.56 479.135 439.355C476.351 432.64 471.134 426.985 466.54 421.18C461.021 414.207 449.705 417.25 448.733 426.089C448.723 426.175 448.714 426.26 448.705 426.346C449.388 426.731 450.056 427.14 450.709 427.572C451.53 428.12 452.166 428.904 452.534 429.821C452.902 430.737 452.985 431.743 452.771 432.707C452.558 433.671 452.058 434.548 451.337 435.223C450.617 435.899 449.709 436.34 448.733 436.491L448.633 436.506C448.876 438.966 449.306 441.403 449.919 443.798C451.694 450.482 454.831 456.727 459.133 462.142C463.435 467.557 468.809 472.025 474.919 475.266C475.32 475.472 475.711 475.677 476.112 475.873C472.662 485.65 470.498 495.834 469.674 506.169C469.208 512.266 469.235 518.391 469.756 524.484L469.725 524.268C468.409 517.493 464.795 511.379 459.493 506.96C451.619 500.492 440.494 498.11 431.999 492.911C431.096 492.331 430.046 492.022 428.973 492.019C427.9 492.016 426.849 492.32 425.943 492.896C425.038 493.471 424.315 494.293 423.862 495.265C423.408 496.238 423.242 497.319 423.383 498.383C423.394 498.459 423.406 498.534 423.418 498.61C424.684 499.126 425.917 499.72 427.109 500.389C427.792 500.774 428.46 501.183 429.113 501.615C429.934 502.164 430.571 502.947 430.939 503.864C431.307 504.78 431.389 505.786 431.176 506.75C430.962 507.714 430.462 508.591 429.742 509.267C429.021 509.942 428.113 510.384 427.137 510.534L427.037 510.549C426.965 510.56 426.904 510.57 426.832 510.58C428.996 515.747 432.032 520.502 435.81 524.638C440.475 529.645 446.115 533.646 452.382 536.396C458.649 539.145 465.412 540.586 472.255 540.63H472.266C474.123 548.702 476.815 556.56 480.297 564.077H508.989C509.092 563.758 509.184 563.429 509.277 563.11C506.621 563.277 503.955 563.118 501.338 562.637C503.466 560.025 505.595 557.392 507.724 554.78C507.771 554.731 507.816 554.68 507.858 554.626C508.937 553.289 510.027 551.962 511.107 550.625L511.108 550.624C511.165 546.526 510.695 542.438 509.709 538.46L509.708 538.459Z" fill="#F2F2F2"/>
<path d="M399.22 563.889C399.137 563.889 399.055 563.887 398.972 563.885C396.873 563.765 394.9 562.84 393.465 561.302C392.031 559.765 391.244 557.733 391.27 555.63C391.27 542.835 382.13 535.372 373.073 533.651C364.015 531.931 352.775 535.522 348.083 547.427L343.818 558.134C340.13 561.813 335.134 563.879 329.925 563.879C324.716 563.879 319.719 561.813 316.032 558.134L315.779 557.882L315.936 557.561L391.27 403.427V399.65C391.166 398.485 391.166 397.314 391.272 396.15L391.27 7.94662C391.27 6.88252 391.484 5.82926 391.898 4.8493C392.313 3.86935 392.92 2.98266 393.684 2.24187C394.448 1.50107 395.353 0.921247 396.345 0.536787C397.337 0.152328 398.397 -0.028944 399.46 0.00375196C401.56 0.123758 403.532 1.04884 404.967 2.58645C406.402 4.12407 407.188 6.15575 407.163 8.25863V396.195C407.267 397.359 407.267 398.53 407.161 399.695L407.163 403.426L482.654 557.882L482.401 558.134C478.714 561.813 473.717 563.879 468.508 563.879C463.299 563.879 458.302 561.813 454.615 558.134L454.503 557.964L450.35 547.427C445.658 535.523 434.419 531.934 425.36 533.651C416.303 535.371 407.163 542.835 407.163 555.63V555.943C407.163 558.05 406.326 560.07 404.837 561.56C403.347 563.051 401.327 563.888 399.22 563.889L399.22 563.889Z" fill="#E6E6E6"/>
<path d="M536.896 281.013H261.093C257.887 281.009 254.813 279.734 252.546 277.467C250.279 275.2 249.004 272.127 249 268.921V76.0926C249.004 72.8866 250.279 69.8128 252.546 67.5458C254.813 65.2788 257.887 64.0036 261.093 64H536.896C540.102 64.0037 543.175 65.2789 545.442 67.546C547.709 69.813 548.985 72.8867 548.988 76.0927V268.921C548.984 272.127 547.709 275.2 545.442 277.467C543.175 279.734 540.102 281.009 536.896 281.013V281.013Z" fill="white"/>
<path d="M537.118 282.486H261.315C257.711 282.482 254.256 281.049 251.708 278.5C249.16 275.952 247.726 272.498 247.722 268.894V76.0654C247.726 72.4616 249.16 69.0067 251.708 66.4586C254.256 63.9104 257.711 62.4771 261.315 62.4731H537.118C540.722 62.4772 544.177 63.9106 546.725 66.4587C549.273 69.0069 550.706 72.4617 550.71 76.0654V268.894C550.706 272.498 549.273 275.952 546.725 278.5C544.176 281.048 540.722 282.482 537.118 282.486V282.486ZM261.315 65.4731C258.507 65.4762 255.814 66.5931 253.828 68.5789C251.842 70.5646 250.725 73.257 250.722 76.0654V268.894C250.725 271.702 251.843 274.394 253.828 276.38C255.814 278.366 258.507 279.483 261.315 279.486H537.118C539.926 279.483 542.619 278.366 544.604 276.38C546.59 274.394 547.707 271.702 547.71 268.894V76.0654C547.707 73.2571 546.59 70.5647 544.605 68.5789C542.619 66.5932 539.926 65.4762 537.118 65.4731H261.315Z" fill="#F2F2F2"/>
<path d="M439.995 76.0292H358.438C353.267 76.0234 348.31 73.9668 344.654 70.3105C340.997 66.6543 338.941 61.6971 338.935 56.5264V56.1718H459.498V56.5264C459.492 61.6971 457.435 66.6543 453.779 70.3105C450.123 73.9668 445.166 76.0234 439.995 76.0292V76.0292Z" fill="#E6E6E6"/>
<path d="M440.35 293.042H358.792C353.622 293.036 348.665 290.98 345.008 287.323C341.352 283.667 339.296 278.71 339.29 273.539V273.185H459.852V273.539C459.846 278.71 457.79 283.667 454.134 287.323C450.477 290.98 445.52 293.036 440.35 293.042V293.042Z" fill="#E6E6E6"/>
<path d="M549.67 564.882C549.671 565.039 549.64 565.194 549.58 565.338C549.521 565.483 549.433 565.614 549.323 565.725C549.212 565.835 549.081 565.923 548.936 565.983C548.791 566.042 548.636 566.073 548.48 566.072H1.18997C0.874364 566.072 0.57171 565.947 0.348541 565.724C0.125373 565.501 -3.05176e-05 565.198 -3.05176e-05 564.882C-3.05176e-05 564.567 0.125373 564.264 0.348541 564.041C0.57171 563.818 0.874364 563.692 1.18997 563.692H548.48C548.636 563.692 548.791 563.722 548.936 563.782C549.081 563.842 549.212 563.929 549.322 564.04C549.433 564.15 549.521 564.282 549.58 564.426C549.64 564.571 549.671 564.726 549.67 564.882V564.882Z" fill="#CCCCCC"/>
<path d="M184.306 537.181H198.722L205.58 481.575L184.303 481.576L184.306 537.181Z" fill="#9E616A"/>
<path d="M179.424 530.07L202.213 528.709V538.473L223.879 553.437C224.949 554.176 225.755 555.237 226.179 556.467C226.603 557.696 226.623 559.029 226.236 560.27C225.849 561.512 225.076 562.597 224.028 563.368C222.98 564.139 221.714 564.554 220.414 564.554H193.282L188.606 554.896L186.78 564.554H176.55L179.424 530.07Z" fill="#2F2E41"/>
<path d="M135.277 227.892L133.865 234.622L132.664 259.447L180.908 252.915L184.613 224.169L179.492 215.755L135.277 227.892Z" fill="#9E616A"/>
<path d="M111.347 537.181H125.763L132.621 481.575L111.344 481.576L111.347 537.181Z" fill="#9E616A"/>
<path d="M103.526 438.941L103.525 438.792L108.922 413.6L112.249 401.059L103 327.63C100.822 274.281 131.772 248.637 132.016 248.385L132.687 247.687L182.323 246.472C209.029 262.473 206.006 349.992 210.896 409.511C211.245 413.755 215.627 420.02 214.55 424.057C206.004 456.084 208.507 490.718 201.997 491.742L182.036 491.465L171.726 444.676L181.243 408.99C177.022 408.212 174.105 387.578 174.105 387.578C172.266 385.394 165.917 366.822 165.917 366.822L157.452 315.412L143.851 403.836L147.126 424.581L144.416 431.713L132.807 490.599L132.684 491.548L110.799 489.363L103.526 438.941Z" fill="#2F2E41"/>
<path d="M106.465 530.07L129.254 528.709V538.473L150.92 553.437C151.991 554.176 152.797 555.237 153.221 556.467C153.645 557.696 153.665 559.029 153.278 560.27C152.891 561.512 152.117 562.597 151.069 563.368C150.022 564.139 148.755 564.554 147.455 564.554H120.324L115.647 554.896L113.821 564.554H103.592L106.465 530.07Z" fill="#2F2E41"/>
<path d="M175.078 130.806L187.246 144.326L201.862 171.874L194.682 205.842L197.821 221.782L202.456 239.304C184.597 249.183 163.382 235.539 143.893 229.479L124.717 237.952L125.731 214.63L126.251 155.869C126.271 153.613 126.754 151.384 127.672 149.322C128.589 147.26 129.92 145.408 131.583 143.882C133.246 142.356 135.204 141.188 137.337 140.45C139.47 139.712 141.732 139.421 143.983 139.594V139.594L156.827 130.13L175.078 130.806Z" fill="#C587EC"/>
<path d="M171.67 123.729C185.84 123.729 197.327 112.242 197.327 98.0719C197.327 83.9018 185.84 72.4147 171.67 72.4147C157.5 72.4147 146.013 83.9018 146.013 98.0719C146.013 112.242 157.5 123.729 171.67 123.729Z" fill="#9E616A"/>
<path d="M201.862 88.8125C201.41 91.3265 190.608 92.5398 190.934 88.0671C188.832 92.2781 185.692 98.3891 189.692 105.389C188.125 107.096 187.138 109.254 186.872 111.555C186.606 113.857 187.074 116.183 188.21 118.202C189.348 120.052 190.302 122.01 191.057 124.047C191.21 124.541 191.318 125.048 191.382 125.561C191.447 126.077 191.371 126.601 191.163 127.078C190.956 127.554 190.624 127.967 190.202 128.271C189.78 128.575 189.284 128.76 188.767 128.806C188.249 128.853 187.728 128.759 187.259 128.535C176.378 123.206 157.404 124.109 145.501 127.361C145.58 125.045 145.549 122.735 145.406 120.43C144.971 123.312 143.809 126.036 142.027 128.344C139.989 128.947 137.991 129.573 136.056 130.192C135.761 130.288 135.445 130.301 135.143 130.232C134.841 130.163 134.563 130.012 134.339 129.798C134.115 129.583 133.954 129.311 133.872 129.012C133.791 128.713 133.792 128.397 133.875 128.098C134.252 126.73 134.323 125.294 134.081 123.895C133.59 120.993 132.13 118.368 131.1 115.616C130.069 112.864 129.482 109.7 130.743 107.043C132.701 102.92 138.221 101.659 140.656 97.7967C143.392 93.4589 141.266 87.8046 141.694 82.6895C142.297 75.4571 148.221 69.5808 154.898 66.7417C166.461 61.8249 180.926 65.8067 189.593 74.8949C190.809 74.0739 192.229 73.606 193.694 73.543C195.16 73.48 196.615 73.8244 197.896 74.538C200.458 75.9099 202.298 76.6237 203.448 79.2962C204.455 81.6435 202.322 86.2907 201.862 88.8125Z" fill="#2F2E41"/>
<path d="M190.841 390.533L130.477 330.168C129.776 329.466 129.382 328.514 129.382 327.522C129.382 326.529 129.776 325.577 130.477 324.875L172.68 282.671C173.383 281.97 174.335 281.576 175.327 281.576C176.319 281.576 177.271 281.97 177.974 282.671L238.338 343.036C239.039 343.738 239.433 344.69 239.433 345.682C239.433 346.675 239.039 347.626 238.338 348.329L196.134 390.533C195.432 391.234 194.48 391.627 193.488 391.627C192.495 391.627 191.544 391.234 190.841 390.533V390.533Z" fill="white"/>
<path d="M193.488 392.626C192.865 392.628 192.248 392.507 191.672 392.269C191.096 392.031 190.574 391.681 190.134 391.24L129.769 330.875C128.881 329.986 128.382 328.779 128.382 327.522C128.382 326.264 128.881 325.058 129.769 324.168L171.974 281.964C172.864 281.076 174.07 280.577 175.327 280.577C176.585 280.577 177.791 281.076 178.681 281.964L239.045 342.329C239.934 343.218 240.433 344.425 240.433 345.682C240.433 346.94 239.934 348.146 239.045 349.036L196.841 391.24C196.402 391.681 195.879 392.031 195.303 392.269C194.728 392.507 194.111 392.628 193.488 392.626ZM175.327 282.577C174.967 282.575 174.61 282.645 174.277 282.783C173.944 282.921 173.642 283.123 173.388 283.378L131.184 325.582C130.67 326.097 130.382 326.795 130.382 327.522C130.382 328.249 130.67 328.946 131.184 329.461L191.548 389.826C192.071 390.323 192.766 390.601 193.488 390.601C194.21 390.601 194.904 390.323 195.427 389.826L237.631 347.622C238.145 347.107 238.433 346.409 238.433 345.682C238.433 344.955 238.145 344.257 237.631 343.743L177.266 283.378C177.012 283.123 176.71 282.921 176.377 282.783C176.044 282.645 175.687 282.575 175.327 282.577V282.577Z" fill="#E6E6E6"/>
<path d="M168.097 288.286C167.086 286.993 166.372 285.494 166.003 283.894C165.635 282.295 165.621 280.634 165.964 279.029C166.307 277.424 166.997 275.914 167.987 274.604C168.977 273.295 170.241 272.219 171.692 271.451L172.642 170.638L191.484 179.285L187.339 276.786C188.468 279.308 188.631 282.157 187.8 284.792C186.968 287.427 185.198 289.665 182.826 291.083C180.454 292.5 177.645 292.999 174.93 292.483C172.215 291.968 169.784 290.474 168.097 288.286V288.286Z" fill="#9E616A"/>
<path d="M168.604 145.114C168.604 145.114 186.934 136.223 189.469 152.998C192.003 169.773 202.43 213.431 202.43 213.431L170.791 211.194L168.604 145.114Z" fill="#9E616A"/>
<path d="M168.097 288.286C167.086 286.993 166.372 285.494 166.003 283.894C165.635 282.295 165.621 280.634 165.964 279.029C166.307 277.424 166.997 275.914 167.987 274.604C168.977 273.295 170.241 272.219 171.692 271.451L172.642 170.638L191.484 179.285L187.339 276.786C188.468 279.308 188.631 282.157 187.8 284.792C186.968 287.427 185.198 289.665 182.826 291.083C180.454 292.5 177.645 292.999 174.93 292.483C172.215 291.968 169.784 290.474 168.097 288.286V288.286Z" fill="#9E616A"/>
<path d="M168.604 145.114C168.604 145.114 186.934 136.223 189.469 152.998C192.003 169.773 202.43 213.431 202.43 213.431L170.791 211.194L168.604 145.114Z" fill="#C587EC"/>
<path d="M325.376 166.92V154.608L345.32 122.928L354.464 128.904L337.4 156.048L338.408 157.56H352.952V139.128H363.824V157.56H369.872V166.92H363.824V177H352.952V166.92H325.376ZM398.879 178.368C394.703 178.368 391.127 177.696 388.151 176.352C385.175 175.008 382.751 173.136 380.879 170.736C379.007 168.336 377.639 165.6 376.775 162.528C375.911 159.456 375.479 156.192 375.479 152.736V148.632C375.479 143.88 376.319 139.56 377.999 135.672C379.679 131.736 382.247 128.616 385.703 126.312C389.159 124.008 393.551 122.856 398.879 122.856C404.207 122.856 408.575 124.008 411.983 126.312C415.439 128.616 418.007 131.736 419.687 135.672C421.367 139.56 422.207 143.88 422.207 148.632V152.736C422.207 156.192 421.751 159.456 420.839 162.528C419.975 165.6 418.607 168.336 416.735 170.736C414.911 173.136 412.511 175.008 409.535 176.352C406.607 177.696 403.055 178.368 398.879 178.368ZM398.879 167.496C402.767 167.496 405.647 166.152 407.519 163.464C409.439 160.728 410.399 156.504 410.399 150.792C410.399 144.744 409.415 140.4 407.447 137.76C405.527 135.072 402.671 133.728 398.879 133.728C395.039 133.728 392.135 135.048 390.167 137.688C388.247 140.328 387.287 144.648 387.287 150.648C387.287 156.456 388.223 160.728 390.095 163.464C392.015 166.152 394.943 167.496 398.879 167.496ZM453.793 178.368C449.617 178.368 446.041 177.696 443.065 176.352C440.089 175.008 437.665 173.136 435.793 170.736C433.921 168.336 432.553 165.6 431.689 162.528C430.825 159.456 430.393 156.192 430.393 152.736V148.632C430.393 143.88 431.233 139.56 432.913 135.672C434.593 131.736 437.161 128.616 440.617 126.312C444.073 124.008 448.465 122.856 453.793 122.856C459.121 122.856 463.489 124.008 466.897 126.312C470.353 128.616 472.921 131.736 474.601 135.672C476.281 139.56 477.121 143.88 477.121 148.632V152.736C477.121 156.192 476.665 159.456 475.753 162.528C474.889 165.6 473.521 168.336 471.649 170.736C469.825 173.136 467.425 175.008 464.449 176.352C461.521 177.696 457.969 178.368 453.793 178.368ZM453.793 167.496C457.681 167.496 460.561 166.152 462.433 163.464C464.353 160.728 465.313 156.504 465.313 150.792C465.313 144.744 464.329 140.4 462.361 137.76C460.441 135.072 457.585 133.728 453.793 133.728C449.953 133.728 447.049 135.048 445.081 137.688C443.161 140.328 442.201 144.648 442.201 150.648C442.201 156.456 443.137 160.728 445.009 163.464C446.929 166.152 449.857 167.496 453.793 167.496Z" fill="#A878D8"/>
<path d="M370.048 232.266C369.124 232.266 368.317 232.107 367.626 231.79C366.945 231.463 366.38 231.039 365.932 230.516C365.484 229.984 365.148 229.415 364.924 228.808C364.709 228.192 364.602 227.595 364.602 227.016V226.708C364.602 226.073 364.714 225.448 364.938 224.832C365.171 224.216 365.517 223.656 365.974 223.152C366.431 222.639 367.001 222.233 367.682 221.934C368.363 221.626 369.152 221.472 370.048 221.472C370.944 221.472 371.733 221.626 372.414 221.934C373.095 222.233 373.665 222.639 374.122 223.152C374.579 223.656 374.925 224.216 375.158 224.832C375.391 225.448 375.508 226.073 375.508 226.708V227.016C375.508 227.595 375.396 228.192 375.172 228.808C374.948 229.415 374.612 229.984 374.164 230.516C373.716 231.039 373.147 231.463 372.456 231.79C371.775 232.107 370.972 232.266 370.048 232.266ZM370.048 230.124C370.692 230.124 371.247 229.979 371.714 229.69C372.19 229.401 372.554 229.009 372.806 228.514C373.058 228.019 373.184 227.473 373.184 226.876C373.184 226.241 373.053 225.681 372.792 225.196C372.54 224.701 372.181 224.314 371.714 224.034C371.247 223.754 370.692 223.614 370.048 223.614C369.404 223.614 368.849 223.754 368.382 224.034C367.915 224.314 367.556 224.701 367.304 225.196C367.052 225.681 366.926 226.241 366.926 226.876C366.926 227.473 367.052 228.019 367.304 228.514C367.556 229.009 367.915 229.401 368.382 229.69C368.849 229.979 369.404 230.124 370.048 230.124ZM380.86 232.266C379.964 232.266 379.198 232.084 378.564 231.72C377.938 231.356 377.462 230.88 377.136 230.292C376.809 229.695 376.646 229.046 376.646 228.346V228.024C376.646 227.305 376.814 226.647 377.15 226.05C377.495 225.443 377.98 224.963 378.606 224.608C379.24 224.244 379.992 224.062 380.86 224.062C381.728 224.062 382.479 224.244 383.114 224.608C383.748 224.963 384.234 225.443 384.57 226.05C384.915 226.647 385.088 227.305 385.088 228.024V228.346C385.088 229.046 384.92 229.695 384.584 230.292C384.257 230.88 383.781 231.356 383.156 231.72C382.53 232.084 381.765 232.266 380.86 232.266ZM380.86 230.376C381.504 230.376 381.994 230.171 382.33 229.76C382.675 229.34 382.848 228.817 382.848 228.192C382.848 227.548 382.67 227.016 382.316 226.596C381.97 226.167 381.485 225.952 380.86 225.952C380.234 225.952 379.749 226.167 379.404 226.596C379.058 227.016 378.886 227.548 378.886 228.192C378.886 228.817 379.054 229.34 379.39 229.76C379.726 230.171 380.216 230.376 380.86 230.376ZM390.389 232.266C389.493 232.266 388.728 232.084 388.093 231.72C387.468 231.356 386.992 230.88 386.665 230.292C386.338 229.695 386.175 229.046 386.175 228.346V228.024C386.175 227.305 386.343 226.647 386.679 226.05C387.024 225.443 387.51 224.963 388.135 224.608C388.77 224.244 389.521 224.062 390.389 224.062C391.257 224.062 392.008 224.244 392.643 224.608C393.278 224.963 393.763 225.443 394.099 226.05C394.444 226.647 394.617 227.305 394.617 228.024V228.346C394.617 229.046 394.449 229.695 394.113 230.292C393.786 230.88 393.31 231.356 392.685 231.72C392.06 232.084 391.294 232.266 390.389 232.266ZM390.389 230.376C391.033 230.376 391.523 230.171 391.859 229.76C392.204 229.34 392.377 228.817 392.377 228.192C392.377 227.548 392.2 227.016 391.845 226.596C391.5 226.167 391.014 225.952 390.389 225.952C389.764 225.952 389.278 226.167 388.933 226.596C388.588 227.016 388.415 227.548 388.415 228.192C388.415 228.817 388.583 229.34 388.919 229.76C389.255 230.171 389.745 230.376 390.389 230.376ZM399.918 232.266C399.022 232.266 398.257 232.084 397.622 231.72C396.997 231.356 396.521 230.88 396.194 230.292C395.868 229.695 395.704 229.046 395.704 228.346V228.024C395.704 227.305 395.872 226.647 396.208 226.05C396.554 225.443 397.039 224.963 397.664 224.608C398.299 224.244 399.05 224.062 399.918 224.062C400.786 224.062 401.538 224.244 402.172 224.608C402.807 224.963 403.292 225.443 403.628 226.05C403.974 226.647 404.146 227.305 404.146 228.024V228.346C404.146 229.046 403.978 229.695 403.642 230.292C403.316 230.88 402.84 231.356 402.214 231.72C401.589 232.084 400.824 232.266 399.918 232.266ZM399.918 230.376C400.562 230.376 401.052 230.171 401.388 229.76C401.734 229.34 401.906 228.817 401.906 228.192C401.906 227.548 401.729 227.016 401.374 226.596C401.029 226.167 400.544 225.952 399.918 225.952C399.293 225.952 398.808 226.167 398.462 226.596C398.117 227.016 397.944 227.548 397.944 228.192C397.944 228.817 398.112 229.34 398.448 229.76C398.784 230.171 399.274 230.376 399.918 230.376ZM405.71 234.8V224.328H407.488V226.274C407.712 225.565 408.085 225.028 408.608 224.664C409.14 224.291 409.76 224.104 410.47 224.104C411.179 224.104 411.795 224.277 412.318 224.622C412.85 224.958 413.26 225.42 413.55 226.008C413.848 226.596 413.998 227.259 413.998 227.996V228.318C413.998 229.055 413.858 229.723 413.578 230.32C413.298 230.917 412.896 231.389 412.374 231.734C411.851 232.079 411.216 232.252 410.47 232.252C409.947 232.252 409.466 232.154 409.028 231.958C408.589 231.762 408.23 231.463 407.95 231.062V234.8H405.71ZM409.84 230.376C410.409 230.376 410.866 230.171 411.212 229.76C411.566 229.349 411.744 228.813 411.744 228.15C411.744 227.497 411.566 226.969 411.212 226.568C410.866 226.167 410.409 225.966 409.84 225.966C409.494 225.966 409.172 226.045 408.874 226.204C408.584 226.363 408.346 226.591 408.16 226.89C407.982 227.189 407.894 227.543 407.894 227.954V228.472C407.894 228.873 407.987 229.219 408.174 229.508C408.37 229.788 408.617 230.003 408.916 230.152C409.214 230.301 409.522 230.376 409.84 230.376ZM418.465 232.238C417.373 232.238 416.519 232.014 415.903 231.566C415.287 231.118 414.961 230.488 414.923 229.676H416.911C416.939 229.919 417.084 230.138 417.345 230.334C417.607 230.521 417.994 230.614 418.507 230.614C418.89 230.614 419.212 230.549 419.473 230.418C419.735 230.287 419.865 230.091 419.865 229.83C419.865 229.606 419.767 229.429 419.571 229.298C419.375 229.158 419.025 229.06 418.521 229.004L417.919 228.948C416.995 228.845 416.3 228.589 415.833 228.178C415.376 227.767 415.147 227.231 415.147 226.568C415.147 226.027 415.283 225.574 415.553 225.21C415.833 224.846 416.211 224.571 416.687 224.384C417.163 224.197 417.709 224.104 418.325 224.104C419.315 224.104 420.108 224.323 420.705 224.762C421.312 225.191 421.634 225.817 421.671 226.638H419.683C419.646 226.395 419.511 226.185 419.277 226.008C419.053 225.831 418.727 225.742 418.297 225.742C417.952 225.742 417.677 225.807 417.471 225.938C417.266 226.069 417.163 226.246 417.163 226.47C417.163 226.685 417.252 226.848 417.429 226.96C417.607 227.072 417.896 227.151 418.297 227.198L418.899 227.254C419.833 227.357 420.561 227.623 421.083 228.052C421.615 228.472 421.881 229.032 421.881 229.732C421.881 230.507 421.573 231.118 420.957 231.566C420.341 232.014 419.511 232.238 418.465 232.238ZM422.873 232V229.494H425.337V232H422.873ZM426.701 232V229.494H429.165V232H426.701ZM430.529 232V229.494H432.993V232H430.529Z" fill="#A878D8"/>
<path d="M308.584 250V246.122H308.08L305.098 239.78H307.45L309.536 244.4H309.984L311.86 239.78H314.086L311.342 246.122H310.838V250H308.584ZM318.182 250.266C317.286 250.266 316.521 250.084 315.886 249.72C315.261 249.356 314.785 248.88 314.458 248.292C314.131 247.695 313.968 247.046 313.968 246.346V246.024C313.968 245.305 314.136 244.647 314.472 244.05C314.817 243.443 315.303 242.963 315.928 242.608C316.563 242.244 317.314 242.062 318.182 242.062C319.05 242.062 319.801 242.244 320.436 242.608C321.071 242.963 321.556 243.443 321.892 244.05C322.237 244.647 322.41 245.305 322.41 246.024V246.346C322.41 247.046 322.242 247.695 321.906 248.292C321.579 248.88 321.103 249.356 320.478 249.72C319.853 250.084 319.087 250.266 318.182 250.266ZM318.182 248.376C318.826 248.376 319.316 248.171 319.652 247.76C319.997 247.34 320.17 246.817 320.17 246.192C320.17 245.548 319.993 245.016 319.638 244.596C319.293 244.167 318.807 243.952 318.182 243.952C317.557 243.952 317.071 244.167 316.726 244.596C316.381 245.016 316.208 245.548 316.208 246.192C316.208 246.817 316.376 247.34 316.712 247.76C317.048 248.171 317.538 248.376 318.182 248.376ZM326.563 250.238C325.677 250.238 324.995 249.953 324.519 249.384C324.043 248.815 323.805 247.947 323.805 246.78V242.328H326.045V246.892C326.045 247.303 326.162 247.629 326.395 247.872C326.629 248.115 326.941 248.236 327.333 248.236C327.735 248.236 328.061 248.11 328.313 247.858C328.565 247.606 328.691 247.265 328.691 246.836V242.328H330.931V250H329.153V248.208C328.836 249.561 328.005 250.238 326.661 250.238H326.563ZM332.521 244.554V243.28H332.955C333.328 243.28 333.594 243.191 333.753 243.014C333.921 242.837 334.005 242.496 334.005 241.992C333.921 242.001 333.837 242.006 333.753 242.006C333.417 242.006 333.137 241.908 332.913 241.712C332.698 241.507 332.591 241.222 332.591 240.858C332.591 240.522 332.698 240.233 332.913 239.99C333.127 239.747 333.435 239.626 333.837 239.626C334.098 239.626 334.336 239.687 334.551 239.808C334.775 239.929 334.952 240.135 335.083 240.424C335.223 240.713 335.293 241.105 335.293 241.6V241.81C335.293 242.799 335.078 243.504 334.649 243.924C334.229 244.344 333.622 244.554 332.829 244.554H332.521ZM338.35 250L336.054 242.328H338.364L340.002 248.138H340.324L341.738 242.328H343.894L341.906 250H338.35ZM348.556 250.266C347.902 250.266 347.324 250.154 346.82 249.93C346.325 249.706 345.91 249.407 345.574 249.034C345.238 248.651 344.986 248.227 344.818 247.76C344.65 247.284 344.566 246.799 344.566 246.304V246.024C344.566 245.52 344.65 245.03 344.818 244.554C344.986 244.078 345.238 243.653 345.574 243.28C345.91 242.907 346.316 242.613 346.792 242.398C347.277 242.174 347.837 242.062 348.472 242.062C349.293 242.062 349.984 242.249 350.544 242.622C351.113 242.986 351.547 243.467 351.846 244.064C352.144 244.661 352.294 245.305 352.294 245.996V246.752H346.68C346.754 247.275 346.941 247.69 347.24 247.998C347.548 248.297 347.986 248.446 348.556 248.446C348.957 248.446 349.288 248.371 349.55 248.222C349.82 248.063 350.002 247.863 350.096 247.62H352.154C351.986 248.404 351.58 249.043 350.936 249.538C350.301 250.023 349.508 250.266 348.556 250.266ZM348.472 243.882C347.986 243.882 347.59 244.022 347.282 244.302C346.983 244.573 346.792 244.965 346.708 245.478H350.152C350.077 244.965 349.895 244.573 349.606 244.302C349.326 244.022 348.948 243.882 348.472 243.882ZM359.629 250.238C358.537 250.238 357.683 250.014 357.067 249.566C356.451 249.118 356.125 248.488 356.087 247.676H358.075C358.103 247.919 358.248 248.138 358.509 248.334C358.771 248.521 359.158 248.614 359.671 248.614C360.054 248.614 360.376 248.549 360.637 248.418C360.899 248.287 361.029 248.091 361.029 247.83C361.029 247.606 360.931 247.429 360.735 247.298C360.539 247.158 360.189 247.06 359.685 247.004L359.083 246.948C358.159 246.845 357.464 246.589 356.997 246.178C356.54 245.767 356.311 245.231 356.311 244.568C356.311 244.027 356.447 243.574 356.717 243.21C356.997 242.846 357.375 242.571 357.851 242.384C358.327 242.197 358.873 242.104 359.489 242.104C360.479 242.104 361.272 242.323 361.869 242.762C362.476 243.191 362.798 243.817 362.835 244.638H360.847C360.81 244.395 360.675 244.185 360.441 244.008C360.217 243.831 359.891 243.742 359.461 243.742C359.116 243.742 358.841 243.807 358.635 243.938C358.43 244.069 358.327 244.246 358.327 244.47C358.327 244.685 358.416 244.848 358.593 244.96C358.771 245.072 359.06 245.151 359.461 245.198L360.063 245.254C360.997 245.357 361.725 245.623 362.247 246.052C362.779 246.472 363.045 247.032 363.045 247.732C363.045 248.507 362.737 249.118 362.121 249.566C361.505 250.014 360.675 250.238 359.629 250.238ZM368.011 250.266C367.357 250.266 366.779 250.154 366.275 249.93C365.78 249.706 365.365 249.407 365.029 249.034C364.693 248.651 364.441 248.227 364.273 247.76C364.105 247.284 364.021 246.799 364.021 246.304V246.024C364.021 245.52 364.105 245.03 364.273 244.554C364.441 244.078 364.693 243.653 365.029 243.28C365.365 242.907 365.771 242.613 366.247 242.398C366.732 242.174 367.292 242.062 367.927 242.062C368.748 242.062 369.439 242.249 369.999 242.622C370.568 242.986 371.002 243.467 371.301 244.064C371.599 244.661 371.749 245.305 371.749 245.996V246.752H366.135C366.209 247.275 366.396 247.69 366.695 247.998C367.003 248.297 367.441 248.446 368.011 248.446C368.412 248.446 368.743 248.371 369.005 248.222C369.275 248.063 369.457 247.863 369.551 247.62H371.609C371.441 248.404 371.035 249.043 370.391 249.538C369.756 250.023 368.963 250.266 368.011 250.266ZM367.927 243.882C367.441 243.882 367.045 244.022 366.737 244.302C366.438 244.573 366.247 244.965 366.163 245.478H369.607C369.532 244.965 369.35 244.573 369.061 244.302C368.781 244.022 368.403 243.882 367.927 243.882ZM373.233 250V242.328H375.011V244.288C375.319 242.823 376.182 242.09 377.601 242.09H377.699C378.586 242.09 379.267 242.384 379.743 242.972C380.219 243.551 380.457 244.433 380.457 245.618V250H378.217V245.492C378.217 245.081 378.096 244.745 377.853 244.484C377.61 244.223 377.284 244.092 376.873 244.092C376.453 244.092 376.112 244.227 375.851 244.498C375.599 244.759 375.473 245.105 375.473 245.534V250H373.233ZM385.852 250.098C385.077 250.098 384.452 250.005 383.976 249.818C383.5 249.622 383.15 249.3 382.926 248.852C382.711 248.395 382.604 247.779 382.604 247.004V243.966H381.442V242.328H382.604V240.256H384.69V242.328H386.93V243.966H384.69V247.088C384.69 247.452 384.783 247.732 384.97 247.928C385.166 248.115 385.441 248.208 385.796 248.208H386.93V250.098H385.852ZM393.56 250.196C392.729 250.196 392.057 249.981 391.544 249.552C391.04 249.123 390.788 248.516 390.788 247.732C390.788 247.172 390.932 246.715 391.222 246.36C391.511 245.996 391.917 245.73 392.44 245.562C392.962 245.385 393.564 245.296 394.246 245.296H395.632V245.268C395.632 244.484 395.24 244.092 394.456 244.092C394.25 244.092 393.98 244.101 393.644 244.12C393.308 244.129 392.958 244.143 392.594 244.162C392.239 244.171 391.922 244.185 391.642 244.204V242.314C391.968 242.286 392.37 242.263 392.846 242.244C393.322 242.216 393.76 242.202 394.162 242.202C395.338 242.202 396.234 242.454 396.85 242.958C397.475 243.453 397.788 244.232 397.788 245.296V250H396.01V248.558C395.842 249.09 395.552 249.496 395.142 249.776C394.731 250.056 394.204 250.196 393.56 250.196ZM394.232 248.642C394.596 248.642 394.913 248.539 395.184 248.334C395.454 248.129 395.604 247.737 395.632 247.158V246.542H394.232C393.84 246.542 393.536 246.64 393.322 246.836C393.116 247.032 393.014 247.289 393.014 247.606C393.014 247.914 393.116 248.166 393.322 248.362C393.536 248.549 393.84 248.642 394.232 248.642ZM410.285 250.252C409.576 250.252 408.964 250.084 408.451 249.748C407.938 249.412 407.569 248.927 407.345 248.292V250H405.567V239.78H407.807V243.546C408.078 243.07 408.437 242.711 408.885 242.468C409.333 242.225 409.842 242.104 410.411 242.104C411.111 242.104 411.718 242.277 412.231 242.622C412.744 242.958 413.141 243.42 413.421 244.008C413.71 244.587 413.855 245.249 413.855 245.996V246.304C413.855 247.051 413.71 247.723 413.421 248.32C413.132 248.908 412.721 249.379 412.189 249.734C411.657 250.079 411.022 250.252 410.285 250.252ZM409.697 248.376C410.266 248.376 410.724 248.171 411.069 247.76C411.424 247.34 411.601 246.803 411.601 246.15C411.601 245.497 411.424 244.969 411.069 244.568C410.724 244.167 410.266 243.966 409.697 243.966C409.352 243.966 409.03 244.045 408.731 244.204C408.442 244.363 408.204 244.591 408.017 244.89C407.84 245.189 407.751 245.543 407.751 245.954V246.472C407.751 246.873 407.844 247.219 408.031 247.508C408.227 247.788 408.474 248.003 408.773 248.152C409.072 248.301 409.38 248.376 409.697 248.376ZM417.595 250.196C416.764 250.196 416.092 249.981 415.579 249.552C415.075 249.123 414.823 248.516 414.823 247.732C414.823 247.172 414.967 246.715 415.257 246.36C415.546 245.996 415.952 245.73 416.475 245.562C416.997 245.385 417.599 245.296 418.281 245.296H419.667V245.268C419.667 244.484 419.275 244.092 418.491 244.092C418.285 244.092 418.015 244.101 417.679 244.12C417.343 244.129 416.993 244.143 416.629 244.162C416.274 244.171 415.957 244.185 415.677 244.204V242.314C416.003 242.286 416.405 242.263 416.881 242.244C417.357 242.216 417.795 242.202 418.197 242.202C419.373 242.202 420.269 242.454 420.885 242.958C421.51 243.453 421.823 244.232 421.823 245.296V250H420.045V248.558C419.877 249.09 419.587 249.496 419.177 249.776C418.766 250.056 418.239 250.196 417.595 250.196ZM418.267 248.642C418.631 248.642 418.948 248.539 419.219 248.334C419.489 248.129 419.639 247.737 419.667 247.158V246.542H418.267C417.875 246.542 417.571 246.64 417.357 246.836C417.151 247.032 417.049 247.289 417.049 247.606C417.049 247.914 417.151 248.166 417.357 248.362C417.571 248.549 417.875 248.642 418.267 248.642ZM426.887 250.252C426.169 250.252 425.534 250.084 424.983 249.748C424.442 249.403 424.017 248.936 423.709 248.348C423.401 247.76 423.247 247.097 423.247 246.36V246.038C423.247 245.301 423.392 244.633 423.681 244.036C423.971 243.439 424.381 242.967 424.913 242.622C425.455 242.277 426.085 242.104 426.803 242.104C427.923 242.104 428.749 242.529 429.281 243.378V239.78H431.535V250H429.757V248.39C429.505 248.997 429.132 249.459 428.637 249.776C428.143 250.093 427.559 250.252 426.887 250.252ZM427.447 248.376C427.961 248.376 428.404 248.203 428.777 247.858C429.151 247.513 429.337 247.023 429.337 246.388V245.87C429.337 245.469 429.249 245.128 429.071 244.848C428.894 244.559 428.661 244.339 428.371 244.19C428.082 244.041 427.769 243.966 427.433 243.966C426.864 243.966 426.397 244.171 426.033 244.582C425.669 244.993 425.487 245.529 425.487 246.192C425.487 246.864 425.669 247.396 426.033 247.788C426.407 248.18 426.878 248.376 427.447 248.376ZM436.506 250V242.328H438.284V244.932C438.368 244.064 438.634 243.397 439.082 242.93C439.54 242.463 440.16 242.23 440.944 242.23H441.238V244.162H440.678C440.053 244.162 439.572 244.33 439.236 244.666C438.91 245.002 438.746 245.478 438.746 246.094V250H436.506ZM445.872 250.266C445.219 250.266 444.64 250.154 444.136 249.93C443.641 249.706 443.226 249.407 442.89 249.034C442.554 248.651 442.302 248.227 442.134 247.76C441.966 247.284 441.882 246.799 441.882 246.304V246.024C441.882 245.52 441.966 245.03 442.134 244.554C442.302 244.078 442.554 243.653 442.89 243.28C443.226 242.907 443.632 242.613 444.108 242.398C444.593 242.174 445.153 242.062 445.788 242.062C446.609 242.062 447.3 242.249 447.86 242.622C448.429 242.986 448.863 243.467 449.162 244.064C449.461 244.661 449.61 245.305 449.61 245.996V246.752H443.996C444.071 247.275 444.257 247.69 444.556 247.998C444.864 248.297 445.303 248.446 445.872 248.446C446.273 248.446 446.605 248.371 446.866 248.222C447.137 248.063 447.319 247.863 447.412 247.62H449.47C449.302 248.404 448.896 249.043 448.252 249.538C447.617 250.023 446.824 250.266 445.872 250.266ZM445.788 243.882C445.303 243.882 444.906 244.022 444.598 244.302C444.299 244.573 444.108 244.965 444.024 245.478H447.468C447.393 244.965 447.211 244.573 446.922 244.302C446.642 244.022 446.264 243.882 445.788 243.882ZM456.652 252.8V249.02C456.102 249.841 455.271 250.252 454.16 250.252C453.442 250.252 452.816 250.084 452.284 249.748C451.752 249.403 451.342 248.936 451.052 248.348C450.763 247.751 450.618 247.083 450.618 246.346V246.024C450.618 245.287 450.768 244.624 451.066 244.036C451.374 243.439 451.799 242.967 452.34 242.622C452.891 242.277 453.53 242.104 454.258 242.104C454.949 242.104 455.542 242.277 456.036 242.622C456.531 242.958 456.895 243.443 457.128 244.078V242.328H458.906V252.8H456.652ZM454.818 248.362C455.332 248.362 455.775 248.189 456.148 247.844C456.522 247.499 456.708 247.009 456.708 246.374V245.856C456.708 245.455 456.62 245.114 456.442 244.834C456.265 244.545 456.032 244.325 455.742 244.176C455.453 244.027 455.145 243.952 454.818 243.952C454.24 243.952 453.768 244.162 453.404 244.582C453.04 244.993 452.858 245.525 452.858 246.178C452.858 246.85 453.04 247.382 453.404 247.774C453.778 248.166 454.249 248.362 454.818 248.362ZM463.528 250.238C462.641 250.238 461.96 249.953 461.484 249.384C461.008 248.815 460.77 247.947 460.77 246.78V242.328H463.01V246.892C463.01 247.303 463.127 247.629 463.36 247.872C463.593 248.115 463.906 248.236 464.298 248.236C464.699 248.236 465.026 248.11 465.278 247.858C465.53 247.606 465.656 247.265 465.656 246.836V242.328H467.896V250H466.118V248.208C465.801 249.561 464.97 250.238 463.626 250.238H463.528ZM473.475 250.266C472.822 250.266 472.243 250.154 471.739 249.93C471.245 249.706 470.829 249.407 470.493 249.034C470.157 248.651 469.905 248.227 469.737 247.76C469.569 247.284 469.485 246.799 469.485 246.304V246.024C469.485 245.52 469.569 245.03 469.737 244.554C469.905 244.078 470.157 243.653 470.493 243.28C470.829 242.907 471.235 242.613 471.711 242.398C472.197 242.174 472.757 242.062 473.391 242.062C474.213 242.062 474.903 242.249 475.463 242.622C476.033 242.986 476.467 243.467 476.765 244.064C477.064 244.661 477.213 245.305 477.213 245.996V246.752H471.599C471.674 247.275 471.861 247.69 472.159 247.998C472.467 248.297 472.906 248.446 473.475 248.446C473.877 248.446 474.208 248.371 474.469 248.222C474.74 248.063 474.922 247.863 475.015 247.62H477.073C476.905 248.404 476.499 249.043 475.855 249.538C475.221 250.023 474.427 250.266 473.475 250.266ZM473.391 243.882C472.906 243.882 472.509 244.022 472.201 244.302C471.903 244.573 471.711 244.965 471.627 245.478H475.071C474.997 244.965 474.815 244.573 474.525 244.302C474.245 244.022 473.867 243.882 473.391 243.882ZM481.61 250.238C480.518 250.238 479.664 250.014 479.048 249.566C478.432 249.118 478.105 248.488 478.068 247.676H480.056C480.084 247.919 480.228 248.138 480.49 248.334C480.751 248.521 481.138 248.614 481.652 248.614C482.034 248.614 482.356 248.549 482.618 248.418C482.879 248.287 483.01 248.091 483.01 247.83C483.01 247.606 482.912 247.429 482.716 247.298C482.52 247.158 482.17 247.06 481.666 247.004L481.064 246.948C480.14 246.845 479.444 246.589 478.978 246.178C478.52 245.767 478.292 245.231 478.292 244.568C478.292 244.027 478.427 243.574 478.698 243.21C478.978 242.846 479.356 242.571 479.832 242.384C480.308 242.197 480.854 242.104 481.47 242.104C482.459 242.104 483.252 242.323 483.85 242.762C484.456 243.191 484.778 243.817 484.816 244.638H482.828C482.79 244.395 482.655 244.185 482.422 244.008C482.198 243.831 481.871 243.742 481.442 243.742C481.096 243.742 480.821 243.807 480.616 243.938C480.41 244.069 480.308 244.246 480.308 244.47C480.308 244.685 480.396 244.848 480.574 244.96C480.751 245.072 481.04 245.151 481.442 245.198L482.044 245.254C482.977 245.357 483.705 245.623 484.228 246.052C484.76 246.472 485.026 247.032 485.026 247.732C485.026 248.507 484.718 249.118 484.102 249.566C483.486 250.014 482.655 250.238 481.61 250.238ZM489.963 250.098C489.188 250.098 488.563 250.005 488.087 249.818C487.611 249.622 487.261 249.3 487.037 248.852C486.822 248.395 486.715 247.779 486.715 247.004V243.966H485.553V242.328H486.715V240.256H488.801V242.328H491.041V243.966H488.801V247.088C488.801 247.452 488.894 247.732 489.081 247.928C489.277 248.115 489.552 248.208 489.907 248.208H491.041V250.098H489.963Z" fill="#A878D8"/>
</g>
<defs>
<clipPath id="clip0_2_3218">
<rect width="550.71" height="567.986" fill="white"/>
</clipPath>
</defs>
</svg>
