<svg width="551" height="568" viewBox="0 0 551 568" fill="none" xmlns="http://www.w3.org/2000/svg">
<g clip-path="url(#clip0_2_3218)">
<path d="M386.602 567.986H235.877C234.124 567.984 232.445 567.287 231.206 566.048C229.967 564.809 229.27 563.13 229.268 561.377V455.998C229.27 454.246 229.967 452.566 231.206 451.327C232.445 450.088 234.124 449.391 235.877 449.389H386.602C388.354 449.391 390.034 450.088 391.273 451.327C392.511 452.566 393.208 454.246 393.21 455.998V561.377C393.208 563.129 392.511 564.809 391.273 566.048C390.034 567.287 388.354 567.984 386.602 567.986Z" fill="#F2F2F2"/>
<path d="M140.287 293.286C141.297 291.993 142.012 290.494 142.38 288.894C142.749 287.295 142.762 285.634 142.42 284.029C142.077 282.424 141.386 280.914 140.397 279.604C139.407 278.295 138.142 277.219 136.692 276.451L135.742 175.638L116.9 184.285L121.044 281.786C119.916 284.308 119.752 287.157 120.584 289.792C121.416 292.427 123.185 294.665 125.557 296.083C127.929 297.5 130.739 297.999 133.454 297.483C136.168 296.968 138.6 295.474 140.287 293.286Z" fill="#9E616A"/>
<path d="M139.779 150.114C139.779 150.114 121.45 141.223 118.915 157.998C116.38 174.773 105.954 218.431 105.954 218.431L137.593 216.194L139.779 150.114Z" fill="#9E616A"/>
<path d="M140.287 293.286C141.297 291.993 142.012 290.494 142.38 288.894C142.749 287.295 142.762 285.634 142.42 284.029C142.077 282.424 141.386 280.914 140.397 279.604C139.407 278.295 138.142 277.219 136.692 276.451L135.742 175.638L116.9 184.285L121.044 281.786C119.916 284.308 119.752 287.157 120.584 289.792C121.416 292.427 123.185 294.665 125.557 296.083C127.929 297.5 130.739 297.999 133.454 297.483C136.168 296.968 138.6 295.474 140.287 293.286Z" fill="#9E616A"/>
<path d="M139.779 150.114C139.779 150.114 121.45 141.223 118.915 157.998C116.38 174.773 105.954 218.431 105.954 218.431L137.593 216.194L139.779 150.114Z" fill="#C587EC"/>
<path d="M86.7078 538.459C85.9678 538.493 85.2351 538.299 84.6091 537.903C83.9832 537.506 83.4942 536.927 83.2084 536.244C82.9226 535.56 82.8538 534.805 83.0113 534.081C83.1689 533.357 83.5452 532.699 84.0892 532.197C84.1803 531.834 84.2457 531.574 84.3368 531.212C84.3042 531.133 84.2714 531.055 84.2384 530.976C83.4928 529.215 82.2435 527.713 80.6473 526.66C79.0512 525.607 77.1794 525.049 75.267 525.056C73.3547 525.063 71.4871 525.635 69.8988 526.7C68.3105 527.765 67.0724 529.276 66.3399 531.042C63.4125 538.093 59.6854 545.156 58.7677 552.61C58.3636 555.905 58.5341 559.246 59.2716 562.483C52.396 547.484 48.8257 531.183 48.8027 514.684C48.8013 510.543 49.0313 506.406 49.4917 502.292C49.8722 498.919 50.4002 495.569 51.0755 492.244C54.7607 474.203 62.6729 457.293 74.1625 442.903C79.7234 439.869 84.2206 435.203 87.048 429.534C88.0723 427.496 88.7963 425.321 89.1974 423.076C88.5701 423.158 87.9325 423.209 87.3052 423.251C87.1098 423.261 86.9041 423.271 86.7087 423.281L86.635 423.285C85.9456 423.316 85.2619 423.147 84.6663 422.798C84.0706 422.449 83.5885 421.936 83.2778 421.32C82.9672 420.704 82.8413 420.011 82.9153 419.325C82.9893 418.638 83.26 417.988 83.6949 417.452C83.9657 417.119 84.2368 416.786 84.5079 416.453C84.9193 415.939 85.341 415.435 85.7523 414.921C85.7998 414.872 85.8444 414.82 85.886 414.766C86.3591 414.18 86.8321 413.604 87.3052 413.018C86.4417 411.678 85.2803 410.555 83.9115 409.738C79.1707 406.961 72.6302 408.884 69.2057 413.172C65.7709 417.461 65.1231 423.477 66.3159 428.835C67.489 433.394 69.4295 437.72 72.0543 441.628C71.7972 441.957 71.5298 442.276 71.2727 442.605C66.573 448.648 62.4768 455.137 59.043 461.979C59.8781 454.314 58.8814 446.56 56.135 439.355C53.3515 432.64 48.1343 426.985 43.54 421.18C38.0214 414.207 26.7051 417.25 25.7329 426.089C25.7234 426.175 25.7143 426.26 25.7053 426.346C26.3877 426.731 27.0557 427.14 27.7093 427.572C28.5304 428.12 29.1666 428.904 29.5346 429.821C29.9026 430.737 29.9852 431.743 29.7716 432.707C29.558 433.671 29.0582 434.548 28.3376 435.223C27.617 435.899 26.7092 436.34 25.7333 436.491L25.6333 436.506C25.8764 438.966 26.3062 441.403 26.9188 443.798C28.694 450.482 31.8309 456.727 36.1328 462.142C40.4348 467.557 45.8091 472.025 51.9187 475.266C52.3198 475.472 52.7106 475.677 53.1117 475.873C49.6617 485.65 47.4977 495.834 46.674 506.169C46.2077 512.266 46.2352 518.391 46.7563 524.484L46.7254 524.268C45.409 517.493 41.7947 511.38 36.493 506.96C28.6186 500.492 17.4936 498.11 8.99854 492.911C8.09572 492.331 7.04597 492.022 5.97309 492.019C4.90021 492.016 3.84894 492.32 2.9433 492.896C2.03767 493.471 1.31543 494.293 0.861761 495.265C0.408091 496.238 0.241923 497.319 0.382849 498.383C0.394242 498.459 0.405811 498.534 0.417578 498.61C1.68394 499.126 2.91693 499.72 4.10941 500.389C4.79182 500.774 5.45982 501.183 6.11341 501.615C6.93449 502.164 7.57073 502.947 7.93873 503.864C8.30672 504.78 8.38932 505.786 8.17573 506.75C7.96213 507.714 7.4623 508.591 6.74171 509.267C6.02111 509.942 5.11338 510.384 4.13743 510.534L4.03742 510.549C3.96542 510.56 3.90373 510.57 3.83185 510.58C5.9956 515.747 9.03248 520.502 12.8095 524.638C17.4754 529.645 23.1148 533.646 29.3818 536.396C35.6489 539.145 42.4115 540.586 49.2552 540.63H49.2655C51.1233 548.702 53.8149 556.56 57.2972 564.077H85.9889C86.0918 563.758 86.1843 563.429 86.2769 563.11C83.6211 563.277 80.9549 563.118 78.3377 562.637C80.4665 560.025 82.5952 557.392 84.7239 554.78C84.7714 554.731 84.8161 554.68 84.8576 554.626C85.9374 553.289 87.0275 551.962 88.1073 550.625L88.1079 550.624C88.1655 546.526 87.6952 542.438 86.7087 538.46L86.7078 538.459Z" fill="#F2F2F2"/>
<path d="M509.708 538.459C508.968 538.493 508.235 538.299 507.609 537.903C506.983 537.506 506.494 536.927 506.208 536.244C505.923 535.56 505.854 534.805 506.011 534.081C506.169 533.357 506.545 532.699 507.089 532.197C507.18 531.834 507.246 531.574 507.337 531.212C507.304 531.133 507.271 531.055 507.238 530.976C506.493 529.215 505.243 527.713 503.647 526.66C502.051 525.607 500.179 525.049 498.267 525.056C496.355 525.063 494.487 525.635 492.899 526.7C491.31 527.765 490.072 529.276 489.34 531.042C486.412 538.093 482.685 545.156 481.768 552.61C481.364 555.905 481.534 559.246 482.272 562.483C475.396 547.484 471.826 531.183 471.803 514.684C471.801 510.543 472.031 506.406 472.492 502.292C472.872 498.919 473.4 495.569 474.075 492.244C477.761 474.203 485.673 457.293 497.162 442.903C502.723 439.869 507.221 435.203 510.048 429.534C511.072 427.496 511.796 425.321 512.197 423.076C511.57 423.158 510.932 423.209 510.305 423.251C510.11 423.261 509.904 423.271 509.709 423.281L509.635 423.285C508.946 423.316 508.262 423.147 507.666 422.798C507.071 422.449 506.588 421.936 506.278 421.32C505.967 420.704 505.841 420.011 505.915 419.325C505.989 418.638 506.26 417.988 506.695 417.452C506.966 417.119 507.237 416.786 507.508 416.453C507.919 415.939 508.341 415.435 508.752 414.921C508.8 414.872 508.844 414.82 508.886 414.766C509.359 414.18 509.832 413.604 510.305 413.018C509.442 411.678 508.28 410.555 506.911 409.738C502.171 406.961 495.63 408.884 492.206 413.172C488.771 417.461 488.123 423.477 489.316 428.835C490.489 433.394 492.429 437.72 495.054 441.628C494.797 441.957 494.53 442.276 494.273 442.605C489.573 448.648 485.477 455.137 482.043 461.979C482.878 454.314 481.881 446.56 479.135 439.355C476.351 432.64 471.134 426.985 466.54 421.18C461.021 414.207 449.705 417.25 448.733 426.089C448.723 426.175 448.714 426.26 448.705 426.346C449.388 426.731 450.056 427.14 450.709 427.572C451.53 428.12 452.166 428.904 452.534 429.821C452.902 430.737 452.985 431.743 452.771 432.707C452.558 433.671 452.058 434.548 451.337 435.223C450.617 435.899 449.709 436.34 448.733 436.491L448.633 436.506C448.876 438.966 449.306 441.403 449.919 443.798C451.694 450.482 454.831 456.727 459.133 462.142C463.435 467.557 468.809 472.025 474.919 475.266C475.32 475.472 475.711 475.677 476.112 475.873C472.662 485.65 470.498 495.834 469.674 506.169C469.208 512.266 469.235 518.391 469.756 524.484L469.725 524.268C468.409 517.493 464.795 511.38 459.493 506.96C451.619 500.492 440.494 498.11 431.999 492.911C431.096 492.331 430.046 492.022 428.973 492.019C427.9 492.016 426.849 492.32 425.943 492.896C425.038 493.471 424.315 494.293 423.862 495.265C423.408 496.238 423.242 497.319 423.383 498.383C423.394 498.459 423.406 498.534 423.418 498.61C424.684 499.126 425.917 499.72 427.109 500.389C427.792 500.774 428.46 501.183 429.113 501.615C429.934 502.164 430.571 502.947 430.939 503.864C431.307 504.78 431.389 505.786 431.176 506.75C430.962 507.714 430.462 508.591 429.742 509.267C429.021 509.942 428.113 510.384 427.137 510.534L427.037 510.549C426.965 510.56 426.904 510.57 426.832 510.58C428.996 515.747 432.032 520.502 435.81 524.638C440.475 529.645 446.115 533.646 452.382 536.396C458.649 539.145 465.412 540.586 472.255 540.63H472.266C474.123 548.702 476.815 556.56 480.297 564.077H508.989C509.092 563.758 509.184 563.429 509.277 563.11C506.621 563.277 503.955 563.118 501.338 562.637C503.466 560.025 505.595 557.392 507.724 554.78C507.771 554.731 507.816 554.68 507.858 554.626C508.937 553.289 510.027 551.962 511.107 550.625L511.108 550.624C511.165 546.526 510.695 542.438 509.709 538.46L509.708 538.459Z" fill="#F2F2F2"/>
<path d="M399.22 563.889C399.137 563.889 399.055 563.887 398.972 563.885C396.873 563.765 394.9 562.84 393.465 561.302C392.031 559.765 391.244 557.733 391.27 555.63C391.27 542.835 382.13 535.372 373.073 533.651C364.015 531.931 352.775 535.522 348.083 547.427L343.818 558.134C340.13 561.813 335.134 563.879 329.925 563.879C324.716 563.879 319.719 561.813 316.032 558.134L315.779 557.882L315.936 557.561L391.27 403.427V399.65C391.166 398.485 391.166 397.314 391.272 396.15L391.27 7.94662C391.27 6.88252 391.484 5.82926 391.898 4.8493C392.313 3.86935 392.92 2.98266 393.684 2.24187C394.448 1.50107 395.353 0.921247 396.345 0.536787C397.337 0.152328 398.397 -0.028944 399.46 0.00375196C401.56 0.123758 403.532 1.04884 404.967 2.58645C406.402 4.12407 407.188 6.15575 407.163 8.25863V396.195C407.267 397.359 407.267 398.53 407.161 399.695L407.163 403.426L482.654 557.882L482.401 558.134C478.714 561.813 473.717 563.879 468.508 563.879C463.299 563.879 458.302 561.813 454.615 558.134L454.503 557.964L450.35 547.427C445.658 535.523 434.419 531.934 425.36 533.651C416.303 535.371 407.163 542.835 407.163 555.63V555.943C407.163 558.05 406.326 560.07 404.837 561.56C403.347 563.051 401.327 563.888 399.22 563.889L399.22 563.889Z" fill="#E6E6E6"/>
<path d="M549.896 281.013H274.093C270.887 281.009 267.813 279.734 265.546 277.467C263.279 275.2 262.004 272.127 262 268.921V76.0926C262.004 72.8866 263.279 69.8128 265.546 67.5458C267.813 65.2788 270.887 64.0036 274.093 64H549.896C553.102 64.0037 556.175 65.2789 558.442 67.546C560.709 69.813 561.985 72.8867 561.988 76.0927V268.921C561.984 272.127 560.709 275.2 558.442 277.467C556.175 279.734 553.102 281.009 549.896 281.013Z" fill="white"/>
<path d="M537.396 282.486H261.593C257.989 282.482 254.534 281.049 251.986 278.5C249.438 275.952 248.004 272.498 248 268.894V76.0654C248.004 72.4616 249.438 69.0067 251.986 66.4586C254.534 63.9104 257.989 62.4771 261.593 62.4731H537.396C541 62.4772 544.454 63.9106 547.003 66.4587C549.551 69.0069 550.984 72.4617 550.988 76.0654V268.894C550.984 272.498 549.551 275.952 547.003 278.5C544.454 281.048 541 282.482 537.396 282.486ZM261.593 65.4731C258.784 65.4762 256.092 66.5931 254.106 68.5789C252.12 70.5646 251.003 73.257 251 76.0654V268.894C251.003 271.702 252.121 274.394 254.106 276.38C256.092 278.366 258.785 279.483 261.593 279.486H537.396C540.204 279.483 542.897 278.366 544.882 276.38C546.868 274.394 547.985 271.702 547.988 268.894V76.0654C547.985 73.2571 546.868 70.5647 544.882 68.5789C542.897 66.5932 540.204 65.4762 537.396 65.4731H261.593Z" fill="#F2F2F2"/>
<path d="M439.995 76.0292H358.438C353.267 76.0234 348.31 73.9668 344.654 70.3105C340.997 66.6543 338.941 61.6971 338.935 56.5264V56.1718H459.498V56.5264C459.492 61.6971 457.435 66.6543 453.779 70.3105C450.123 73.9668 445.166 76.0234 439.995 76.0292Z" fill="#E6E6E6"/>
<path d="M440.35 293.042H358.792C353.622 293.036 348.665 290.98 345.008 287.323C341.352 283.667 339.296 278.71 339.29 273.539V273.185H459.852V273.539C459.846 278.71 457.79 283.667 454.134 287.323C450.477 290.98 445.52 293.036 440.35 293.042Z" fill="#E6E6E6"/>
<path d="M549.67 564.882C549.671 565.039 549.64 565.194 549.58 565.338C549.521 565.483 549.433 565.614 549.323 565.725C549.212 565.835 549.081 565.923 548.936 565.983C548.791 566.042 548.636 566.073 548.48 566.072H1.18997C0.874364 566.072 0.57171 565.947 0.348541 565.724C0.125373 565.501 -3.05176e-05 565.198 -3.05176e-05 564.882C-3.05176e-05 564.567 0.125373 564.264 0.348541 564.041C0.57171 563.818 0.874364 563.692 1.18997 563.692H548.48C548.636 563.692 548.791 563.722 548.936 563.782C549.081 563.842 549.212 563.929 549.322 564.04C549.433 564.15 549.521 564.282 549.58 564.426C549.64 564.571 549.671 564.726 549.67 564.882Z" fill="#CCCCCC"/>
<path d="M184.306 537.181H198.722L205.58 481.575L184.303 481.576L184.306 537.181Z" fill="#9E616A"/>
<path d="M179.424 530.07L202.213 528.709V538.473L223.879 553.437C224.949 554.176 225.755 555.237 226.179 556.467C226.603 557.696 226.623 559.029 226.236 560.27C225.849 561.512 225.076 562.597 224.028 563.368C222.98 564.139 221.714 564.554 220.414 564.554H193.282L188.606 554.896L186.78 564.554H176.55L179.424 530.07Z" fill="#2F2E41"/>
<path d="M135.277 227.892L133.865 234.622L132.664 259.447L180.908 252.915L184.613 224.169L179.492 215.755L135.277 227.892Z" fill="#9E616A"/>
<path d="M111.347 537.181H125.763L132.621 481.575L111.344 481.576L111.347 537.181Z" fill="#9E616A"/>
<path d="M103.526 438.941L103.525 438.792L108.922 413.6L112.249 401.059L103 327.63C100.822 274.281 131.772 248.637 132.016 248.385L132.687 247.687L182.323 246.472C209.029 262.473 206.006 349.992 210.896 409.511C211.245 413.755 215.627 420.02 214.55 424.057C206.004 456.084 208.507 490.718 201.997 491.742L182.036 491.465L171.726 444.676L181.243 408.99C177.022 408.212 174.105 387.578 174.105 387.578C172.266 385.394 165.917 366.822 165.917 366.822L157.452 315.412L143.851 403.836L147.126 424.581L144.416 431.713L132.807 490.599L132.684 491.548L110.799 489.363L103.526 438.941Z" fill="#2F2E41"/>
<path d="M106.465 530.07L129.254 528.709V538.473L150.92 553.437C151.991 554.176 152.797 555.237 153.221 556.467C153.645 557.696 153.665 559.029 153.278 560.27C152.891 561.512 152.117 562.597 151.069 563.368C150.022 564.139 148.755 564.554 147.455 564.554H120.324L115.647 554.896L113.821 564.554H103.592L106.465 530.07Z" fill="#2F2E41"/>
<path d="M175.078 130.806L187.246 144.326L201.862 171.874L194.682 205.842L197.821 221.782L202.456 239.304C184.597 249.183 163.382 235.539 143.893 229.479L124.717 237.952L125.731 214.63L126.251 155.869C126.271 153.613 126.754 151.384 127.672 149.322C128.589 147.26 129.92 145.408 131.583 143.882C133.246 142.356 135.204 141.188 137.337 140.45C139.47 139.712 141.732 139.421 143.983 139.594L156.827 130.13L175.078 130.806Z" fill="#C587EC"/>
<path d="M171.67 123.729C185.84 123.729 197.327 112.242 197.327 98.0719C197.327 83.9018 185.84 72.4147 171.67 72.4147C157.5 72.4147 146.013 83.9018 146.013 98.0719C146.013 112.242 157.5 123.729 171.67 123.729Z" fill="#9E616A"/>
<path d="M201.862 88.8125C201.41 91.3265 190.608 92.5398 190.934 88.0671C188.832 92.2781 185.692 98.3891 189.692 105.389C188.125 107.096 187.138 109.254 186.872 111.555C186.606 113.857 187.074 116.183 188.21 118.202C189.348 120.052 190.302 122.01 191.057 124.047C191.21 124.541 191.318 125.048 191.382 125.561C191.447 126.077 191.371 126.601 191.163 127.078C190.956 127.554 190.624 127.967 190.202 128.271C189.78 128.575 189.284 128.76 188.767 128.806C188.249 128.853 187.728 128.759 187.259 128.535C176.378 123.206 157.404 124.109 145.501 127.361C145.58 125.045 145.549 122.735 145.406 120.43C144.971 123.312 143.809 126.036 142.027 128.344C139.989 128.947 137.991 129.573 136.056 130.192C135.761 130.288 135.445 130.301 135.143 130.232C134.841 130.163 134.563 130.012 134.339 129.798C134.115 129.583 133.954 129.311 133.872 129.012C133.791 128.713 133.792 128.397 133.875 128.098C134.252 126.73 134.323 125.294 134.081 123.895C133.59 120.993 132.13 118.368 131.1 115.616C130.069 112.864 129.482 109.7 130.743 107.043C132.701 102.92 138.221 101.659 140.656 97.7967C143.392 93.4589 141.266 87.8046 141.694 82.6895C142.297 75.4571 148.221 69.5808 154.898 66.7417C166.461 61.8249 180.926 65.8067 189.593 74.8949C190.809 74.0739 192.229 73.606 193.694 73.543C195.16 73.48 196.615 73.8244 197.896 74.538C200.458 75.9099 202.298 76.6237 203.448 79.2962C204.455 81.6435 202.322 86.2907 201.862 88.8125Z" fill="#2F2E41"/>
<path d="M190.841 390.533L130.477 330.168C129.776 329.466 129.382 328.514 129.382 327.522C129.382 326.529 129.776 325.577 130.477 324.875L172.68 282.671C173.383 281.97 174.335 281.576 175.327 281.576C176.319 281.576 177.271 281.97 177.974 282.671L238.338 343.036C239.039 343.738 239.433 344.69 239.433 345.682C239.433 346.675 239.039 347.626 238.338 348.329L196.134 390.533C195.432 391.234 194.48 391.627 193.488 391.627C192.495 391.627 191.544 391.234 190.841 390.533Z" fill="white"/>
<path d="M193.488 392.626C192.865 392.628 192.248 392.507 191.672 392.269C191.096 392.031 190.574 391.681 190.134 391.24L129.769 330.875C128.881 329.986 128.382 328.779 128.382 327.522C128.382 326.264 128.881 325.058 129.769 324.168L171.974 281.964C172.864 281.076 174.07 280.577 175.327 280.577C176.585 280.577 177.791 281.076 178.681 281.964L239.045 342.329C239.934 343.218 240.433 344.425 240.433 345.682C240.433 346.94 239.934 348.146 239.045 349.036L196.841 391.24C196.402 391.681 195.879 392.031 195.303 392.269C194.728 392.507 194.111 392.628 193.488 392.626ZM175.327 282.577C174.967 282.575 174.61 282.645 174.277 282.783C173.944 282.921 173.642 283.123 173.388 283.378L131.184 325.582C130.67 326.097 130.382 326.795 130.382 327.522C130.382 328.249 130.67 328.946 131.184 329.461L191.548 389.826C192.071 390.323 192.766 390.601 193.488 390.601C194.21 390.601 194.904 390.323 195.427 389.826L237.631 347.622C238.145 347.107 238.433 346.409 238.433 345.682C238.433 344.955 238.145 344.257 237.631 343.743L177.266 283.378C177.012 283.123 176.71 282.921 176.377 282.783C176.044 282.645 175.687 282.575 175.327 282.577Z" fill="#E6E6E6"/>
<path d="M168.097 288.286C167.086 286.993 166.372 285.494 166.003 283.894C165.635 282.295 165.621 280.634 165.964 279.029C166.307 277.424 166.997 275.914 167.987 274.604C168.977 273.295 170.241 272.219 171.692 271.451L172.642 170.638L191.484 179.285L187.339 276.786C188.468 279.308 188.631 282.157 187.8 284.792C186.968 287.427 185.198 289.665 182.826 291.083C180.454 292.5 177.645 292.999 174.93 292.483C172.215 291.968 169.784 290.474 168.097 288.286Z" fill="#9E616A"/>
<path d="M168.604 145.114C168.604 145.114 186.934 136.223 189.469 152.998C192.003 169.773 202.43 213.431 202.43 213.431L170.791 211.194L168.604 145.114Z" fill="#9E616A"/>
<path d="M168.097 288.286C167.086 286.993 166.372 285.494 166.003 283.894C165.635 282.295 165.621 280.634 165.964 279.029C166.307 277.424 166.997 275.914 167.987 274.604C168.977 273.295 170.241 272.219 171.692 271.451L172.642 170.638L191.484 179.285L187.339 276.786C188.468 279.308 188.631 282.157 187.8 284.792C186.968 287.427 185.198 289.665 182.826 291.083C180.454 292.5 177.645 292.999 174.93 292.483C172.215 291.968 169.784 290.474 168.097 288.286Z" fill="#9E616A"/>
<path d="M168.604 145.114C168.604 145.114 186.934 136.223 189.469 152.998C192.003 169.773 202.43 213.431 202.43 213.431L170.791 211.194L168.604 145.114Z" fill="#C587EC"/>
<path d="M327.376 166.92V154.608L347.32 122.928L356.464 128.904L339.4 156.048L340.408 157.56H371.872V166.92H327.376ZM354.952 177V139.128H365.824V177H354.952ZM400.879 178.368C396.703 178.368 393.127 177.696 390.151 176.352C387.175 174.96 384.751 173.088 382.879 170.736C381.055 168.384 379.687 165.672 378.775 162.6C377.911 159.48 377.479 156.192 377.479 152.736V148.632C377.479 143.832 378.319 139.488 379.999 135.6C381.679 131.712 384.247 128.616 387.703 126.312C391.159 124.008 395.551 122.856 400.879 122.856C406.207 122.856 410.575 124.008 413.983 126.312C417.439 128.616 420.007 131.712 421.687 135.6C423.367 139.488 424.207 143.832 424.207 148.632V152.736C424.207 156.192 423.751 159.48 422.839 162.6C421.975 165.672 420.607 168.384 418.735 170.736C416.911 173.088 414.511 174.96 411.535 176.352C408.607 177.696 405.055 178.368 400.879 178.368ZM400.879 167.496C404.767 167.496 407.647 166.152 409.519 163.464C411.439 160.728 412.399 156.504 412.399 150.792C412.399 144.744 411.415 140.4 409.447 137.76C407.527 135.072 404.671 133.728 400.879 133.728C396.991 133.728 394.087 135.072 392.167 137.76C390.247 140.4 389.287 144.696 389.287 150.648C389.287 156.408 390.223 160.656 392.095 163.392C394.015 166.128 396.943 167.496 400.879 167.496ZM450.609 178.368C446.529 178.368 442.977 177.624 439.953 176.136C436.977 174.6 434.697 172.536 433.113 169.944C431.529 167.352 430.737 164.424 430.737 161.16H442.113C442.113 163.368 442.857 165.168 444.345 166.56C445.833 167.904 447.921 168.576 450.609 168.576C452.385 168.576 453.897 168.24 455.145 167.568C456.393 166.896 457.353 165.984 458.025 164.832C458.697 163.632 459.033 162.288 459.033 160.8C459.033 158.496 458.289 156.6 456.801 155.112C455.361 153.624 453.297 152.88 450.609 152.88C449.169 152.88 447.897 153.096 446.793 153.528C445.737 153.96 444.825 154.488 444.057 155.112L438.729 146.112L454.641 135.744L453.993 134.52H432.897V124.44H468.321V135.384L449.961 147.048L444.201 145.464C445.161 145.176 446.169 144.96 447.225 144.816C448.329 144.624 449.505 144.528 450.753 144.528C454.833 144.528 458.337 145.2 461.265 146.544C464.193 147.888 466.449 149.784 468.033 152.232C469.665 154.632 470.481 157.44 470.481 160.656V161.52C470.481 164.736 469.665 167.616 468.033 170.16C466.449 172.704 464.169 174.72 461.193 176.208C458.265 177.648 454.737 178.368 450.609 178.368Z" fill="#A878D8"/>
<path d="M370.048 232.266C369.124 232.266 368.317 232.107 367.626 231.79C366.945 231.463 366.38 231.039 365.932 230.516C365.484 229.984 365.148 229.415 364.924 228.808C364.709 228.192 364.602 227.595 364.602 227.016V226.708C364.602 226.073 364.714 225.448 364.938 224.832C365.171 224.216 365.517 223.656 365.974 223.152C366.431 222.639 367.001 222.233 367.682 221.934C368.363 221.626 369.152 221.472 370.048 221.472C370.944 221.472 371.733 221.626 372.414 221.934C373.095 222.233 373.665 222.639 374.122 223.152C374.579 223.656 374.925 224.216 375.158 224.832C375.391 225.448 375.508 226.073 375.508 226.708V227.016C375.508 227.595 375.396 228.192 375.172 228.808C374.948 229.415 374.612 229.984 374.164 230.516C373.716 231.039 373.147 231.463 372.456 231.79C371.775 232.107 370.972 232.266 370.048 232.266ZM370.048 230.124C370.692 230.124 371.247 229.979 371.714 229.69C372.19 229.401 372.554 229.009 372.806 228.514C373.058 228.019 373.184 227.473 373.184 226.876C373.184 226.241 373.053 225.681 372.792 225.196C372.54 224.701 372.181 224.314 371.714 224.034C371.247 223.754 370.692 223.614 370.048 223.614C369.404 223.614 368.849 223.754 368.382 224.034C367.915 224.314 367.556 224.701 367.304 225.196C367.052 225.681 366.926 226.241 366.926 226.876C366.926 227.473 367.052 228.019 367.304 228.514C367.556 229.009 367.915 229.401 368.382 229.69C368.849 229.979 369.404 230.124 370.048 230.124ZM380.86 232.266C379.964 232.266 379.198 232.084 378.564 231.72C377.938 231.356 377.462 230.88 377.136 230.292C376.809 229.695 376.646 229.046 376.646 228.346V228.024C376.646 227.305 376.814 226.647 377.15 226.05C377.495 225.443 377.98 224.963 378.606 224.608C379.24 224.244 379.992 224.062 380.86 224.062C381.728 224.062 382.479 224.244 383.114 224.608C383.748 224.963 384.234 225.443 384.57 226.05C384.915 226.647 385.088 227.305 385.088 228.024V228.346C385.088 229.046 384.92 229.695 384.584 230.292C384.257 230.88 383.781 231.356 383.156 231.72C382.53 232.084 381.765 232.266 380.86 232.266ZM380.86 230.376C381.504 230.376 381.994 230.171 382.33 229.76C382.675 229.34 382.848 228.817 382.848 228.192C382.848 227.548 382.67 227.016 382.316 226.596C381.97 226.167 381.485 225.952 380.86 225.952C380.234 225.952 379.749 226.167 379.404 226.596C379.058 227.016 378.886 227.548 378.886 228.192C378.886 228.817 379.054 229.34 379.39 229.76C379.726 230.171 380.216 230.376 380.86 230.376ZM390.389 232.266C389.493 232.266 388.728 232.084 388.093 231.72C387.468 231.356 386.992 230.88 386.665 230.292C386.338 229.695 386.175 229.046 386.175 228.346V228.024C386.175 227.305 386.343 226.647 386.679 226.05C387.024 225.443 387.51 224.963 388.135 224.608C388.77 224.244 389.521 224.062 390.389 224.062C391.257 224.062 392.008 224.244 392.643 224.608C393.278 224.963 393.763 225.443 394.099 226.05C394.444 226.647 394.617 227.305 394.617 228.024V228.346C394.617 229.046 394.449 229.695 394.113 230.292C393.786 230.88 393.31 231.356 392.685 231.72C392.06 232.084 391.294 232.266 390.389 232.266ZM390.389 230.376C391.033 230.376 391.523 230.171 391.859 229.76C392.204 229.34 392.377 228.817 392.377 228.192C392.377 227.548 392.2 227.016 391.845 226.596C391.5 226.167 391.014 225.952 390.389 225.952C389.764 225.952 389.278 226.167 388.933 226.596C388.588 227.016 388.415 227.548 388.415 228.192C388.415 228.817 388.583 229.34 388.919 229.76C389.255 230.171 389.745 230.376 390.389 230.376ZM399.918 232.266C399.022 232.266 398.257 232.084 397.622 231.72C396.997 231.356 396.521 230.88 396.194 230.292C395.868 229.695 395.704 229.046 395.704 228.346V228.024C395.704 227.305 395.872 226.647 396.208 226.05C396.554 225.443 397.039 224.963 397.664 224.608C398.299 224.244 399.05 224.062 399.918 224.062C400.786 224.062 401.538 224.244 402.172 224.608C402.807 224.963 403.292 225.443 403.628 226.05C403.974 226.647 404.146 227.305 404.146 228.024V228.346C404.146 229.046 403.978 229.695 403.642 230.292C403.316 230.88 402.84 231.356 402.214 231.72C401.589 232.084 400.824 232.266 399.918 232.266ZM399.918 230.376C400.562 230.376 401.052 230.171 401.388 229.76C401.734 229.34 401.906 228.817 401.906 228.192C401.906 227.548 401.729 227.016 401.374 226.596C401.029 226.167 400.544 225.952 399.918 225.952C399.293 225.952 398.808 226.167 398.462 226.596C398.117 227.016 397.944 227.548 397.944 228.192C397.944 228.817 398.112 229.34 398.448 229.76C398.784 230.171 399.274 230.376 399.918 230.376ZM405.71 234.8V224.328H407.488V226.274C407.712 225.565 408.085 225.028 408.608 224.664C409.14 224.291 409.76 224.104 410.47 224.104C411.179 224.104 411.795 224.277 412.318 224.622C412.85 224.958 413.26 225.42 413.55 226.008C413.848 226.596 413.998 227.259 413.998 227.996V228.318C413.998 229.055 413.858 229.723 413.578 230.32C413.298 230.917 412.896 231.389 412.374 231.734C411.851 232.079 411.216 232.252 410.47 232.252C409.947 232.252 409.466 232.154 409.028 231.958C408.589 231.762 408.23 231.463 407.95 231.062V234.8H405.71ZM409.84 230.376C410.409 230.376 410.866 230.171 411.212 229.76C411.566 229.349 411.744 228.813 411.744 228.15C411.744 227.497 411.566 226.969 411.212 226.568C410.866 226.167 410.409 225.966 409.84 225.966C409.494 225.966 409.172 226.045 408.874 226.204C408.584 226.363 408.346 226.591 408.16 226.89C407.982 227.189 407.894 227.543 407.894 227.954V228.472C407.894 228.873 407.987 229.219 408.174 229.508C408.37 229.788 408.617 230.003 408.916 230.152C409.214 230.301 409.522 230.376 409.84 230.376ZM418.465 232.238C417.373 232.238 416.519 232.014 415.903 231.566C415.287 231.118 414.961 230.488 414.923 229.676H416.911C416.939 229.919 417.084 230.138 417.345 230.334C417.607 230.521 417.994 230.614 418.507 230.614C418.89 230.614 419.212 230.549 419.473 230.418C419.735 230.287 419.865 230.091 419.865 229.83C419.865 229.606 419.767 229.429 419.571 229.298C419.375 229.158 419.025 229.06 418.521 229.004L417.919 228.948C416.995 228.845 416.3 228.589 415.833 228.178C415.376 227.767 415.147 227.231 415.147 226.568C415.147 226.027 415.283 225.574 415.553 225.21C415.833 224.846 416.211 224.571 416.687 224.384C417.163 224.197 417.709 224.104 418.325 224.104C419.315 224.104 420.108 224.323 420.705 224.762C421.312 225.191 421.634 225.817 421.671 226.638H419.683C419.646 226.395 419.511 226.185 419.277 226.008C419.053 225.831 418.727 225.742 418.297 225.742C417.952 225.742 417.677 225.807 417.471 225.938C417.266 226.069 417.163 226.246 417.163 226.47C417.163 226.685 417.252 226.848 417.429 226.96C417.607 227.072 417.896 227.151 418.297 227.198L418.899 227.254C419.833 227.357 420.561 227.623 421.083 228.052C421.615 228.472 421.881 229.032 421.881 229.732C421.881 230.507 421.573 231.118 420.957 231.566C420.341 232.014 419.511 232.238 418.465 232.238ZM422.873 232V229.494H425.337V232H422.873ZM426.701 232V229.494H429.165V232H426.701ZM430.529 232V229.494H432.993V232H430.529Z" fill="#A878D8"/>
<path d="M327.432 252.266C326.471 252.266 325.654 252.089 324.982 251.734C324.319 251.37 323.815 250.857 323.47 250.194C323.125 249.531 322.952 248.747 322.952 247.842V241.78H325.248V247.926C325.248 248.374 325.332 248.766 325.5 249.102C325.677 249.429 325.925 249.681 326.242 249.858C326.569 250.035 326.965 250.124 327.432 250.124C327.908 250.124 328.305 250.035 328.622 249.858C328.949 249.681 329.196 249.429 329.364 249.102C329.532 248.775 329.616 248.383 329.616 247.926V241.78H331.912V247.842C331.912 248.747 331.739 249.531 331.394 250.194C331.049 250.857 330.545 251.37 329.882 251.734C329.219 252.089 328.403 252.266 327.432 252.266ZM333.891 252V244.328H335.669V247.618H335.543C335.543 246.834 335.641 246.181 335.837 245.658C336.042 245.135 336.35 244.743 336.761 244.482C337.172 244.221 337.671 244.09 338.259 244.09H338.357C339.253 244.09 339.934 244.384 340.401 244.972C340.877 245.551 341.115 246.433 341.115 247.618V252H338.875V247.492C338.875 247.081 338.754 246.745 338.511 246.484C338.268 246.223 337.942 246.092 337.531 246.092C337.111 246.092 336.77 246.227 336.509 246.498C336.257 246.759 336.131 247.105 336.131 247.534V252H333.891ZM347.658 252V249.732H347.28V247.268C347.28 246.876 347.187 246.582 347 246.386C346.813 246.19 346.515 246.092 346.104 246.092C345.899 246.092 345.628 246.097 345.292 246.106C344.956 246.115 344.611 246.129 344.256 246.148C343.901 246.167 343.579 246.185 343.29 246.204V244.314C343.505 244.295 343.757 244.277 344.046 244.258C344.335 244.239 344.634 244.225 344.942 244.216C345.25 244.207 345.539 244.202 345.81 244.202C346.594 244.202 347.252 244.314 347.784 244.538C348.325 244.762 348.736 245.103 349.016 245.56C349.296 246.008 349.436 246.587 349.436 247.296V252H347.658ZM345.208 252.196C344.657 252.196 344.172 252.098 343.752 251.902C343.341 251.706 343.019 251.426 342.786 251.062C342.553 250.689 342.436 250.245 342.436 249.732C342.436 249.172 342.581 248.715 342.87 248.36C343.159 247.996 343.565 247.73 344.088 247.562C344.611 247.385 345.213 247.296 345.894 247.296H347.532V248.542H345.88C345.488 248.542 345.185 248.64 344.97 248.836C344.765 249.023 344.662 249.279 344.662 249.606C344.662 249.914 344.765 250.166 344.97 250.362C345.185 250.549 345.488 250.642 345.88 250.642C346.132 250.642 346.356 250.6 346.552 250.516C346.757 250.423 346.925 250.269 347.056 250.054C347.187 249.839 347.261 249.541 347.28 249.158L347.812 249.718C347.765 250.25 347.635 250.698 347.42 251.062C347.215 251.426 346.925 251.706 346.552 251.902C346.188 252.098 345.74 252.196 345.208 252.196ZM353.926 252.238C353.04 252.238 352.358 251.953 351.882 251.384C351.406 250.805 351.168 249.937 351.168 248.78V244.328H353.408V248.892C353.408 249.303 353.525 249.629 353.758 249.872C353.992 250.115 354.304 250.236 354.696 250.236C355.098 250.236 355.424 250.11 355.676 249.858C355.928 249.606 356.054 249.265 356.054 248.836V244.328H358.294V252H356.516V248.766H356.67C356.67 249.541 356.568 250.189 356.362 250.712C356.166 251.225 355.872 251.608 355.48 251.86C355.088 252.112 354.603 252.238 354.024 252.238H353.926ZM363.846 252.098C363.071 252.098 362.446 252.005 361.97 251.818C361.494 251.622 361.144 251.3 360.92 250.852C360.705 250.395 360.598 249.779 360.598 249.004V242.256H362.684V249.088C362.684 249.452 362.777 249.732 362.964 249.928C363.16 250.115 363.435 250.208 363.79 250.208H364.924V252.098H363.846ZM359.436 245.966V244.328H364.924V245.966H359.436ZM366.43 252V241.78H368.67V247.674H368.334C368.334 246.899 368.432 246.246 368.628 245.714C368.824 245.182 369.114 244.781 369.496 244.51C369.879 244.23 370.36 244.09 370.938 244.09H371.036C371.886 244.09 372.534 244.393 372.982 245C373.43 245.597 373.654 246.475 373.654 247.632V252H371.414V247.492C371.414 247.072 371.288 246.736 371.036 246.484C370.794 246.223 370.472 246.092 370.07 246.092C369.65 246.092 369.31 246.227 369.048 246.498C368.796 246.769 368.67 247.128 368.67 247.576V252H366.43ZM379.301 252.266C378.629 252.266 378.032 252.163 377.509 251.958C376.986 251.743 376.543 251.454 376.179 251.09C375.824 250.726 375.554 250.311 375.367 249.844C375.18 249.368 375.087 248.869 375.087 248.346V248.024C375.087 247.492 375.18 246.988 375.367 246.512C375.563 246.027 375.843 245.602 376.207 245.238C376.58 244.874 377.028 244.589 377.551 244.384C378.074 244.169 378.657 244.062 379.301 244.062C379.964 244.062 380.552 244.169 381.065 244.384C381.588 244.589 382.031 244.874 382.395 245.238C382.759 245.602 383.039 246.027 383.235 246.512C383.431 246.988 383.529 247.492 383.529 248.024V248.346C383.529 248.869 383.436 249.368 383.249 249.844C383.062 250.311 382.787 250.726 382.423 251.09C382.068 251.454 381.63 251.743 381.107 251.958C380.584 252.163 379.982 252.266 379.301 252.266ZM379.301 250.376C379.74 250.376 380.104 250.283 380.393 250.096C380.682 249.909 380.902 249.648 381.051 249.312C381.21 248.976 381.289 248.603 381.289 248.192C381.289 247.753 381.21 247.371 381.051 247.044C380.892 246.708 380.664 246.442 380.365 246.246C380.076 246.05 379.721 245.952 379.301 245.952C378.89 245.952 378.536 246.05 378.237 246.246C377.938 246.442 377.71 246.708 377.551 247.044C377.402 247.371 377.327 247.753 377.327 248.192C377.327 248.603 377.402 248.976 377.551 249.312C377.7 249.648 377.924 249.909 378.223 250.096C378.522 250.283 378.881 250.376 379.301 250.376ZM385.092 252V244.328H386.87V247.618H386.828C386.828 246.535 387.057 245.7 387.514 245.112C387.981 244.524 388.653 244.23 389.53 244.23H389.824V246.162H389.264C388.648 246.162 388.172 246.33 387.836 246.666C387.5 246.993 387.332 247.469 387.332 248.094V252H385.092ZM391.349 252V244.328H393.589V252H391.349ZM390.327 245.98V244.328H393.589V245.98H390.327ZM392.217 243.572C391.797 243.572 391.484 243.465 391.279 243.25C391.083 243.026 390.985 242.746 390.985 242.41C390.985 242.065 391.083 241.785 391.279 241.57C391.484 241.346 391.797 241.234 392.217 241.234C392.637 241.234 392.945 241.346 393.141 241.57C393.346 241.785 393.449 242.065 393.449 242.41C393.449 242.746 393.346 243.026 393.141 243.25C392.945 243.465 392.637 243.572 392.217 243.572ZM398.573 252.238C397.481 252.238 396.627 252.014 396.011 251.566C395.395 251.118 395.068 250.488 395.031 249.676H397.019C397.056 249.919 397.201 250.138 397.453 250.334C397.714 250.521 398.101 250.614 398.615 250.614C399.007 250.614 399.329 250.549 399.581 250.418C399.842 250.278 399.973 250.082 399.973 249.83C399.973 249.606 399.875 249.429 399.679 249.298C399.483 249.158 399.133 249.06 398.629 249.004L398.027 248.948C397.103 248.855 396.407 248.598 395.941 248.178C395.483 247.758 395.255 247.221 395.255 246.568C395.255 246.027 395.39 245.574 395.661 245.21C395.931 244.846 396.305 244.571 396.781 244.384C397.266 244.197 397.817 244.104 398.433 244.104C399.422 244.104 400.22 244.323 400.827 244.762C401.433 245.191 401.751 245.817 401.779 246.638H399.791C399.753 246.386 399.623 246.176 399.399 246.008C399.175 245.831 398.843 245.742 398.405 245.742C398.059 245.742 397.784 245.807 397.579 245.938C397.373 246.069 397.271 246.246 397.271 246.47C397.271 246.685 397.359 246.848 397.537 246.96C397.714 247.072 398.003 247.151 398.405 247.198L399.007 247.254C399.949 247.357 400.682 247.618 401.205 248.038C401.727 248.458 401.989 249.023 401.989 249.732C401.989 250.245 401.849 250.693 401.569 251.076C401.289 251.449 400.892 251.739 400.379 251.944C399.865 252.14 399.263 252.238 398.573 252.238ZM406.954 252.266C406.301 252.266 405.722 252.154 405.218 251.93C404.723 251.706 404.308 251.407 403.972 251.034C403.645 250.651 403.393 250.227 403.216 249.76C403.048 249.284 402.964 248.799 402.964 248.304V248.024C402.964 247.511 403.048 247.021 403.216 246.554C403.393 246.078 403.645 245.653 403.972 245.28C404.299 244.907 404.705 244.613 405.19 244.398C405.685 244.174 406.245 244.062 406.87 244.062C407.691 244.062 408.382 244.249 408.942 244.622C409.511 244.986 409.945 245.467 410.244 246.064C410.543 246.652 410.692 247.296 410.692 247.996V248.752H403.902V247.478H409.334L408.606 248.066C408.606 247.609 408.541 247.217 408.41 246.89C408.279 246.563 408.083 246.316 407.822 246.148C407.57 245.971 407.253 245.882 406.87 245.882C406.478 245.882 406.147 245.971 405.876 246.148C405.605 246.325 405.4 246.587 405.26 246.932C405.12 247.268 405.05 247.683 405.05 248.178C405.05 248.635 405.115 249.037 405.246 249.382C405.377 249.718 405.582 249.979 405.862 250.166C406.142 250.353 406.506 250.446 406.954 250.446C407.365 250.446 407.701 250.367 407.962 250.208C408.223 250.049 408.401 249.853 408.494 249.62H410.552C410.44 250.133 410.221 250.591 409.894 250.992C409.567 251.393 409.157 251.706 408.662 251.93C408.167 252.154 407.598 252.266 406.954 252.266ZM415.34 252.252C414.799 252.252 414.304 252.154 413.856 251.958C413.418 251.762 413.035 251.491 412.708 251.146C412.382 250.791 412.13 250.376 411.952 249.9C411.784 249.424 411.7 248.911 411.7 248.36V248.038C411.7 247.487 411.78 246.974 411.938 246.498C412.106 246.022 412.344 245.607 412.652 245.252C412.97 244.888 413.348 244.608 413.786 244.412C414.225 244.207 414.715 244.104 415.256 244.104C415.872 244.104 416.404 244.239 416.852 244.51C417.3 244.771 417.65 245.163 417.902 245.686C418.154 246.199 418.294 246.834 418.322 247.59L417.734 247.044V241.78H419.988V252H418.21V248.822H418.518C418.49 249.55 418.336 250.171 418.056 250.684C417.786 251.197 417.417 251.589 416.95 251.86C416.484 252.121 415.947 252.252 415.34 252.252ZM415.9 250.376C416.246 250.376 416.558 250.301 416.838 250.152C417.128 249.993 417.356 249.765 417.524 249.466C417.702 249.167 417.79 248.808 417.79 248.388V247.87C417.79 247.459 417.702 247.114 417.524 246.834C417.347 246.554 417.114 246.339 416.824 246.19C416.535 246.041 416.222 245.966 415.886 245.966C415.513 245.966 415.177 246.064 414.878 246.26C414.589 246.447 414.36 246.708 414.192 247.044C414.024 247.371 413.94 247.753 413.94 248.192C413.94 248.64 414.024 249.027 414.192 249.354C414.36 249.681 414.594 249.933 414.892 250.11C415.191 250.287 415.527 250.376 415.9 250.376ZM424.12 252L427.494 241.78H431.204L434.704 252H432.324L429.496 243.362L430.224 243.656H428.418L429.174 243.362L426.416 252H424.12ZM426.682 249.466L427.382 247.562H431.386L432.1 249.466H426.682ZM439.232 252.266C438.569 252.266 437.99 252.159 437.496 251.944C437.01 251.72 436.604 251.421 436.278 251.048C435.951 250.675 435.708 250.255 435.55 249.788C435.391 249.312 435.312 248.822 435.312 248.318V248.052C435.312 247.529 435.396 247.03 435.564 246.554C435.732 246.069 435.979 245.639 436.306 245.266C436.632 244.893 437.038 244.599 437.524 244.384C438.018 244.169 438.583 244.062 439.218 244.062C439.908 244.062 440.52 244.197 441.052 244.468C441.584 244.729 442.008 245.098 442.326 245.574C442.643 246.05 442.82 246.596 442.858 247.212H440.66C440.622 246.867 440.482 246.577 440.24 246.344C440.006 246.101 439.666 245.98 439.218 245.98C438.844 245.98 438.532 246.073 438.28 246.26C438.037 246.447 437.855 246.703 437.734 247.03C437.612 247.357 437.552 247.744 437.552 248.192C437.552 248.603 437.608 248.976 437.72 249.312C437.832 249.639 438.009 249.895 438.252 250.082C438.504 250.259 438.83 250.348 439.232 250.348C439.53 250.348 439.782 250.297 439.988 250.194C440.202 250.082 440.37 249.933 440.492 249.746C440.622 249.55 440.702 249.326 440.73 249.074H442.914C442.886 249.709 442.708 250.269 442.382 250.754C442.055 251.23 441.621 251.603 441.08 251.874C440.538 252.135 439.922 252.266 439.232 252.266ZM447.79 252.266C447.128 252.266 446.549 252.159 446.054 251.944C445.569 251.72 445.163 251.421 444.836 251.048C444.51 250.675 444.267 250.255 444.108 249.788C443.95 249.312 443.87 248.822 443.87 248.318V248.052C443.87 247.529 443.954 247.03 444.122 246.554C444.29 246.069 444.538 245.639 444.864 245.266C445.191 244.893 445.597 244.599 446.082 244.384C446.577 244.169 447.142 244.062 447.776 244.062C448.467 244.062 449.078 244.197 449.61 244.468C450.142 244.729 450.567 245.098 450.884 245.574C451.202 246.05 451.379 246.596 451.416 247.212H449.218C449.181 246.867 449.041 246.577 448.798 246.344C448.565 246.101 448.224 245.98 447.776 245.98C447.403 245.98 447.09 246.073 446.838 246.26C446.596 246.447 446.414 246.703 446.292 247.03C446.171 247.357 446.11 247.744 446.11 248.192C446.11 248.603 446.166 248.976 446.278 249.312C446.39 249.639 446.568 249.895 446.81 250.082C447.062 250.259 447.389 250.348 447.79 250.348C448.089 250.348 448.341 250.297 448.546 250.194C448.761 250.082 448.929 249.933 449.05 249.746C449.181 249.55 449.26 249.326 449.288 249.074H451.472C451.444 249.709 451.267 250.269 450.94 250.754C450.614 251.23 450.18 251.603 449.638 251.874C449.097 252.135 448.481 252.266 447.79 252.266ZM456.419 252.266C455.765 252.266 455.187 252.154 454.683 251.93C454.188 251.706 453.773 251.407 453.437 251.034C453.11 250.651 452.858 250.227 452.681 249.76C452.513 249.284 452.429 248.799 452.429 248.304V248.024C452.429 247.511 452.513 247.021 452.681 246.554C452.858 246.078 453.11 245.653 453.437 245.28C453.763 244.907 454.169 244.613 454.655 244.398C455.149 244.174 455.709 244.062 456.335 244.062C457.156 244.062 457.847 244.249 458.407 244.622C458.976 244.986 459.41 245.467 459.709 246.064C460.007 246.652 460.157 247.296 460.157 247.996V248.752H453.367V247.478H458.799L458.071 248.066C458.071 247.609 458.005 247.217 457.875 246.89C457.744 246.563 457.548 246.316 457.287 246.148C457.035 245.971 456.717 245.882 456.335 245.882C455.943 245.882 455.611 245.971 455.341 246.148C455.07 246.325 454.865 246.587 454.725 246.932C454.585 247.268 454.515 247.683 454.515 248.178C454.515 248.635 454.58 249.037 454.711 249.382C454.841 249.718 455.047 249.979 455.327 250.166C455.607 250.353 455.971 250.446 456.419 250.446C456.829 250.446 457.165 250.367 457.427 250.208C457.688 250.049 457.865 249.853 457.959 249.62H460.017C459.905 250.133 459.685 250.591 459.359 250.992C459.032 251.393 458.621 251.706 458.127 251.93C457.632 252.154 457.063 252.266 456.419 252.266ZM464.553 252.238C463.461 252.238 462.607 252.014 461.991 251.566C461.375 251.118 461.048 250.488 461.011 249.676H462.999C463.036 249.919 463.181 250.138 463.433 250.334C463.694 250.521 464.082 250.614 464.595 250.614C464.987 250.614 465.309 250.549 465.561 250.418C465.822 250.278 465.953 250.082 465.953 249.83C465.953 249.606 465.855 249.429 465.659 249.298C465.463 249.158 465.113 249.06 464.609 249.004L464.007 248.948C463.083 248.855 462.388 248.598 461.921 248.178C461.464 247.758 461.235 247.221 461.235 246.568C461.235 246.027 461.37 245.574 461.641 245.21C461.912 244.846 462.285 244.571 462.761 244.384C463.246 244.197 463.797 244.104 464.413 244.104C465.402 244.104 466.2 244.323 466.807 244.762C467.414 245.191 467.731 245.817 467.759 246.638H465.771C465.734 246.386 465.603 246.176 465.379 246.008C465.155 245.831 464.824 245.742 464.385 245.742C464.04 245.742 463.764 245.807 463.559 245.938C463.354 246.069 463.251 246.246 463.251 246.47C463.251 246.685 463.34 246.848 463.517 246.96C463.694 247.072 463.984 247.151 464.385 247.198L464.987 247.254C465.93 247.357 466.662 247.618 467.185 248.038C467.708 248.458 467.969 249.023 467.969 249.732C467.969 250.245 467.829 250.693 467.549 251.076C467.269 251.449 466.872 251.739 466.359 251.944C465.846 252.14 465.244 252.238 464.553 252.238ZM472.332 252.238C471.24 252.238 470.386 252.014 469.77 251.566C469.154 251.118 468.828 250.488 468.79 249.676H470.778C470.816 249.919 470.96 250.138 471.212 250.334C471.474 250.521 471.861 250.614 472.374 250.614C472.766 250.614 473.088 250.549 473.34 250.418C473.602 250.278 473.732 250.082 473.732 249.83C473.732 249.606 473.634 249.429 473.438 249.298C473.242 249.158 472.892 249.06 472.388 249.004L471.786 248.948C470.862 248.855 470.167 248.598 469.7 248.178C469.243 247.758 469.014 247.221 469.014 246.568C469.014 246.027 469.15 245.574 469.42 245.21C469.691 244.846 470.064 244.571 470.54 244.384C471.026 244.197 471.576 244.104 472.192 244.104C473.182 244.104 473.98 244.323 474.586 244.762C475.193 245.191 475.51 245.817 475.538 246.638H473.55C473.513 246.386 473.382 246.176 473.158 246.008C472.934 245.831 472.603 245.742 472.164 245.742C471.819 245.742 471.544 245.807 471.338 245.938C471.133 246.069 471.03 246.246 471.03 246.47C471.03 246.685 471.119 246.848 471.296 246.96C471.474 247.072 471.763 247.151 472.164 247.198L472.766 247.254C473.709 247.357 474.442 247.618 474.964 248.038C475.487 248.458 475.748 249.023 475.748 249.732C475.748 250.245 475.608 250.693 475.328 251.076C475.048 251.449 474.652 251.739 474.138 251.944C473.625 252.14 473.023 252.238 472.332 252.238Z" fill="#A878D8"/>
</g>
<defs>
<clipPath id="clip0_2_3218">
<rect width="550.71" height="567.986" fill="white"/>
</clipPath>
</defs>
</svg>
