<svg width="551" height="568" viewBox="0 0 551 568" fill="none" xmlns="http://www.w3.org/2000/svg">
<g clip-path="url(#clip0_2_3218)">
<path d="M386.602 567.986H235.877C234.124 567.984 232.445 567.287 231.206 566.048C229.967 564.809 229.27 563.13 229.268 561.377V455.998C229.27 454.246 229.967 452.566 231.206 451.327C232.445 450.088 234.124 449.391 235.877 449.389H386.602C388.354 449.391 390.034 450.088 391.273 451.327C392.511 452.566 393.208 454.246 393.21 455.998V561.377C393.208 563.129 392.511 564.809 391.273 566.048C390.034 567.287 388.354 567.984 386.602 567.986V567.986Z" fill="#F2F2F2"/>
<path d="M140.287 293.286C141.297 291.993 142.012 290.494 142.38 288.894C142.749 287.295 142.762 285.634 142.42 284.029C142.077 282.424 141.386 280.914 140.397 279.604C139.407 278.295 138.142 277.219 136.692 276.451L135.742 175.638L116.9 184.285L121.044 281.786C119.916 284.308 119.752 287.157 120.584 289.792C121.416 292.427 123.185 294.665 125.557 296.083C127.929 297.5 130.739 297.999 133.454 297.483C136.168 296.968 138.6 295.474 140.287 293.286V293.286Z" fill="#9E616A"/>
<path d="M139.779 150.114C139.779 150.114 121.45 141.223 118.915 157.998C116.38 174.773 105.954 218.431 105.954 218.431L137.593 216.194L139.779 150.114Z" fill="#9E616A"/>
<path d="M140.287 293.286C141.297 291.993 142.012 290.494 142.38 288.894C142.749 287.295 142.762 285.634 142.42 284.029C142.077 282.424 141.386 280.914 140.397 279.604C139.407 278.295 138.142 277.219 136.692 276.451L135.742 175.638L116.9 184.285L121.044 281.786C119.916 284.308 119.752 287.157 120.584 289.792C121.416 292.427 123.185 294.665 125.557 296.083C127.929 297.5 130.739 297.999 133.454 297.483C136.168 296.968 138.6 295.474 140.287 293.286V293.286Z" fill="#9E616A"/>
<path d="M139.779 150.114C139.779 150.114 121.45 141.223 118.915 157.998C116.38 174.773 105.954 218.431 105.954 218.431L137.593 216.194L139.779 150.114Z" fill="#C587EC"/>
<path d="M86.7078 538.459C85.9678 538.493 85.2351 538.299 84.6091 537.903C83.9832 537.506 83.4942 536.927 83.2084 536.244C82.9226 535.56 82.8538 534.805 83.0113 534.081C83.1689 533.357 83.5452 532.699 84.0892 532.197C84.1803 531.834 84.2457 531.574 84.3368 531.212C84.3042 531.133 84.2714 531.055 84.2384 530.976C83.4928 529.215 82.2435 527.713 80.6473 526.66C79.0512 525.607 77.1794 525.049 75.267 525.056C73.3547 525.063 71.4871 525.635 69.8988 526.7C68.3105 527.765 67.0724 529.276 66.3399 531.042C63.4125 538.093 59.6854 545.156 58.7677 552.61C58.3636 555.905 58.5341 559.246 59.2716 562.483C52.396 547.484 48.8257 531.183 48.8027 514.684C48.8013 510.543 49.0313 506.406 49.4917 502.292C49.8722 498.919 50.4002 495.569 51.0755 492.244C54.7607 474.203 62.6729 457.293 74.1625 442.903C79.7234 439.869 84.2206 435.203 87.048 429.534C88.0724 427.496 88.7963 425.321 89.1974 423.076C88.5701 423.158 87.9325 423.209 87.3052 423.251C87.1098 423.261 86.9041 423.271 86.7087 423.281L86.635 423.285C85.9456 423.316 85.2619 423.147 84.6663 422.798C84.0707 422.449 83.5885 421.936 83.2778 421.32C82.9672 420.704 82.8413 420.011 82.9153 419.325C82.9893 418.638 83.26 417.988 83.6949 417.452C83.9657 417.119 84.2368 416.786 84.5079 416.453C84.9193 415.939 85.341 415.435 85.7523 414.921C85.7998 414.872 85.8444 414.82 85.886 414.766C86.3591 414.18 86.8321 413.604 87.3052 413.018C86.4417 411.678 85.2803 410.555 83.9115 409.738C79.1707 406.961 72.6302 408.884 69.2057 413.172C65.7709 417.461 65.1231 423.477 66.3159 428.835C67.489 433.394 69.4295 437.72 72.0543 441.628C71.7972 441.957 71.5298 442.276 71.2727 442.605C66.573 448.648 62.4769 455.137 59.043 461.979C59.8781 454.314 58.8814 446.56 56.135 439.355C53.3515 432.64 48.1343 426.985 43.54 421.18C38.0214 414.207 26.7051 417.25 25.7329 426.089C25.7234 426.175 25.7143 426.26 25.7053 426.346C26.3877 426.731 27.0557 427.14 27.7093 427.572C28.5304 428.12 29.1666 428.904 29.5346 429.821C29.9026 430.737 29.9852 431.743 29.7716 432.707C29.558 433.671 29.0582 434.548 28.3376 435.223C27.617 435.899 26.7092 436.34 25.7333 436.491L25.6333 436.506C25.8764 438.966 26.3062 441.403 26.9188 443.798C28.694 450.482 31.8309 456.727 36.1328 462.142C40.4348 467.557 45.8091 472.025 51.9187 475.266C52.3198 475.472 52.7106 475.677 53.1117 475.873C49.6617 485.65 47.4976 495.834 46.674 506.169C46.2077 512.266 46.2352 518.391 46.7563 524.484L46.7254 524.268C45.409 517.493 41.7947 511.379 36.493 506.96C28.6186 500.492 17.4936 498.11 8.99854 492.911C8.09572 492.331 7.04597 492.022 5.97309 492.019C4.90021 492.016 3.84894 492.32 2.9433 492.896C2.03767 493.471 1.31543 494.293 0.861761 495.265C0.408091 496.238 0.241923 497.319 0.382849 498.383C0.394242 498.459 0.405811 498.534 0.417578 498.61C1.68394 499.126 2.91693 499.72 4.10941 500.389C4.79182 500.774 5.45982 501.183 6.11341 501.615C6.93449 502.164 7.57073 502.947 7.93873 503.864C8.30672 504.78 8.38932 505.786 8.17573 506.75C7.96213 507.714 7.4623 508.591 6.74171 509.267C6.02111 509.942 5.11338 510.384 4.13743 510.534L4.03742 510.549C3.96542 510.56 3.90373 510.57 3.83185 510.58C5.9956 515.747 9.03248 520.502 12.8095 524.638C17.4754 529.645 23.1148 533.646 29.3818 536.396C35.6489 539.145 42.4115 540.586 49.2552 540.63H49.2655C51.1233 548.702 53.8149 556.56 57.2972 564.077H85.9889C86.0918 563.758 86.1843 563.429 86.2769 563.11C83.6211 563.277 80.9549 563.118 78.3377 562.637C80.4665 560.025 82.5952 557.392 84.7239 554.78C84.7714 554.731 84.8161 554.68 84.8576 554.626C85.9374 553.289 87.0275 551.962 88.1073 550.625L88.1079 550.624C88.1654 546.526 87.6952 542.438 86.7087 538.46L86.7078 538.459Z" fill="#F2F2F2"/>
<path d="M509.708 538.459C508.968 538.493 508.235 538.299 507.609 537.903C506.983 537.506 506.494 536.927 506.208 536.244C505.923 535.56 505.854 534.805 506.011 534.081C506.169 533.357 506.545 532.699 507.089 532.197C507.18 531.834 507.246 531.574 507.337 531.212C507.304 531.133 507.271 531.055 507.238 530.976C506.493 529.215 505.243 527.713 503.647 526.66C502.051 525.607 500.179 525.049 498.267 525.056C496.355 525.063 494.487 525.635 492.899 526.7C491.31 527.765 490.072 529.276 489.34 531.042C486.412 538.093 482.685 545.156 481.768 552.61C481.364 555.905 481.534 559.246 482.272 562.483C475.396 547.484 471.826 531.183 471.803 514.684C471.801 510.543 472.031 506.406 472.492 502.292C472.872 498.919 473.4 495.569 474.075 492.244C477.761 474.203 485.673 457.293 497.162 442.903C502.723 439.869 507.221 435.203 510.048 429.534C511.072 427.496 511.796 425.321 512.197 423.076C511.57 423.158 510.932 423.209 510.305 423.251C510.11 423.261 509.904 423.271 509.709 423.281L509.635 423.285C508.946 423.316 508.262 423.147 507.666 422.798C507.071 422.449 506.588 421.936 506.278 421.32C505.967 420.704 505.841 420.011 505.915 419.325C505.989 418.638 506.26 417.988 506.695 417.452C506.966 417.119 507.237 416.786 507.508 416.453C507.919 415.939 508.341 415.435 508.752 414.921C508.8 414.872 508.844 414.82 508.886 414.766C509.359 414.18 509.832 413.604 510.305 413.018C509.442 411.678 508.28 410.555 506.911 409.738C502.171 406.961 495.63 408.884 492.206 413.172C488.771 417.461 488.123 423.477 489.316 428.835C490.489 433.394 492.429 437.72 495.054 441.628C494.797 441.957 494.53 442.276 494.273 442.605C489.573 448.648 485.477 455.137 482.043 461.979C482.878 454.314 481.881 446.56 479.135 439.355C476.351 432.64 471.134 426.985 466.54 421.18C461.021 414.207 449.705 417.25 448.733 426.089C448.723 426.175 448.714 426.26 448.705 426.346C449.388 426.731 450.056 427.14 450.709 427.572C451.53 428.12 452.166 428.904 452.534 429.821C452.902 430.737 452.985 431.743 452.771 432.707C452.558 433.671 452.058 434.548 451.337 435.223C450.617 435.899 449.709 436.34 448.733 436.491L448.633 436.506C448.876 438.966 449.306 441.403 449.919 443.798C451.694 450.482 454.831 456.727 459.133 462.142C463.435 467.557 468.809 472.025 474.919 475.266C475.32 475.472 475.711 475.677 476.112 475.873C472.662 485.65 470.498 495.834 469.674 506.169C469.208 512.266 469.235 518.391 469.756 524.484L469.725 524.268C468.409 517.493 464.795 511.379 459.493 506.96C451.619 500.492 440.494 498.11 431.999 492.911C431.096 492.331 430.046 492.022 428.973 492.019C427.9 492.016 426.849 492.32 425.943 492.896C425.038 493.471 424.315 494.293 423.862 495.265C423.408 496.238 423.242 497.319 423.383 498.383C423.394 498.459 423.406 498.534 423.418 498.61C424.684 499.126 425.917 499.72 427.109 500.389C427.792 500.774 428.46 501.183 429.113 501.615C429.934 502.164 430.571 502.947 430.939 503.864C431.307 504.78 431.389 505.786 431.176 506.75C430.962 507.714 430.462 508.591 429.742 509.267C429.021 509.942 428.113 510.384 427.137 510.534L427.037 510.549C426.965 510.56 426.904 510.57 426.832 510.58C428.996 515.747 432.032 520.502 435.81 524.638C440.475 529.645 446.115 533.646 452.382 536.396C458.649 539.145 465.412 540.586 472.255 540.63H472.266C474.123 548.702 476.815 556.56 480.297 564.077H508.989C509.092 563.758 509.184 563.429 509.277 563.11C506.621 563.277 503.955 563.118 501.338 562.637C503.466 560.025 505.595 557.392 507.724 554.78C507.771 554.731 507.816 554.68 507.858 554.626C508.937 553.289 510.027 551.962 511.107 550.625L511.108 550.624C511.165 546.526 510.695 542.438 509.709 538.46L509.708 538.459Z" fill="#F2F2F2"/>
<path d="M399.22 563.889C399.137 563.889 399.055 563.887 398.972 563.885C396.873 563.765 394.9 562.84 393.465 561.302C392.031 559.765 391.244 557.733 391.27 555.63C391.27 542.835 382.13 535.372 373.073 533.651C364.015 531.931 352.775 535.522 348.083 547.427L343.818 558.134C340.13 561.813 335.134 563.879 329.925 563.879C324.716 563.879 319.719 561.813 316.032 558.134L315.779 557.882L315.936 557.561L391.27 403.427V399.65C391.166 398.485 391.166 397.314 391.272 396.15L391.27 7.94662C391.27 6.88252 391.484 5.82926 391.898 4.8493C392.313 3.86935 392.92 2.98266 393.684 2.24187C394.448 1.50107 395.353 0.921247 396.345 0.536787C397.337 0.152328 398.397 -0.028944 399.46 0.00375196C401.56 0.123758 403.532 1.04884 404.967 2.58645C406.402 4.12407 407.188 6.15575 407.163 8.25863V396.195C407.267 397.359 407.267 398.53 407.161 399.695L407.163 403.426L482.654 557.882L482.401 558.134C478.714 561.813 473.717 563.879 468.508 563.879C463.299 563.879 458.302 561.813 454.615 558.134L454.503 557.964L450.35 547.427C445.658 535.523 434.419 531.934 425.36 533.651C416.303 535.371 407.163 542.835 407.163 555.63V555.943C407.163 558.05 406.326 560.07 404.837 561.56C403.347 563.051 401.327 563.888 399.22 563.889L399.22 563.889Z" fill="#E6E6E6"/>
<path d="M536.896 281.013H261.093C257.887 281.009 254.813 279.734 252.546 277.467C250.279 275.2 249.004 272.127 249 268.921V76.0926C249.004 72.8866 250.279 69.8128 252.546 67.5458C254.813 65.2788 257.887 64.0036 261.093 64H536.896C540.102 64.0037 543.175 65.2789 545.442 67.546C547.709 69.813 548.985 72.8867 548.988 76.0927V268.921C548.984 272.127 547.709 275.2 545.442 277.467C543.175 279.734 540.102 281.009 536.896 281.013V281.013Z" fill="white"/>
<path d="M537.118 282.486H261.315C257.711 282.482 254.256 281.049 251.708 278.5C249.16 275.952 247.726 272.498 247.722 268.894V76.0654C247.726 72.4616 249.16 69.0067 251.708 66.4586C254.256 63.9104 257.711 62.4771 261.315 62.4731H537.118C540.722 62.4772 544.177 63.9106 546.725 66.4587C549.273 69.0069 550.706 72.4617 550.71 76.0654V268.894C550.706 272.498 549.273 275.952 546.725 278.5C544.176 281.048 540.722 282.482 537.118 282.486V282.486ZM261.315 65.4731C258.507 65.4762 255.814 66.5931 253.828 68.5789C251.842 70.5646 250.725 73.257 250.722 76.0654V268.894C250.725 271.702 251.843 274.394 253.828 276.38C255.814 278.366 258.507 279.483 261.315 279.486H537.118C539.926 279.483 542.619 278.366 544.604 276.38C546.59 274.394 547.707 271.702 547.71 268.894V76.0654C547.707 73.2571 546.59 70.5647 544.605 68.5789C542.619 66.5932 539.926 65.4762 537.118 65.4731H261.315Z" fill="#F2F2F2"/>
<path d="M439.995 76.0292H358.438C353.267 76.0234 348.31 73.9668 344.654 70.3105C340.997 66.6543 338.941 61.6971 338.935 56.5264V56.1718H459.498V56.5264C459.492 61.6971 457.435 66.6543 453.779 70.3105C450.123 73.9668 445.166 76.0234 439.995 76.0292V76.0292Z" fill="#E6E6E6"/>
<path d="M440.35 293.042H358.792C353.622 293.036 348.665 290.98 345.008 287.323C341.352 283.667 339.296 278.71 339.29 273.539V273.185H459.852V273.539C459.846 278.71 457.79 283.667 454.134 287.323C450.477 290.98 445.52 293.036 440.35 293.042V293.042Z" fill="#E6E6E6"/>
<path d="M549.67 564.882C549.671 565.039 549.64 565.194 549.58 565.338C549.521 565.483 549.433 565.614 549.323 565.725C549.212 565.835 549.081 565.923 548.936 565.983C548.791 566.042 548.636 566.073 548.48 566.072H1.18997C0.874364 566.072 0.57171 565.947 0.348541 565.724C0.125373 565.501 -3.05176e-05 565.198 -3.05176e-05 564.882C-3.05176e-05 564.567 0.125373 564.264 0.348541 564.041C0.57171 563.818 0.874364 563.692 1.18997 563.692H548.48C548.636 563.692 548.791 563.722 548.936 563.782C549.081 563.842 549.212 563.929 549.322 564.04C549.433 564.15 549.521 564.282 549.58 564.426C549.64 564.571 549.671 564.726 549.67 564.882V564.882Z" fill="#CCCCCC"/>
<path d="M184.306 537.181H198.722L205.58 481.575L184.303 481.576L184.306 537.181Z" fill="#9E616A"/>
<path d="M179.424 530.07L202.213 528.709V538.473L223.879 553.437C224.949 554.176 225.755 555.237 226.179 556.467C226.603 557.696 226.623 559.029 226.236 560.27C225.849 561.512 225.076 562.597 224.028 563.368C222.98 564.139 221.714 564.554 220.414 564.554H193.282L188.606 554.896L186.78 564.554H176.55L179.424 530.07Z" fill="#2F2E41"/>
<path d="M135.277 227.892L133.865 234.622L132.664 259.447L180.908 252.915L184.613 224.169L179.492 215.755L135.277 227.892Z" fill="#9E616A"/>
<path d="M111.347 537.181H125.763L132.621 481.575L111.344 481.576L111.347 537.181Z" fill="#9E616A"/>
<path d="M103.526 438.941L103.525 438.792L108.922 413.6L112.249 401.059L103 327.63C100.822 274.281 131.772 248.637 132.016 248.385L132.687 247.687L182.323 246.472C209.029 262.473 206.006 349.992 210.896 409.511C211.245 413.755 215.627 420.02 214.55 424.057C206.004 456.084 208.507 490.718 201.997 491.742L182.036 491.465L171.726 444.676L181.243 408.99C177.022 408.212 174.105 387.578 174.105 387.578C172.266 385.394 165.917 366.822 165.917 366.822L157.452 315.412L143.851 403.836L147.126 424.581L144.416 431.713L132.807 490.599L132.684 491.548L110.799 489.363L103.526 438.941Z" fill="#2F2E41"/>
<path d="M106.465 530.07L129.254 528.709V538.473L150.92 553.437C151.991 554.176 152.797 555.237 153.221 556.467C153.645 557.696 153.665 559.029 153.278 560.27C152.891 561.512 152.117 562.597 151.069 563.368C150.022 564.139 148.755 564.554 147.455 564.554H120.324L115.647 554.896L113.821 564.554H103.592L106.465 530.07Z" fill="#2F2E41"/>
<path d="M175.078 130.806L187.246 144.326L201.862 171.874L194.682 205.842L197.821 221.782L202.456 239.304C184.597 249.183 163.382 235.539 143.893 229.479L124.717 237.952L125.731 214.63L126.251 155.869C126.271 153.613 126.754 151.384 127.672 149.322C128.589 147.26 129.92 145.408 131.583 143.882C133.246 142.356 135.204 141.188 137.337 140.45C139.47 139.712 141.732 139.421 143.983 139.594V139.594L156.827 130.13L175.078 130.806Z" fill="#C587EC"/>
<path d="M171.67 123.729C185.84 123.729 197.327 112.242 197.327 98.0719C197.327 83.9018 185.84 72.4147 171.67 72.4147C157.5 72.4147 146.013 83.9018 146.013 98.0719C146.013 112.242 157.5 123.729 171.67 123.729Z" fill="#9E616A"/>
<path d="M201.862 88.8125C201.41 91.3265 190.608 92.5398 190.934 88.0671C188.832 92.2781 185.692 98.3891 189.692 105.389C188.125 107.096 187.138 109.254 186.872 111.555C186.606 113.857 187.074 116.183 188.21 118.202C189.348 120.052 190.302 122.01 191.057 124.047C191.21 124.541 191.318 125.048 191.382 125.561C191.447 126.077 191.371 126.601 191.163 127.078C190.956 127.554 190.624 127.967 190.202 128.271C189.78 128.575 189.284 128.76 188.767 128.806C188.249 128.853 187.728 128.759 187.259 128.535C176.378 123.206 157.404 124.109 145.501 127.361C145.58 125.045 145.549 122.735 145.406 120.43C144.971 123.312 143.809 126.036 142.027 128.344C139.989 128.947 137.991 129.573 136.056 130.192C135.761 130.288 135.445 130.301 135.143 130.232C134.841 130.163 134.563 130.012 134.339 129.798C134.115 129.583 133.954 129.311 133.872 129.012C133.791 128.713 133.792 128.397 133.875 128.098C134.252 126.73 134.323 125.294 134.081 123.895C133.59 120.993 132.13 118.368 131.1 115.616C130.069 112.864 129.482 109.7 130.743 107.043C132.701 102.92 138.221 101.659 140.656 97.7967C143.392 93.4589 141.266 87.8046 141.694 82.6895C142.297 75.4571 148.221 69.5808 154.898 66.7417C166.461 61.8249 180.926 65.8067 189.593 74.8949C190.809 74.0739 192.229 73.606 193.694 73.543C195.16 73.48 196.615 73.8244 197.896 74.538C200.458 75.9099 202.298 76.6237 203.448 79.2962C204.455 81.6435 202.322 86.2907 201.862 88.8125Z" fill="#2F2E41"/>
<path d="M190.841 390.533L130.477 330.168C129.776 329.466 129.382 328.514 129.382 327.522C129.382 326.529 129.776 325.577 130.477 324.875L172.68 282.671C173.383 281.97 174.335 281.576 175.327 281.576C176.319 281.576 177.271 281.97 177.974 282.671L238.338 343.036C239.039 343.738 239.433 344.69 239.433 345.682C239.433 346.675 239.039 347.626 238.338 348.329L196.134 390.533C195.432 391.234 194.48 391.627 193.488 391.627C192.495 391.627 191.544 391.234 190.841 390.533V390.533Z" fill="white"/>
<path d="M193.488 392.626C192.865 392.628 192.248 392.507 191.672 392.269C191.096 392.031 190.574 391.681 190.134 391.24L129.769 330.875C128.881 329.986 128.382 328.779 128.382 327.522C128.382 326.264 128.881 325.058 129.769 324.168L171.974 281.964C172.864 281.076 174.07 280.577 175.327 280.577C176.585 280.577 177.791 281.076 178.681 281.964L239.045 342.329C239.934 343.218 240.433 344.425 240.433 345.682C240.433 346.94 239.934 348.146 239.045 349.036L196.841 391.24C196.402 391.681 195.879 392.031 195.303 392.269C194.728 392.507 194.111 392.628 193.488 392.626ZM175.327 282.577C174.967 282.575 174.61 282.645 174.277 282.783C173.944 282.921 173.642 283.123 173.388 283.378L131.184 325.582C130.67 326.097 130.382 326.795 130.382 327.522C130.382 328.249 130.67 328.946 131.184 329.461L191.548 389.826C192.071 390.323 192.766 390.601 193.488 390.601C194.21 390.601 194.904 390.323 195.427 389.826L237.631 347.622C238.145 347.107 238.433 346.409 238.433 345.682C238.433 344.955 238.145 344.257 237.631 343.743L177.266 283.378C177.012 283.123 176.71 282.921 176.377 282.783C176.044 282.645 175.687 282.575 175.327 282.577V282.577Z" fill="#E6E6E6"/>
<path d="M168.097 288.286C167.086 286.993 166.372 285.494 166.003 283.894C165.635 282.295 165.621 280.634 165.964 279.029C166.307 277.424 166.997 275.914 167.987 274.604C168.977 273.295 170.241 272.219 171.692 271.451L172.642 170.638L191.484 179.285L187.339 276.786C188.468 279.308 188.631 282.157 187.8 284.792C186.968 287.427 185.198 289.665 182.826 291.083C180.454 292.5 177.645 292.999 174.93 292.483C172.215 291.968 169.784 290.474 168.097 288.286V288.286Z" fill="#9E616A"/>
<path d="M168.604 145.114C168.604 145.114 186.934 136.223 189.469 152.998C192.003 169.773 202.43 213.431 202.43 213.431L170.791 211.194L168.604 145.114Z" fill="#9E616A"/>
<path d="M168.097 288.286C167.086 286.993 166.372 285.494 166.003 283.894C165.635 282.295 165.621 280.634 165.964 279.029C166.307 277.424 166.997 275.914 167.987 274.604C168.977 273.295 170.241 272.219 171.692 271.451L172.642 170.638L191.484 179.285L187.339 276.786C188.468 279.308 188.631 282.157 187.8 284.792C186.968 287.427 185.198 289.665 182.826 291.083C180.454 292.5 177.645 292.999 174.93 292.483C172.215 291.968 169.784 290.474 168.097 288.286V288.286Z" fill="#9E616A"/>
<path d="M168.604 145.114C168.604 145.114 186.934 136.223 189.469 152.998C192.003 169.773 202.43 213.431 202.43 213.431L170.791 211.194L168.604 145.114Z" fill="#C587EC"/>
<path d="M325.376 166.92V154.608L345.32 122.928L354.464 128.904L337.4 156.048L338.408 157.56H352.952V139.128H363.824V157.56H369.872V166.92H363.824V177H352.952V166.92H325.376ZM398.879 178.368C394.703 178.368 391.127 177.696 388.151 176.352C385.175 175.008 382.751 173.136 380.879 170.736C379.007 168.336 377.639 165.6 376.775 162.528C375.911 159.456 375.479 156.192 375.479 152.736V148.632C375.479 143.88 376.319 139.56 377.999 135.672C379.679 131.736 382.247 128.616 385.703 126.312C389.159 124.008 393.551 122.856 398.879 122.856C404.207 122.856 408.575 124.008 411.983 126.312C415.439 128.616 418.007 131.736 419.687 135.672C421.367 139.56 422.207 143.88 422.207 148.632V152.736C422.207 156.192 421.751 159.456 420.839 162.528C419.975 165.6 418.607 168.336 416.735 170.736C414.911 173.136 412.511 175.008 409.535 176.352C406.607 177.696 403.055 178.368 398.879 178.368ZM398.879 167.496C402.767 167.496 405.647 166.152 407.519 163.464C409.439 160.728 410.399 156.504 410.399 150.792C410.399 144.744 409.415 140.4 407.447 137.76C405.527 135.072 402.671 133.728 398.879 133.728C395.039 133.728 392.135 135.048 390.167 137.688C388.247 140.328 387.287 144.648 387.287 150.648C387.287 156.456 388.223 160.728 390.095 163.464C392.015 166.152 394.943 167.496 398.879 167.496ZM428.665 166.92V154.608L448.609 122.928L457.753 128.904L440.689 156.048L441.697 157.56H456.241V139.128H467.113V157.56H473.161V166.92H467.113V177H456.241V166.92H428.665Z" fill="#A878D8"/>
<path d="M370.048 232.266C369.124 232.266 368.317 232.107 367.626 231.79C366.945 231.463 366.38 231.039 365.932 230.516C365.484 229.984 365.148 229.415 364.924 228.808C364.709 228.192 364.602 227.595 364.602 227.016V226.708C364.602 226.073 364.714 225.448 364.938 224.832C365.171 224.216 365.517 223.656 365.974 223.152C366.431 222.639 367.001 222.233 367.682 221.934C368.363 221.626 369.152 221.472 370.048 221.472C370.944 221.472 371.733 221.626 372.414 221.934C373.095 222.233 373.665 222.639 374.122 223.152C374.579 223.656 374.925 224.216 375.158 224.832C375.391 225.448 375.508 226.073 375.508 226.708V227.016C375.508 227.595 375.396 228.192 375.172 228.808C374.948 229.415 374.612 229.984 374.164 230.516C373.716 231.039 373.147 231.463 372.456 231.79C371.775 232.107 370.972 232.266 370.048 232.266ZM370.048 230.124C370.692 230.124 371.247 229.979 371.714 229.69C372.19 229.401 372.554 229.009 372.806 228.514C373.058 228.019 373.184 227.473 373.184 226.876C373.184 226.241 373.053 225.681 372.792 225.196C372.54 224.701 372.181 224.314 371.714 224.034C371.247 223.754 370.692 223.614 370.048 223.614C369.404 223.614 368.849 223.754 368.382 224.034C367.915 224.314 367.556 224.701 367.304 225.196C367.052 225.681 366.926 226.241 366.926 226.876C366.926 227.473 367.052 228.019 367.304 228.514C367.556 229.009 367.915 229.401 368.382 229.69C368.849 229.979 369.404 230.124 370.048 230.124ZM380.86 232.266C379.964 232.266 379.198 232.084 378.564 231.72C377.938 231.356 377.462 230.88 377.136 230.292C376.809 229.695 376.646 229.046 376.646 228.346V228.024C376.646 227.305 376.814 226.647 377.15 226.05C377.495 225.443 377.98 224.963 378.606 224.608C379.24 224.244 379.992 224.062 380.86 224.062C381.728 224.062 382.479 224.244 383.114 224.608C383.748 224.963 384.234 225.443 384.57 226.05C384.915 226.647 385.088 227.305 385.088 228.024V228.346C385.088 229.046 384.92 229.695 384.584 230.292C384.257 230.88 383.781 231.356 383.156 231.72C382.53 232.084 381.765 232.266 380.86 232.266ZM380.86 230.376C381.504 230.376 381.994 230.171 382.33 229.76C382.675 229.34 382.848 228.817 382.848 228.192C382.848 227.548 382.67 227.016 382.316 226.596C381.97 226.167 381.485 225.952 380.86 225.952C380.234 225.952 379.749 226.167 379.404 226.596C379.058 227.016 378.886 227.548 378.886 228.192C378.886 228.817 379.054 229.34 379.39 229.76C379.726 230.171 380.216 230.376 380.86 230.376ZM390.389 232.266C389.493 232.266 388.728 232.084 388.093 231.72C387.468 231.356 386.992 230.88 386.665 230.292C386.338 229.695 386.175 229.046 386.175 228.346V228.024C386.175 227.305 386.343 226.647 386.679 226.05C387.024 225.443 387.51 224.963 388.135 224.608C388.77 224.244 389.521 224.062 390.389 224.062C391.257 224.062 392.008 224.244 392.643 224.608C393.278 224.963 393.763 225.443 394.099 226.05C394.444 226.647 394.617 227.305 394.617 228.024V228.346C394.617 229.046 394.449 229.695 394.113 230.292C393.786 230.88 393.31 231.356 392.685 231.72C392.06 232.084 391.294 232.266 390.389 232.266ZM390.389 230.376C391.033 230.376 391.523 230.171 391.859 229.76C392.204 229.34 392.377 228.817 392.377 228.192C392.377 227.548 392.2 227.016 391.845 226.596C391.5 226.167 391.014 225.952 390.389 225.952C389.764 225.952 389.278 226.167 388.933 226.596C388.588 227.016 388.415 227.548 388.415 228.192C388.415 228.817 388.583 229.34 388.919 229.76C389.255 230.171 389.745 230.376 390.389 230.376ZM399.918 232.266C399.022 232.266 398.257 232.084 397.622 231.72C396.997 231.356 396.521 230.88 396.194 230.292C395.868 229.695 395.704 229.046 395.704 228.346V228.024C395.704 227.305 395.872 226.647 396.208 226.05C396.554 225.443 397.039 224.963 397.664 224.608C398.299 224.244 399.05 224.062 399.918 224.062C400.786 224.062 401.538 224.244 402.172 224.608C402.807 224.963 403.292 225.443 403.628 226.05C403.974 226.647 404.146 227.305 404.146 228.024V228.346C404.146 229.046 403.978 229.695 403.642 230.292C403.316 230.88 402.84 231.356 402.214 231.72C401.589 232.084 400.824 232.266 399.918 232.266ZM399.918 230.376C400.562 230.376 401.052 230.171 401.388 229.76C401.734 229.34 401.906 228.817 401.906 228.192C401.906 227.548 401.729 227.016 401.374 226.596C401.029 226.167 400.544 225.952 399.918 225.952C399.293 225.952 398.808 226.167 398.462 226.596C398.117 227.016 397.944 227.548 397.944 228.192C397.944 228.817 398.112 229.34 398.448 229.76C398.784 230.171 399.274 230.376 399.918 230.376ZM405.71 234.8V224.328H407.488V226.274C407.712 225.565 408.085 225.028 408.608 224.664C409.14 224.291 409.76 224.104 410.47 224.104C411.179 224.104 411.795 224.277 412.318 224.622C412.85 224.958 413.26 225.42 413.55 226.008C413.848 226.596 413.998 227.259 413.998 227.996V228.318C413.998 229.055 413.858 229.723 413.578 230.32C413.298 230.917 412.896 231.389 412.374 231.734C411.851 232.079 411.216 232.252 410.47 232.252C409.947 232.252 409.466 232.154 409.028 231.958C408.589 231.762 408.23 231.463 407.95 231.062V234.8H405.71ZM409.84 230.376C410.409 230.376 410.866 230.171 411.212 229.76C411.566 229.349 411.744 228.813 411.744 228.15C411.744 227.497 411.566 226.969 411.212 226.568C410.866 226.167 410.409 225.966 409.84 225.966C409.494 225.966 409.172 226.045 408.874 226.204C408.584 226.363 408.346 226.591 408.16 226.89C407.982 227.189 407.894 227.543 407.894 227.954V228.472C407.894 228.873 407.987 229.219 408.174 229.508C408.37 229.788 408.617 230.003 408.916 230.152C409.214 230.301 409.522 230.376 409.84 230.376ZM418.465 232.238C417.373 232.238 416.519 232.014 415.903 231.566C415.287 231.118 414.961 230.488 414.923 229.676H416.911C416.939 229.919 417.084 230.138 417.345 230.334C417.607 230.521 417.994 230.614 418.507 230.614C418.89 230.614 419.212 230.549 419.473 230.418C419.735 230.287 419.865 230.091 419.865 229.83C419.865 229.606 419.767 229.429 419.571 229.298C419.375 229.158 419.025 229.06 418.521 229.004L417.919 228.948C416.995 228.845 416.3 228.589 415.833 228.178C415.376 227.767 415.147 227.231 415.147 226.568C415.147 226.027 415.283 225.574 415.553 225.21C415.833 224.846 416.211 224.571 416.687 224.384C417.163 224.197 417.709 224.104 418.325 224.104C419.315 224.104 420.108 224.323 420.705 224.762C421.312 225.191 421.634 225.817 421.671 226.638H419.683C419.646 226.395 419.511 226.185 419.277 226.008C419.053 225.831 418.727 225.742 418.297 225.742C417.952 225.742 417.677 225.807 417.471 225.938C417.266 226.069 417.163 226.246 417.163 226.47C417.163 226.685 417.252 226.848 417.429 226.96C417.607 227.072 417.896 227.151 418.297 227.198L418.899 227.254C419.833 227.357 420.561 227.623 421.083 228.052C421.615 228.472 421.881 229.032 421.881 229.732C421.881 230.507 421.573 231.118 420.957 231.566C420.341 232.014 419.511 232.238 418.465 232.238ZM422.873 232V229.494H425.337V232H422.873ZM426.701 232V229.494H429.165V232H426.701ZM430.529 232V229.494H432.993V232H430.529Z" fill="#A878D8"/>
<path d="M345.148 250V239.696H348.886C350.183 239.696 351.201 240.018 351.938 240.662C352.675 241.297 353.044 242.169 353.044 243.28V243.504C353.044 244.605 352.675 245.478 351.938 246.122C351.201 246.757 350.183 247.074 348.886 247.074H347.444V250H345.148ZM348.998 241.684H347.444V245.086H348.998C349.53 245.086 349.95 244.932 350.258 244.624C350.566 244.316 350.72 243.905 350.72 243.392C350.72 242.869 350.566 242.454 350.258 242.146C349.95 241.838 349.53 241.684 348.998 241.684ZM356.448 250.196C355.618 250.196 354.946 249.981 354.432 249.552C353.928 249.123 353.676 248.516 353.676 247.732C353.676 247.172 353.821 246.715 354.11 246.36C354.4 245.996 354.806 245.73 355.328 245.562C355.851 245.385 356.453 245.296 357.134 245.296H358.52V245.268C358.52 244.484 358.128 244.092 357.344 244.092C357.139 244.092 356.868 244.101 356.532 244.12C356.196 244.129 355.846 244.143 355.482 244.162C355.128 244.171 354.81 244.185 354.53 244.204V242.314C354.857 242.286 355.258 242.263 355.734 242.244C356.21 242.216 356.649 242.202 357.05 242.202C358.226 242.202 359.122 242.454 359.738 242.958C360.364 243.453 360.676 244.232 360.676 245.296V250H358.898V248.558C358.73 249.09 358.441 249.496 358.03 249.776C357.62 250.056 357.092 250.196 356.448 250.196ZM357.12 248.642C357.484 248.642 357.802 248.539 358.072 248.334C358.343 248.129 358.492 247.737 358.52 247.158V246.542H357.12C356.728 246.542 356.425 246.64 356.21 246.836C356.005 247.032 355.902 247.289 355.902 247.606C355.902 247.914 356.005 248.166 356.21 248.362C356.425 248.549 356.728 248.642 357.12 248.642ZM365.601 253.052C365.218 253.052 364.831 253.038 364.439 253.01C364.047 252.982 363.692 252.945 363.375 252.898V251.008C363.701 251.055 364.061 251.092 364.453 251.12C364.845 251.157 365.209 251.176 365.545 251.176C366.45 251.176 367.103 251.017 367.505 250.7C367.915 250.392 368.121 249.902 368.121 249.23V248.558C367.878 249.043 367.533 249.417 367.085 249.678C366.646 249.93 366.128 250.056 365.531 250.056C364.831 250.056 364.224 249.893 363.711 249.566C363.197 249.23 362.801 248.773 362.521 248.194C362.241 247.615 362.101 246.967 362.101 246.248V245.926C362.101 245.198 362.25 244.549 362.549 243.98C362.847 243.401 363.263 242.944 363.795 242.608C364.336 242.272 364.961 242.104 365.671 242.104C366.333 242.104 366.903 242.263 367.379 242.58C367.855 242.897 368.214 243.355 368.457 243.952V242.328H370.235V249.09C370.235 250.509 369.852 251.521 369.087 252.128C368.331 252.744 367.169 253.052 365.601 253.052ZM366.231 248.166C366.744 248.166 367.178 247.998 367.533 247.662C367.897 247.317 368.079 246.836 368.079 246.22V245.814C368.079 245.413 367.99 245.077 367.813 244.806C367.645 244.526 367.421 244.316 367.141 244.176C366.861 244.027 366.562 243.952 366.245 243.952C365.675 243.952 365.213 244.148 364.859 244.54C364.513 244.923 364.341 245.436 364.341 246.08C364.341 246.733 364.518 247.247 364.873 247.62C365.227 247.984 365.68 248.166 366.231 248.166ZM375.688 250.266C375.035 250.266 374.456 250.154 373.952 249.93C373.458 249.706 373.042 249.407 372.706 249.034C372.37 248.651 372.118 248.227 371.95 247.76C371.782 247.284 371.698 246.799 371.698 246.304V246.024C371.698 245.52 371.782 245.03 371.95 244.554C372.118 244.078 372.37 243.653 372.706 243.28C373.042 242.907 373.448 242.613 373.924 242.398C374.41 242.174 374.97 242.062 375.604 242.062C376.426 242.062 377.116 242.249 377.676 242.622C378.246 242.986 378.68 243.467 378.978 244.064C379.277 244.661 379.426 245.305 379.426 245.996V246.752H373.812C373.887 247.275 374.074 247.69 374.372 247.998C374.68 248.297 375.119 248.446 375.688 248.446C376.09 248.446 376.421 248.371 376.682 248.222C376.953 248.063 377.135 247.863 377.228 247.62H379.286C379.118 248.404 378.712 249.043 378.068 249.538C377.434 250.023 376.64 250.266 375.688 250.266ZM375.604 243.882C375.119 243.882 374.722 244.022 374.414 244.302C374.116 244.573 373.924 244.965 373.84 245.478H377.284C377.21 244.965 377.028 244.573 376.738 244.302C376.458 244.022 376.08 243.882 375.604 243.882ZM383.85 250V242.328H385.628V244.288C385.936 242.823 386.799 242.09 388.218 242.09H388.316C389.203 242.09 389.884 242.384 390.36 242.972C390.836 243.551 391.074 244.433 391.074 245.618V250H388.834V245.492C388.834 245.081 388.713 244.745 388.47 244.484C388.227 244.223 387.901 244.092 387.49 244.092C387.07 244.092 386.729 244.227 386.468 244.498C386.216 244.759 386.09 245.105 386.09 245.534V250H383.85ZM396.721 250.266C395.825 250.266 395.06 250.084 394.425 249.72C393.8 249.356 393.324 248.88 392.997 248.292C392.67 247.695 392.507 247.046 392.507 246.346V246.024C392.507 245.305 392.675 244.647 393.011 244.05C393.356 243.443 393.842 242.963 394.467 242.608C395.102 242.244 395.853 242.062 396.721 242.062C397.589 242.062 398.34 242.244 398.975 242.608C399.61 242.963 400.095 243.443 400.431 244.05C400.776 244.647 400.949 245.305 400.949 246.024V246.346C400.949 247.046 400.781 247.695 400.445 248.292C400.118 248.88 399.642 249.356 399.017 249.72C398.392 250.084 397.626 250.266 396.721 250.266ZM396.721 248.376C397.365 248.376 397.855 248.171 398.191 247.76C398.536 247.34 398.709 246.817 398.709 246.192C398.709 245.548 398.532 245.016 398.177 244.596C397.832 244.167 397.346 243.952 396.721 243.952C396.096 243.952 395.61 244.167 395.265 244.596C394.92 245.016 394.747 245.548 394.747 246.192C394.747 246.817 394.915 247.34 395.251 247.76C395.587 248.171 396.077 248.376 396.721 248.376ZM405.998 250.098C405.224 250.098 404.598 250.005 404.122 249.818C403.646 249.622 403.296 249.3 403.072 248.852C402.858 248.395 402.75 247.779 402.75 247.004V243.966H401.588V242.328H402.75V240.256H404.836V242.328H407.076V243.966H404.836V247.088C404.836 247.452 404.93 247.732 405.116 247.928C405.312 248.115 405.588 248.208 405.942 248.208H407.076V250.098H405.998ZM411.69 250V244.12H410.78V242.482H411.69V242.258C411.69 240.513 412.684 239.64 414.672 239.64H415.652V241.32H414.574C414.042 241.32 413.776 241.586 413.776 242.118V242.482H415.764V244.12H413.776V250H411.69ZM420.578 250.266C419.682 250.266 418.917 250.084 418.282 249.72C417.657 249.356 417.181 248.88 416.854 248.292C416.528 247.695 416.364 247.046 416.364 246.346V246.024C416.364 245.305 416.532 244.647 416.868 244.05C417.214 243.443 417.699 242.963 418.324 242.608C418.959 242.244 419.71 242.062 420.578 242.062C421.446 242.062 422.198 242.244 422.832 242.608C423.467 242.963 423.952 243.443 424.288 244.05C424.634 244.647 424.806 245.305 424.806 246.024V246.346C424.806 247.046 424.638 247.695 424.302 248.292C423.976 248.88 423.5 249.356 422.874 249.72C422.249 250.084 421.484 250.266 420.578 250.266ZM420.578 248.376C421.222 248.376 421.712 248.171 422.048 247.76C422.394 247.34 422.566 246.817 422.566 246.192C422.566 245.548 422.389 245.016 422.034 244.596C421.689 244.167 421.204 243.952 420.578 243.952C419.953 243.952 419.468 244.167 419.122 244.596C418.777 245.016 418.604 245.548 418.604 246.192C418.604 246.817 418.772 247.34 419.108 247.76C419.444 248.171 419.934 248.376 420.578 248.376ZM428.96 250.238C428.073 250.238 427.392 249.953 426.916 249.384C426.44 248.815 426.202 247.947 426.202 246.78V242.328H428.442V246.892C428.442 247.303 428.558 247.629 428.792 247.872C429.025 248.115 429.338 248.236 429.73 248.236C430.131 248.236 430.458 248.11 430.71 247.858C430.962 247.606 431.088 247.265 431.088 246.836V242.328H433.328V250H431.55V248.208C431.232 249.561 430.402 250.238 429.058 250.238H428.96ZM435.393 250V242.328H437.171V244.288C437.479 242.823 438.342 242.09 439.761 242.09H439.859C440.746 242.09 441.427 242.384 441.903 242.972C442.379 243.551 442.617 244.433 442.617 245.618V250H440.377V245.492C440.377 245.081 440.256 244.745 440.013 244.484C439.77 244.223 439.444 244.092 439.033 244.092C438.613 244.092 438.272 244.227 438.011 244.498C437.759 244.759 437.633 245.105 437.633 245.534V250H435.393ZM447.69 250.252C446.971 250.252 446.337 250.084 445.786 249.748C445.245 249.403 444.82 248.936 444.512 248.348C444.204 247.76 444.05 247.097 444.05 246.36V246.038C444.05 245.301 444.195 244.633 444.484 244.036C444.773 243.439 445.184 242.967 445.716 242.622C446.257 242.277 446.887 242.104 447.606 242.104C448.726 242.104 449.552 242.529 450.084 243.378V239.78H452.338V250H450.56V248.39C450.308 248.997 449.935 249.459 449.44 249.776C448.945 250.093 448.362 250.252 447.69 250.252ZM448.25 248.376C448.763 248.376 449.207 248.203 449.58 247.858C449.953 247.513 450.14 247.023 450.14 246.388V245.87C450.14 245.469 450.051 245.128 449.874 244.848C449.697 244.559 449.463 244.339 449.174 244.19C448.885 244.041 448.572 243.966 448.236 243.966C447.667 243.966 447.2 244.171 446.836 244.582C446.472 244.993 446.29 245.529 446.29 246.192C446.29 246.864 446.472 247.396 446.836 247.788C447.209 248.18 447.681 248.376 448.25 248.376Z" fill="#A878D8"/>
</g>
<defs>
<clipPath id="clip0_2_3218">
<rect width="550.71" height="567.986" fill="white"/>
</clipPath>
</defs>
</svg>
