<svg width="551" height="568" viewBox="0 0 551 568" fill="none" xmlns="http://www.w3.org/2000/svg">
<g clip-path="url(#clip0_2_3218)">
<path d="M386.602 567.986H235.877C234.124 567.984 232.445 567.287 231.206 566.048C229.967 564.809 229.27 563.13 229.268 561.377V455.998C229.27 454.246 229.967 452.566 231.206 451.327C232.445 450.088 234.124 449.391 235.877 449.389H386.602C388.354 449.391 390.034 450.088 391.273 451.327C392.511 452.566 393.208 454.246 393.21 455.998V561.377C393.208 563.129 392.511 564.809 391.273 566.048C390.034 567.287 388.354 567.984 386.602 567.986V567.986Z" fill="#F2F2F2"/>
<path d="M140.287 293.286C141.297 291.993 142.012 290.494 142.38 288.894C142.749 287.295 142.762 285.634 142.42 284.029C142.077 282.424 141.386 280.914 140.397 279.604C139.407 278.295 138.142 277.219 136.692 276.451L135.742 175.638L116.9 184.285L121.044 281.786C119.916 284.308 119.752 287.157 120.584 289.792C121.416 292.427 123.185 294.665 125.557 296.083C127.929 297.5 130.739 297.999 133.454 297.483C136.168 296.968 138.6 295.474 140.287 293.286V293.286Z" fill="#9E616A"/>
<path d="M139.779 150.114C139.779 150.114 121.45 141.223 118.915 157.998C116.38 174.773 105.954 218.431 105.954 218.431L137.593 216.194L139.779 150.114Z" fill="#9E616A"/>
<path d="M140.287 293.286C141.297 291.993 142.012 290.494 142.38 288.894C142.749 287.295 142.762 285.634 142.42 284.029C142.077 282.424 141.386 280.914 140.397 279.604C139.407 278.295 138.142 277.219 136.692 276.451L135.742 175.638L116.9 184.285L121.044 281.786C119.916 284.308 119.752 287.157 120.584 289.792C121.416 292.427 123.185 294.665 125.557 296.083C127.929 297.5 130.739 297.999 133.454 297.483C136.168 296.968 138.6 295.474 140.287 293.286V293.286Z" fill="#9E616A"/>
<path d="M139.779 150.114C139.779 150.114 121.45 141.223 118.915 157.998C116.38 174.773 105.954 218.431 105.954 218.431L137.593 216.194L139.779 150.114Z" fill="#C587EC"/>
<path d="M86.7078 538.459C85.9678 538.493 85.2351 538.299 84.6091 537.903C83.9832 537.506 83.4942 536.927 83.2084 536.244C82.9226 535.56 82.8538 534.805 83.0113 534.081C83.1689 533.357 83.5452 532.699 84.0892 532.197C84.1803 531.834 84.2457 531.574 84.3368 531.212C84.3042 531.133 84.2714 531.055 84.2384 530.976C83.4928 529.215 82.2435 527.713 80.6473 526.66C79.0512 525.607 77.1794 525.049 75.267 525.056C73.3547 525.063 71.4871 525.635 69.8988 526.7C68.3105 527.765 67.0724 529.276 66.3399 531.042C63.4125 538.093 59.6854 545.156 58.7677 552.61C58.3636 555.905 58.5341 559.246 59.2716 562.483C52.396 547.484 48.8257 531.183 48.8027 514.684C48.8013 510.543 49.0313 506.406 49.4917 502.292C49.8722 498.919 50.4002 495.569 51.0755 492.244C54.7607 474.203 62.6729 457.293 74.1625 442.903C79.7234 439.869 84.2206 435.203 87.048 429.534C88.0724 427.496 88.7963 425.321 89.1974 423.076C88.5701 423.158 87.9325 423.209 87.3052 423.251C87.1098 423.261 86.9041 423.271 86.7087 423.281L86.635 423.285C85.9456 423.316 85.2619 423.147 84.6663 422.798C84.0707 422.449 83.5885 421.936 83.2778 421.32C82.9672 420.704 82.8413 420.011 82.9153 419.325C82.9893 418.638 83.26 417.988 83.6949 417.452C83.9657 417.119 84.2368 416.786 84.5079 416.453C84.9193 415.939 85.341 415.435 85.7523 414.921C85.7998 414.872 85.8444 414.82 85.886 414.766C86.3591 414.18 86.8321 413.604 87.3052 413.018C86.4417 411.678 85.2803 410.555 83.9115 409.738C79.1707 406.961 72.6302 408.884 69.2057 413.172C65.7709 417.461 65.1231 423.477 66.3159 428.835C67.489 433.394 69.4295 437.72 72.0543 441.628C71.7972 441.957 71.5298 442.276 71.2727 442.605C66.573 448.648 62.4769 455.137 59.043 461.979C59.8781 454.314 58.8814 446.56 56.135 439.355C53.3515 432.64 48.1343 426.985 43.54 421.18C38.0214 414.207 26.7051 417.25 25.7329 426.089C25.7234 426.175 25.7143 426.26 25.7053 426.346C26.3877 426.731 27.0557 427.14 27.7093 427.572C28.5304 428.12 29.1666 428.904 29.5346 429.821C29.9026 430.737 29.9852 431.743 29.7716 432.707C29.558 433.671 29.0582 434.548 28.3376 435.223C27.617 435.899 26.7092 436.34 25.7333 436.491L25.6333 436.506C25.8764 438.966 26.3062 441.403 26.9188 443.798C28.694 450.482 31.8309 456.727 36.1328 462.142C40.4348 467.557 45.8091 472.025 51.9187 475.266C52.3198 475.472 52.7106 475.677 53.1117 475.873C49.6617 485.65 47.4976 495.834 46.674 506.169C46.2077 512.266 46.2352 518.391 46.7563 524.484L46.7254 524.268C45.409 517.493 41.7947 511.379 36.493 506.96C28.6186 500.492 17.4936 498.11 8.99854 492.911C8.09572 492.331 7.04597 492.022 5.97309 492.019C4.90021 492.016 3.84894 492.32 2.9433 492.896C2.03767 493.471 1.31543 494.293 0.861761 495.265C0.408091 496.238 0.241923 497.319 0.382849 498.383C0.394242 498.459 0.405811 498.534 0.417578 498.61C1.68394 499.126 2.91693 499.72 4.10941 500.389C4.79182 500.774 5.45982 501.183 6.11341 501.615C6.93449 502.164 7.57073 502.947 7.93873 503.864C8.30672 504.78 8.38932 505.786 8.17573 506.75C7.96213 507.714 7.4623 508.591 6.74171 509.267C6.02111 509.942 5.11338 510.384 4.13743 510.534L4.03742 510.549C3.96542 510.56 3.90373 510.57 3.83185 510.58C5.9956 515.747 9.03248 520.502 12.8095 524.638C17.4754 529.645 23.1148 533.646 29.3818 536.396C35.6489 539.145 42.4115 540.586 49.2552 540.63H49.2655C51.1233 548.702 53.8149 556.56 57.2972 564.077H85.9889C86.0918 563.758 86.1843 563.429 86.2769 563.11C83.6211 563.277 80.9549 563.118 78.3377 562.637C80.4665 560.025 82.5952 557.392 84.7239 554.78C84.7714 554.731 84.8161 554.68 84.8576 554.626C85.9374 553.289 87.0275 551.962 88.1073 550.625L88.1079 550.624C88.1654 546.526 87.6952 542.438 86.7087 538.46L86.7078 538.459Z" fill="#F2F2F2"/>
<path d="M509.708 538.459C508.968 538.493 508.235 538.299 507.609 537.903C506.983 537.506 506.494 536.927 506.208 536.244C505.923 535.56 505.854 534.805 506.011 534.081C506.169 533.357 506.545 532.699 507.089 532.197C507.18 531.834 507.246 531.574 507.337 531.212C507.304 531.133 507.271 531.055 507.238 530.976C506.493 529.215 505.243 527.713 503.647 526.66C502.051 525.607 500.179 525.049 498.267 525.056C496.355 525.063 494.487 525.635 492.899 526.7C491.31 527.765 490.072 529.276 489.34 531.042C486.412 538.093 482.685 545.156 481.768 552.61C481.364 555.905 481.534 559.246 482.272 562.483C475.396 547.484 471.826 531.183 471.803 514.684C471.801 510.543 472.031 506.406 472.492 502.292C472.872 498.919 473.4 495.569 474.075 492.244C477.761 474.203 485.673 457.293 497.162 442.903C502.723 439.869 507.221 435.203 510.048 429.534C511.072 427.496 511.796 425.321 512.197 423.076C511.57 423.158 510.932 423.209 510.305 423.251C510.11 423.261 509.904 423.271 509.709 423.281L509.635 423.285C508.946 423.316 508.262 423.147 507.666 422.798C507.071 422.449 506.588 421.936 506.278 421.32C505.967 420.704 505.841 420.011 505.915 419.325C505.989 418.638 506.26 417.988 506.695 417.452C506.966 417.119 507.237 416.786 507.508 416.453C507.919 415.939 508.341 415.435 508.752 414.921C508.8 414.872 508.844 414.82 508.886 414.766C509.359 414.18 509.832 413.604 510.305 413.018C509.442 411.678 508.28 410.555 506.911 409.738C502.171 406.961 495.63 408.884 492.206 413.172C488.771 417.461 488.123 423.477 489.316 428.835C490.489 433.394 492.429 437.72 495.054 441.628C494.797 441.957 494.53 442.276 494.273 442.605C489.573 448.648 485.477 455.137 482.043 461.979C482.878 454.314 481.881 446.56 479.135 439.355C476.351 432.64 471.134 426.985 466.54 421.18C461.021 414.207 449.705 417.25 448.733 426.089C448.723 426.175 448.714 426.26 448.705 426.346C449.388 426.731 450.056 427.14 450.709 427.572C451.53 428.12 452.166 428.904 452.534 429.821C452.902 430.737 452.985 431.743 452.771 432.707C452.558 433.671 452.058 434.548 451.337 435.223C450.617 435.899 449.709 436.34 448.733 436.491L448.633 436.506C448.876 438.966 449.306 441.403 449.919 443.798C451.694 450.482 454.831 456.727 459.133 462.142C463.435 467.557 468.809 472.025 474.919 475.266C475.32 475.472 475.711 475.677 476.112 475.873C472.662 485.65 470.498 495.834 469.674 506.169C469.208 512.266 469.235 518.391 469.756 524.484L469.725 524.268C468.409 517.493 464.795 511.379 459.493 506.96C451.619 500.492 440.494 498.11 431.999 492.911C431.096 492.331 430.046 492.022 428.973 492.019C427.9 492.016 426.849 492.32 425.943 492.896C425.038 493.471 424.315 494.293 423.862 495.265C423.408 496.238 423.242 497.319 423.383 498.383C423.394 498.459 423.406 498.534 423.418 498.61C424.684 499.126 425.917 499.72 427.109 500.389C427.792 500.774 428.46 501.183 429.113 501.615C429.934 502.164 430.571 502.947 430.939 503.864C431.307 504.78 431.389 505.786 431.176 506.75C430.962 507.714 430.462 508.591 429.742 509.267C429.021 509.942 428.113 510.384 427.137 510.534L427.037 510.549C426.965 510.56 426.904 510.57 426.832 510.58C428.996 515.747 432.032 520.502 435.81 524.638C440.475 529.645 446.115 533.646 452.382 536.396C458.649 539.145 465.412 540.586 472.255 540.63H472.266C474.123 548.702 476.815 556.56 480.297 564.077H508.989C509.092 563.758 509.184 563.429 509.277 563.11C506.621 563.277 503.955 563.118 501.338 562.637C503.466 560.025 505.595 557.392 507.724 554.78C507.771 554.731 507.816 554.68 507.858 554.626C508.937 553.289 510.027 551.962 511.107 550.625L511.108 550.624C511.165 546.526 510.695 542.438 509.709 538.46L509.708 538.459Z" fill="#F2F2F2"/>
<path d="M399.22 563.889C399.137 563.889 399.055 563.887 398.972 563.885C396.873 563.765 394.9 562.84 393.465 561.302C392.031 559.765 391.244 557.733 391.27 555.63C391.27 542.835 382.13 535.372 373.073 533.651C364.015 531.931 352.775 535.522 348.083 547.427L343.818 558.134C340.13 561.813 335.134 563.879 329.925 563.879C324.716 563.879 319.719 561.813 316.032 558.134L315.779 557.882L315.936 557.561L391.27 403.427V399.65C391.166 398.485 391.166 397.314 391.272 396.15L391.27 7.94662C391.27 6.88252 391.484 5.82926 391.898 4.8493C392.313 3.86935 392.92 2.98266 393.684 2.24187C394.448 1.50107 395.353 0.921247 396.345 0.536787C397.337 0.152328 398.397 -0.028944 399.46 0.00375196C401.56 0.123758 403.532 1.04884 404.967 2.58645C406.402 4.12407 407.188 6.15575 407.163 8.25863V396.195C407.267 397.359 407.267 398.53 407.161 399.695L407.163 403.426L482.654 557.882L482.401 558.134C478.714 561.813 473.717 563.879 468.508 563.879C463.299 563.879 458.302 561.813 454.615 558.134L454.503 557.964L450.35 547.427C445.658 535.523 434.419 531.934 425.36 533.651C416.303 535.371 407.163 542.835 407.163 555.63V555.943C407.163 558.05 406.326 560.07 404.837 561.56C403.347 563.051 401.327 563.888 399.22 563.889L399.22 563.889Z" fill="#E6E6E6"/>
<path d="M536.896 281.013H261.093C257.887 281.009 254.813 279.734 252.546 277.467C250.279 275.2 249.004 272.127 249 268.921V76.0926C249.004 72.8866 250.279 69.8128 252.546 67.5458C254.813 65.2788 257.887 64.0036 261.093 64H536.896C540.102 64.0037 543.175 65.2789 545.442 67.546C547.709 69.813 548.985 72.8867 548.988 76.0927V268.921C548.984 272.127 547.709 275.2 545.442 277.467C543.175 279.734 540.102 281.009 536.896 281.013V281.013Z" fill="white"/>
<path d="M537.396 282.486H261.593C257.989 282.482 254.534 281.049 251.986 278.5C249.438 275.952 248.004 272.498 248 268.894V76.0654C248.004 72.4616 249.438 69.0067 251.986 66.4586C254.534 63.9104 257.989 62.4771 261.593 62.4731H537.396C541 62.4772 544.454 63.9106 547.003 66.4587C549.551 69.0069 550.984 72.4617 550.988 76.0654V268.894C550.984 272.498 549.551 275.952 547.003 278.5C544.454 281.048 541 282.482 537.396 282.486V282.486ZM261.593 65.4731C258.784 65.4762 256.092 66.5931 254.106 68.5789C252.12 70.5646 251.003 73.257 251 76.0654V268.894C251.003 271.702 252.121 274.394 254.106 276.38C256.092 278.366 258.785 279.483 261.593 279.486H537.396C540.204 279.483 542.897 278.366 544.882 276.38C546.868 274.394 547.985 271.702 547.988 268.894V76.0654C547.985 73.2571 546.868 70.5647 544.882 68.5789C542.897 66.5932 540.204 65.4762 537.396 65.4731H261.593Z" fill="#F2F2F2"/>
<path d="M439.995 76.0292H358.438C353.267 76.0234 348.31 73.9668 344.654 70.3105C340.997 66.6543 338.941 61.6971 338.935 56.5264V56.1718H459.498V56.5264C459.492 61.6971 457.435 66.6543 453.779 70.3105C450.123 73.9668 445.166 76.0234 439.995 76.0292V76.0292Z" fill="#E6E6E6"/>
<path d="M440.35 293.042H358.792C353.622 293.036 348.665 290.98 345.008 287.323C341.352 283.667 339.296 278.71 339.29 273.539V273.185H459.852V273.539C459.846 278.71 457.79 283.667 454.134 287.323C450.477 290.98 445.52 293.036 440.35 293.042V293.042Z" fill="#E6E6E6"/>
<path d="M549.67 564.882C549.671 565.039 549.64 565.194 549.58 565.338C549.521 565.483 549.433 565.614 549.323 565.725C549.212 565.835 549.081 565.923 548.936 565.983C548.791 566.042 548.636 566.073 548.48 566.072H1.18997C0.874364 566.072 0.57171 565.947 0.348541 565.724C0.125373 565.501 -3.05176e-05 565.198 -3.05176e-05 564.882C-3.05176e-05 564.567 0.125373 564.264 0.348541 564.041C0.57171 563.818 0.874364 563.692 1.18997 563.692H548.48C548.636 563.692 548.791 563.722 548.936 563.782C549.081 563.842 549.212 563.929 549.322 564.04C549.433 564.15 549.521 564.282 549.58 564.426C549.64 564.571 549.671 564.726 549.67 564.882V564.882Z" fill="#CCCCCC"/>
<path d="M184.306 537.181H198.722L205.58 481.575L184.303 481.576L184.306 537.181Z" fill="#9E616A"/>
<path d="M179.424 530.07L202.213 528.709V538.473L223.879 553.437C224.949 554.176 225.755 555.237 226.179 556.467C226.603 557.696 226.623 559.029 226.236 560.27C225.849 561.512 225.076 562.597 224.028 563.368C222.98 564.139 221.714 564.554 220.414 564.554H193.282L188.606 554.896L186.78 564.554H176.55L179.424 530.07Z" fill="#2F2E41"/>
<path d="M135.277 227.892L133.865 234.622L132.664 259.447L180.908 252.915L184.613 224.169L179.492 215.755L135.277 227.892Z" fill="#9E616A"/>
<path d="M111.347 537.181H125.763L132.621 481.575L111.344 481.576L111.347 537.181Z" fill="#9E616A"/>
<path d="M103.526 438.941L103.525 438.792L108.922 413.6L112.249 401.059L103 327.63C100.822 274.281 131.772 248.637 132.016 248.385L132.687 247.687L182.323 246.472C209.029 262.473 206.006 349.992 210.896 409.511C211.245 413.755 215.627 420.02 214.55 424.057C206.004 456.084 208.507 490.718 201.997 491.742L182.036 491.465L171.726 444.676L181.243 408.99C177.022 408.212 174.105 387.578 174.105 387.578C172.266 385.394 165.917 366.822 165.917 366.822L157.452 315.412L143.851 403.836L147.126 424.581L144.416 431.713L132.807 490.599L132.684 491.548L110.799 489.363L103.526 438.941Z" fill="#2F2E41"/>
<path d="M106.465 530.07L129.254 528.709V538.473L150.92 553.437C151.991 554.176 152.797 555.237 153.221 556.467C153.645 557.696 153.665 559.029 153.278 560.27C152.891 561.512 152.117 562.597 151.069 563.368C150.022 564.139 148.755 564.554 147.455 564.554H120.324L115.647 554.896L113.821 564.554H103.592L106.465 530.07Z" fill="#2F2E41"/>
<path d="M175.078 130.806L187.246 144.326L201.862 171.874L194.682 205.842L197.821 221.782L202.456 239.304C184.597 249.183 163.382 235.539 143.893 229.479L124.717 237.952L125.731 214.63L126.251 155.869C126.271 153.613 126.754 151.384 127.672 149.322C128.589 147.26 129.92 145.408 131.583 143.882C133.246 142.356 135.204 141.188 137.337 140.45C139.47 139.712 141.732 139.421 143.983 139.594V139.594L156.827 130.13L175.078 130.806Z" fill="#C587EC"/>
<path d="M171.67 123.729C185.84 123.729 197.327 112.242 197.327 98.0719C197.327 83.9018 185.84 72.4147 171.67 72.4147C157.5 72.4147 146.013 83.9018 146.013 98.0719C146.013 112.242 157.5 123.729 171.67 123.729Z" fill="#9E616A"/>
<path d="M201.862 88.8125C201.41 91.3265 190.608 92.5398 190.934 88.0671C188.832 92.2781 185.692 98.3891 189.692 105.389C188.125 107.096 187.138 109.254 186.872 111.555C186.606 113.857 187.074 116.183 188.21 118.202C189.348 120.052 190.302 122.01 191.057 124.047C191.21 124.541 191.318 125.048 191.382 125.561C191.447 126.077 191.371 126.601 191.163 127.078C190.956 127.554 190.624 127.967 190.202 128.271C189.78 128.575 189.284 128.76 188.767 128.806C188.249 128.853 187.728 128.759 187.259 128.535C176.378 123.206 157.404 124.109 145.501 127.361C145.58 125.045 145.549 122.735 145.406 120.43C144.971 123.312 143.809 126.036 142.027 128.344C139.989 128.947 137.991 129.573 136.056 130.192C135.761 130.288 135.445 130.301 135.143 130.232C134.841 130.163 134.563 130.012 134.339 129.798C134.115 129.583 133.954 129.311 133.872 129.012C133.791 128.713 133.792 128.397 133.875 128.098C134.252 126.73 134.323 125.294 134.081 123.895C133.59 120.993 132.13 118.368 131.1 115.616C130.069 112.864 129.482 109.7 130.743 107.043C132.701 102.92 138.221 101.659 140.656 97.7967C143.392 93.4589 141.266 87.8046 141.694 82.6895C142.297 75.4571 148.221 69.5808 154.898 66.7417C166.461 61.8249 180.926 65.8067 189.593 74.8949C190.809 74.0739 192.229 73.606 193.694 73.543C195.16 73.48 196.615 73.8244 197.896 74.538C200.458 75.9099 202.298 76.6237 203.448 79.2962C204.455 81.6435 202.322 86.2907 201.862 88.8125Z" fill="#2F2E41"/>
<path d="M190.841 390.533L130.477 330.168C129.776 329.466 129.382 328.514 129.382 327.522C129.382 326.529 129.776 325.577 130.477 324.875L172.68 282.671C173.383 281.97 174.335 281.576 175.327 281.576C176.319 281.576 177.271 281.97 177.974 282.671L238.338 343.036C239.039 343.738 239.433 344.69 239.433 345.682C239.433 346.675 239.039 347.626 238.338 348.329L196.134 390.533C195.432 391.234 194.48 391.627 193.488 391.627C192.495 391.627 191.544 391.234 190.841 390.533V390.533Z" fill="white"/>
<path d="M193.488 392.626C192.865 392.628 192.248 392.507 191.672 392.269C191.096 392.031 190.574 391.681 190.134 391.24L129.769 330.875C128.881 329.986 128.382 328.779 128.382 327.522C128.382 326.264 128.881 325.058 129.769 324.168L171.974 281.964C172.864 281.076 174.07 280.577 175.327 280.577C176.585 280.577 177.791 281.076 178.681 281.964L239.045 342.329C239.934 343.218 240.433 344.425 240.433 345.682C240.433 346.94 239.934 348.146 239.045 349.036L196.841 391.24C196.402 391.681 195.879 392.031 195.303 392.269C194.728 392.507 194.111 392.628 193.488 392.626ZM175.327 282.577C174.967 282.575 174.61 282.645 174.277 282.783C173.944 282.921 173.642 283.123 173.388 283.378L131.184 325.582C130.67 326.097 130.382 326.795 130.382 327.522C130.382 328.249 130.67 328.946 131.184 329.461L191.548 389.826C192.071 390.323 192.766 390.601 193.488 390.601C194.21 390.601 194.904 390.323 195.427 389.826L237.631 347.622C238.145 347.107 238.433 346.409 238.433 345.682C238.433 344.955 238.145 344.257 237.631 343.743L177.266 283.378C177.012 283.123 176.71 282.921 176.377 282.783C176.044 282.645 175.687 282.575 175.327 282.577V282.577Z" fill="#E6E6E6"/>
<path d="M168.097 288.286C167.086 286.993 166.372 285.494 166.003 283.894C165.635 282.295 165.621 280.634 165.964 279.029C166.307 277.424 166.997 275.914 167.987 274.604C168.977 273.295 170.241 272.219 171.692 271.451L172.642 170.638L191.484 179.285L187.339 276.786C188.468 279.308 188.631 282.157 187.8 284.792C186.968 287.427 185.198 289.665 182.826 291.083C180.454 292.5 177.645 292.999 174.93 292.483C172.215 291.968 169.784 290.474 168.097 288.286V288.286Z" fill="#9E616A"/>
<path d="M168.604 145.114C168.604 145.114 186.934 136.223 189.469 152.998C192.003 169.773 202.43 213.431 202.43 213.431L170.791 211.194L168.604 145.114Z" fill="#9E616A"/>
<path d="M168.097 288.286C167.086 286.993 166.372 285.494 166.003 283.894C165.635 282.295 165.621 280.634 165.964 279.029C166.307 277.424 166.997 275.914 167.987 274.604C168.977 273.295 170.241 272.219 171.692 271.451L172.642 170.638L191.484 179.285L187.339 276.786C188.468 279.308 188.631 282.157 187.8 284.792C186.968 287.427 185.198 289.665 182.826 291.083C180.454 292.5 177.645 292.999 174.93 292.483C172.215 291.968 169.784 290.474 168.097 288.286V288.286Z" fill="#9E616A"/>
<path d="M168.604 145.114C168.604 145.114 186.934 136.223 189.469 152.998C192.003 169.773 202.43 213.431 202.43 213.431L170.791 211.194L168.604 145.114Z" fill="#C587EC"/>
<path d="M348.472 178.368C344.296 178.368 340.696 177.576 337.672 175.992C334.648 174.36 332.32 172.176 330.688 169.44C329.104 166.704 328.312 163.68 328.312 160.368H339.688C339.688 162.864 340.504 164.856 342.136 166.344C343.816 167.832 345.952 168.576 348.544 168.576C351.376 168.576 353.584 167.736 355.168 166.056C356.752 164.328 357.544 162.144 357.544 159.504C357.544 156.912 356.752 154.728 355.168 152.952C353.632 151.176 351.472 150.288 348.688 150.288C346.96 150.288 345.4 150.648 344.008 151.368C342.616 152.088 341.584 153 340.912 154.104H329.824L332.488 124.44H364.384V134.52H341.416L340.48 144.816C341.728 143.904 343.168 143.16 344.8 142.584C346.432 142.008 348.376 141.72 350.632 141.72C354.424 141.72 357.688 142.512 360.424 144.096C363.16 145.632 365.248 147.72 366.688 150.36C368.176 152.952 368.92 155.856 368.92 159.072V160.008C368.92 163.224 368.128 166.248 366.544 169.08C364.96 171.864 362.632 174.12 359.56 175.848C356.536 177.528 352.84 178.368 348.472 178.368ZM398.84 178.368C394.664 178.368 391.088 177.696 388.112 176.352C385.136 175.008 382.712 173.136 380.84 170.736C378.968 168.336 377.6 165.6 376.736 162.528C375.872 159.456 375.44 156.192 375.44 152.736V148.632C375.44 143.88 376.28 139.56 377.96 135.672C379.64 131.736 382.208 128.616 385.664 126.312C389.12 124.008 393.512 122.856 398.84 122.856C404.168 122.856 408.536 124.008 411.944 126.312C415.4 128.616 417.968 131.736 419.648 135.672C421.328 139.56 422.168 143.88 422.168 148.632V152.736C422.168 156.192 421.712 159.456 420.8 162.528C419.936 165.6 418.568 168.336 416.696 170.736C414.872 173.136 412.472 175.008 409.496 176.352C406.568 177.696 403.016 178.368 398.84 178.368ZM398.84 167.496C402.728 167.496 405.608 166.152 407.48 163.464C409.4 160.728 410.36 156.504 410.36 150.792C410.36 144.744 409.376 140.4 407.408 137.76C405.488 135.072 402.632 133.728 398.84 133.728C395 133.728 392.096 135.048 390.128 137.688C388.208 140.328 387.248 144.648 387.248 150.648C387.248 156.456 388.184 160.728 390.056 163.464C391.976 166.152 394.904 167.496 398.84 167.496ZM448.57 178.368C444.442 178.368 440.89 177.624 437.914 176.136C434.938 174.6 432.658 172.536 431.074 169.944C429.49 167.352 428.698 164.424 428.698 161.16H440.074C440.074 163.368 440.818 165.168 442.306 166.56C443.794 167.904 445.882 168.576 448.57 168.576C451.21 168.576 453.274 167.856 454.762 166.416C456.25 164.976 456.994 163.104 456.994 160.8C456.994 158.496 456.25 156.6 454.762 155.112C453.274 153.624 451.21 152.88 448.57 152.88C447.13 152.88 445.858 153.096 444.754 153.528C443.698 153.96 442.786 154.488 442.018 155.112L436.69 146.112L452.602 135.744L451.954 134.52H430.858V124.44H466.282V135.384L451.666 144.672C456.85 145.2 460.93 146.904 463.906 149.784C466.93 152.616 468.442 156.24 468.442 160.656V161.52C468.442 164.736 467.626 167.616 465.994 170.16C464.41 172.704 462.13 174.72 459.154 176.208C456.178 177.648 452.65 178.368 448.57 178.368Z" fill="#A878D8"/>
<path d="M370.048 232.266C369.124 232.266 368.317 232.107 367.626 231.79C366.945 231.463 366.38 231.039 365.932 230.516C365.484 229.984 365.148 229.415 364.924 228.808C364.709 228.192 364.602 227.595 364.602 227.016V226.708C364.602 226.073 364.714 225.448 364.938 224.832C365.171 224.216 365.517 223.656 365.974 223.152C366.431 222.639 367.001 222.233 367.682 221.934C368.363 221.626 369.152 221.472 370.048 221.472C370.944 221.472 371.733 221.626 372.414 221.934C373.095 222.233 373.665 222.639 374.122 223.152C374.579 223.656 374.925 224.216 375.158 224.832C375.391 225.448 375.508 226.073 375.508 226.708V227.016C375.508 227.595 375.396 228.192 375.172 228.808C374.948 229.415 374.612 229.984 374.164 230.516C373.716 231.039 373.147 231.463 372.456 231.79C371.775 232.107 370.972 232.266 370.048 232.266ZM370.048 230.124C370.692 230.124 371.247 229.979 371.714 229.69C372.19 229.401 372.554 229.009 372.806 228.514C373.058 228.019 373.184 227.473 373.184 226.876C373.184 226.241 373.053 225.681 372.792 225.196C372.54 224.701 372.181 224.314 371.714 224.034C371.247 223.754 370.692 223.614 370.048 223.614C369.404 223.614 368.849 223.754 368.382 224.034C367.915 224.314 367.556 224.701 367.304 225.196C367.052 225.681 366.926 226.241 366.926 226.876C366.926 227.473 367.052 228.019 367.304 228.514C367.556 229.009 367.915 229.401 368.382 229.69C368.849 229.979 369.404 230.124 370.048 230.124ZM380.86 232.266C379.964 232.266 379.198 232.084 378.564 231.72C377.938 231.356 377.462 230.88 377.136 230.292C376.809 229.695 376.646 229.046 376.646 228.346V228.024C376.646 227.305 376.814 226.647 377.15 226.05C377.495 225.443 377.98 224.963 378.606 224.608C379.24 224.244 379.992 224.062 380.86 224.062C381.728 224.062 382.479 224.244 383.114 224.608C383.748 224.963 384.234 225.443 384.57 226.05C384.915 226.647 385.088 227.305 385.088 228.024V228.346C385.088 229.046 384.92 229.695 384.584 230.292C384.257 230.88 383.781 231.356 383.156 231.72C382.53 232.084 381.765 232.266 380.86 232.266ZM380.86 230.376C381.504 230.376 381.994 230.171 382.33 229.76C382.675 229.34 382.848 228.817 382.848 228.192C382.848 227.548 382.67 227.016 382.316 226.596C381.97 226.167 381.485 225.952 380.86 225.952C380.234 225.952 379.749 226.167 379.404 226.596C379.058 227.016 378.886 227.548 378.886 228.192C378.886 228.817 379.054 229.34 379.39 229.76C379.726 230.171 380.216 230.376 380.86 230.376ZM390.389 232.266C389.493 232.266 388.728 232.084 388.093 231.72C387.468 231.356 386.992 230.88 386.665 230.292C386.338 229.695 386.175 229.046 386.175 228.346V228.024C386.175 227.305 386.343 226.647 386.679 226.05C387.024 225.443 387.51 224.963 388.135 224.608C388.77 224.244 389.521 224.062 390.389 224.062C391.257 224.062 392.008 224.244 392.643 224.608C393.278 224.963 393.763 225.443 394.099 226.05C394.444 226.647 394.617 227.305 394.617 228.024V228.346C394.617 229.046 394.449 229.695 394.113 230.292C393.786 230.88 393.31 231.356 392.685 231.72C392.06 232.084 391.294 232.266 390.389 232.266ZM390.389 230.376C391.033 230.376 391.523 230.171 391.859 229.76C392.204 229.34 392.377 228.817 392.377 228.192C392.377 227.548 392.2 227.016 391.845 226.596C391.5 226.167 391.014 225.952 390.389 225.952C389.764 225.952 389.278 226.167 388.933 226.596C388.588 227.016 388.415 227.548 388.415 228.192C388.415 228.817 388.583 229.34 388.919 229.76C389.255 230.171 389.745 230.376 390.389 230.376ZM399.918 232.266C399.022 232.266 398.257 232.084 397.622 231.72C396.997 231.356 396.521 230.88 396.194 230.292C395.868 229.695 395.704 229.046 395.704 228.346V228.024C395.704 227.305 395.872 226.647 396.208 226.05C396.554 225.443 397.039 224.963 397.664 224.608C398.299 224.244 399.05 224.062 399.918 224.062C400.786 224.062 401.538 224.244 402.172 224.608C402.807 224.963 403.292 225.443 403.628 226.05C403.974 226.647 404.146 227.305 404.146 228.024V228.346C404.146 229.046 403.978 229.695 403.642 230.292C403.316 230.88 402.84 231.356 402.214 231.72C401.589 232.084 400.824 232.266 399.918 232.266ZM399.918 230.376C400.562 230.376 401.052 230.171 401.388 229.76C401.734 229.34 401.906 228.817 401.906 228.192C401.906 227.548 401.729 227.016 401.374 226.596C401.029 226.167 400.544 225.952 399.918 225.952C399.293 225.952 398.808 226.167 398.462 226.596C398.117 227.016 397.944 227.548 397.944 228.192C397.944 228.817 398.112 229.34 398.448 229.76C398.784 230.171 399.274 230.376 399.918 230.376ZM405.71 234.8V224.328H407.488V226.274C407.712 225.565 408.085 225.028 408.608 224.664C409.14 224.291 409.76 224.104 410.47 224.104C411.179 224.104 411.795 224.277 412.318 224.622C412.85 224.958 413.26 225.42 413.55 226.008C413.848 226.596 413.998 227.259 413.998 227.996V228.318C413.998 229.055 413.858 229.723 413.578 230.32C413.298 230.917 412.896 231.389 412.374 231.734C411.851 232.079 411.216 232.252 410.47 232.252C409.947 232.252 409.466 232.154 409.028 231.958C408.589 231.762 408.23 231.463 407.95 231.062V234.8H405.71ZM409.84 230.376C410.409 230.376 410.866 230.171 411.212 229.76C411.566 229.349 411.744 228.813 411.744 228.15C411.744 227.497 411.566 226.969 411.212 226.568C410.866 226.167 410.409 225.966 409.84 225.966C409.494 225.966 409.172 226.045 408.874 226.204C408.584 226.363 408.346 226.591 408.16 226.89C407.982 227.189 407.894 227.543 407.894 227.954V228.472C407.894 228.873 407.987 229.219 408.174 229.508C408.37 229.788 408.617 230.003 408.916 230.152C409.214 230.301 409.522 230.376 409.84 230.376ZM418.465 232.238C417.373 232.238 416.519 232.014 415.903 231.566C415.287 231.118 414.961 230.488 414.923 229.676H416.911C416.939 229.919 417.084 230.138 417.345 230.334C417.607 230.521 417.994 230.614 418.507 230.614C418.89 230.614 419.212 230.549 419.473 230.418C419.735 230.287 419.865 230.091 419.865 229.83C419.865 229.606 419.767 229.429 419.571 229.298C419.375 229.158 419.025 229.06 418.521 229.004L417.919 228.948C416.995 228.845 416.3 228.589 415.833 228.178C415.376 227.767 415.147 227.231 415.147 226.568C415.147 226.027 415.283 225.574 415.553 225.21C415.833 224.846 416.211 224.571 416.687 224.384C417.163 224.197 417.709 224.104 418.325 224.104C419.315 224.104 420.108 224.323 420.705 224.762C421.312 225.191 421.634 225.817 421.671 226.638H419.683C419.646 226.395 419.511 226.185 419.277 226.008C419.053 225.831 418.727 225.742 418.297 225.742C417.952 225.742 417.677 225.807 417.471 225.938C417.266 226.069 417.163 226.246 417.163 226.47C417.163 226.685 417.252 226.848 417.429 226.96C417.607 227.072 417.896 227.151 418.297 227.198L418.899 227.254C419.833 227.357 420.561 227.623 421.083 228.052C421.615 228.472 421.881 229.032 421.881 229.732C421.881 230.507 421.573 231.118 420.957 231.566C420.341 232.014 419.511 232.238 418.465 232.238ZM422.873 232V229.494H425.337V232H422.873ZM426.701 232V229.494H429.165V232H426.701ZM430.529 232V229.494H432.993V232H430.529Z" fill="#A878D8"/>
<path d="M332.704 250.266C331.78 250.266 330.996 250.121 330.352 249.832C329.717 249.543 329.237 249.141 328.91 248.628C328.593 248.115 328.434 247.527 328.434 246.864H330.66C330.66 247.256 330.819 247.601 331.136 247.9C331.463 248.189 331.985 248.334 332.704 248.334C333.339 248.334 333.824 248.213 334.16 247.97C334.496 247.718 334.664 247.396 334.664 247.004C334.664 246.677 334.524 246.421 334.244 246.234C333.964 246.038 333.511 245.912 332.886 245.856L332.116 245.786C331.099 245.702 330.287 245.389 329.68 244.848C329.073 244.297 328.77 243.565 328.77 242.65C328.77 241.997 328.924 241.432 329.232 240.956C329.549 240.48 329.988 240.116 330.548 239.864C331.108 239.603 331.771 239.472 332.536 239.472C333.339 239.472 334.025 239.612 334.594 239.892C335.173 240.172 335.616 240.564 335.924 241.068C336.232 241.563 336.386 242.141 336.386 242.804H334.146C334.146 242.431 334.011 242.104 333.74 241.824C333.469 241.544 333.068 241.404 332.536 241.404C332.023 241.404 331.64 241.53 331.388 241.782C331.136 242.025 331.01 242.314 331.01 242.65C331.01 242.939 331.108 243.191 331.304 243.406C331.509 243.621 331.85 243.747 332.326 243.784L333.11 243.854C333.857 243.919 334.515 244.083 335.084 244.344C335.653 244.596 336.097 244.946 336.414 245.394C336.741 245.833 336.904 246.369 336.904 247.004C336.904 247.657 336.731 248.231 336.386 248.726C336.05 249.211 335.569 249.589 334.944 249.86C334.319 250.131 333.572 250.266 332.704 250.266ZM341.874 250.266C341.221 250.266 340.642 250.154 340.138 249.93C339.643 249.706 339.228 249.407 338.892 249.034C338.556 248.651 338.304 248.227 338.136 247.76C337.968 247.284 337.884 246.799 337.884 246.304V246.024C337.884 245.52 337.968 245.03 338.136 244.554C338.304 244.078 338.556 243.653 338.892 243.28C339.228 242.907 339.634 242.613 340.11 242.398C340.595 242.174 341.155 242.062 341.79 242.062C342.611 242.062 343.302 242.249 343.862 242.622C344.431 242.986 344.865 243.467 345.164 244.064C345.463 244.661 345.612 245.305 345.612 245.996V246.752H339.998C340.073 247.275 340.259 247.69 340.558 247.998C340.866 248.297 341.305 248.446 341.874 248.446C342.275 248.446 342.607 248.371 342.868 248.222C343.139 248.063 343.321 247.863 343.414 247.62H345.472C345.304 248.404 344.898 249.043 344.254 249.538C343.619 250.023 342.826 250.266 341.874 250.266ZM341.79 243.882C341.305 243.882 340.908 244.022 340.6 244.302C340.301 244.573 340.11 244.965 340.026 245.478H343.47C343.395 244.965 343.213 244.573 342.924 244.302C342.644 244.022 342.266 243.882 341.79 243.882ZM347.096 250V242.328H348.874V244.932C348.958 244.064 349.224 243.397 349.672 242.93C350.13 242.463 350.75 242.23 351.534 242.23H351.828V244.162H351.268C350.643 244.162 350.162 244.33 349.826 244.666C349.5 245.002 349.336 245.478 349.336 246.094V250H347.096ZM354.705 250L352.409 242.328H354.719L356.357 248.138H356.679L358.093 242.328H360.249L358.261 250H354.705ZM362.807 241.572C362.387 241.572 362.074 241.465 361.869 241.25C361.673 241.026 361.575 240.746 361.575 240.41C361.575 240.065 361.673 239.785 361.869 239.57C362.074 239.346 362.387 239.234 362.807 239.234C363.227 239.234 363.535 239.346 363.731 239.57C363.936 239.785 364.039 240.065 364.039 240.41C364.039 240.746 363.936 241.026 363.731 241.25C363.535 241.465 363.227 241.572 362.807 241.572ZM361.939 250V243.98H360.917V242.328H364.179V250H361.939ZM369.695 250.266C369.032 250.266 368.453 250.159 367.959 249.944C367.473 249.72 367.067 249.421 366.741 249.048C366.414 248.675 366.171 248.255 366.013 247.788C365.854 247.312 365.775 246.822 365.775 246.318V246.052C365.775 245.352 365.919 244.699 366.209 244.092C366.507 243.485 366.946 242.995 367.525 242.622C368.113 242.249 368.831 242.062 369.681 242.062C370.371 242.062 370.983 242.197 371.515 242.468C372.047 242.729 372.471 243.098 372.789 243.574C373.106 244.05 373.283 244.596 373.321 245.212H371.123C371.085 244.867 370.945 244.577 370.703 244.344C370.46 244.101 370.119 243.98 369.681 243.98C369.111 243.98 368.691 244.185 368.421 244.596C368.15 244.997 368.015 245.529 368.015 246.192C368.015 246.817 368.141 247.335 368.393 247.746C368.654 248.147 369.088 248.348 369.695 248.348C370.143 248.348 370.493 248.231 370.745 247.998C370.997 247.765 371.146 247.457 371.193 247.074H373.377C373.339 247.709 373.157 248.269 372.831 248.754C372.513 249.23 372.079 249.603 371.529 249.874C370.987 250.135 370.376 250.266 369.695 250.266ZM378.323 250.266C377.67 250.266 377.091 250.154 376.587 249.93C376.092 249.706 375.677 249.407 375.341 249.034C375.005 248.651 374.753 248.227 374.585 247.76C374.417 247.284 374.333 246.799 374.333 246.304V246.024C374.333 245.52 374.417 245.03 374.585 244.554C374.753 244.078 375.005 243.653 375.341 243.28C375.677 242.907 376.083 242.613 376.559 242.398C377.044 242.174 377.604 242.062 378.239 242.062C379.06 242.062 379.751 242.249 380.311 242.622C380.88 242.986 381.314 243.467 381.613 244.064C381.912 244.661 382.061 245.305 382.061 245.996V246.752H376.447C376.522 247.275 376.708 247.69 377.007 247.998C377.315 248.297 377.754 248.446 378.323 248.446C378.724 248.446 379.056 248.371 379.317 248.222C379.588 248.063 379.77 247.863 379.863 247.62H381.921C381.753 248.404 381.347 249.043 380.703 249.538C380.068 250.023 379.275 250.266 378.323 250.266ZM378.239 243.882C377.754 243.882 377.357 244.022 377.049 244.302C376.75 244.573 376.559 244.965 376.475 245.478H379.919C379.844 244.965 379.662 244.573 379.373 244.302C379.093 244.022 378.715 243.882 378.239 243.882ZM390.895 250.266C389.934 250.266 389.117 250.089 388.445 249.734C387.782 249.37 387.278 248.857 386.933 248.194C386.588 247.531 386.415 246.747 386.415 245.842V239.78H388.711V245.926C388.711 246.598 388.898 247.135 389.271 247.536C389.654 247.928 390.195 248.124 390.895 248.124C391.595 248.124 392.132 247.928 392.505 247.536C392.888 247.144 393.079 246.607 393.079 245.926V239.78H395.375V245.842C395.375 246.747 395.202 247.531 394.857 248.194C394.512 248.857 394.008 249.37 393.345 249.734C392.682 250.089 391.866 250.266 390.895 250.266ZM397.354 250V242.328H399.132V244.288C399.44 242.823 400.303 242.09 401.722 242.09H401.82C402.707 242.09 403.388 242.384 403.864 242.972C404.34 243.551 404.578 244.433 404.578 245.618V250H402.338V245.492C402.338 245.081 402.217 244.745 401.974 244.484C401.731 244.223 401.405 244.092 400.994 244.092C400.574 244.092 400.233 244.227 399.972 244.498C399.72 244.759 399.594 245.105 399.594 245.534V250H397.354ZM408.671 250.196C407.84 250.196 407.168 249.981 406.655 249.552C406.151 249.123 405.899 248.516 405.899 247.732C405.899 247.172 406.044 246.715 406.333 246.36C406.622 245.996 407.028 245.73 407.551 245.562C408.074 245.385 408.676 245.296 409.357 245.296H410.743V245.268C410.743 244.484 410.351 244.092 409.567 244.092C409.362 244.092 409.091 244.101 408.755 244.12C408.419 244.129 408.069 244.143 407.705 244.162C407.35 244.171 407.033 244.185 406.753 244.204V242.314C407.08 242.286 407.481 242.263 407.957 242.244C408.433 242.216 408.872 242.202 409.273 242.202C410.449 242.202 411.345 242.454 411.961 242.958C412.586 243.453 412.899 244.232 412.899 245.296V250H411.121V248.558C410.953 249.09 410.664 249.496 410.253 249.776C409.842 250.056 409.315 250.196 408.671 250.196ZM409.343 248.642C409.707 248.642 410.024 248.539 410.295 248.334C410.566 248.129 410.715 247.737 410.743 247.158V246.542H409.343C408.951 246.542 408.648 246.64 408.433 246.836C408.228 247.032 408.125 247.289 408.125 247.606C408.125 247.914 408.228 248.166 408.433 248.362C408.648 248.549 408.951 248.642 409.343 248.642ZM416.16 250L413.864 242.328H416.174L417.812 248.138H418.134L419.548 242.328H421.704L419.716 250H416.16ZM425.104 250.196C424.274 250.196 423.602 249.981 423.088 249.552C422.584 249.123 422.332 248.516 422.332 247.732C422.332 247.172 422.477 246.715 422.766 246.36C423.056 245.996 423.462 245.73 423.984 245.562C424.507 245.385 425.109 245.296 425.79 245.296H427.176V245.268C427.176 244.484 426.784 244.092 426 244.092C425.795 244.092 425.524 244.101 425.188 244.12C424.852 244.129 424.502 244.143 424.138 244.162C423.784 244.171 423.466 244.185 423.186 244.204V242.314C423.513 242.286 423.914 242.263 424.39 242.244C424.866 242.216 425.305 242.202 425.706 242.202C426.882 242.202 427.778 242.454 428.394 242.958C429.02 243.453 429.332 244.232 429.332 245.296V250H427.554V248.558C427.386 249.09 427.097 249.496 426.686 249.776C426.276 250.056 425.748 250.196 425.104 250.196ZM425.776 248.642C426.14 248.642 426.458 248.539 426.728 248.334C426.999 248.129 427.148 247.737 427.176 247.158V246.542H425.776C425.384 246.542 425.081 246.64 424.866 246.836C424.661 247.032 424.558 247.289 424.558 247.606C424.558 247.914 424.661 248.166 424.866 248.362C425.081 248.549 425.384 248.642 425.776 248.642ZM432.465 241.572C432.045 241.572 431.732 241.465 431.527 241.25C431.331 241.026 431.233 240.746 431.233 240.41C431.233 240.065 431.331 239.785 431.527 239.57C431.732 239.346 432.045 239.234 432.465 239.234C432.885 239.234 433.193 239.346 433.389 239.57C433.594 239.785 433.697 240.065 433.697 240.41C433.697 240.746 433.594 241.026 433.389 241.25C433.193 241.465 432.885 241.572 432.465 241.572ZM431.597 250V243.98H430.575V242.328H433.837V250H431.597ZM436.007 250V241.432H435.097V239.78H438.261V250H436.007ZM442.509 250.196C441.678 250.196 441.006 249.981 440.493 249.552C439.989 249.123 439.737 248.516 439.737 247.732C439.737 247.172 439.881 246.715 440.171 246.36C440.46 245.996 440.866 245.73 441.389 245.562C441.911 245.385 442.513 245.296 443.195 245.296H444.581V245.268C444.581 244.484 444.189 244.092 443.405 244.092C443.199 244.092 442.929 244.101 442.593 244.12C442.257 244.129 441.907 244.143 441.543 244.162C441.188 244.171 440.871 244.185 440.591 244.204V242.314C440.917 242.286 441.319 242.263 441.795 242.244C442.271 242.216 442.709 242.202 443.111 242.202C444.287 242.202 445.183 242.454 445.799 242.958C446.424 243.453 446.737 244.232 446.737 245.296V250H444.959V248.558C444.791 249.09 444.501 249.496 444.091 249.776C443.68 250.056 443.153 250.196 442.509 250.196ZM443.181 248.642C443.545 248.642 443.862 248.539 444.133 248.334C444.403 248.129 444.553 247.737 444.581 247.158V246.542H443.181C442.789 246.542 442.485 246.64 442.271 246.836C442.065 247.032 441.963 247.289 441.963 247.606C441.963 247.914 442.065 248.166 442.271 248.362C442.485 248.549 442.789 248.642 443.181 248.642ZM453.355 250.252C452.646 250.252 452.035 250.084 451.521 249.748C451.008 249.412 450.639 248.927 450.415 248.292V250H448.637V239.78H450.877V243.546C451.148 243.07 451.507 242.711 451.955 242.468C452.403 242.225 452.912 242.104 453.481 242.104C454.181 242.104 454.788 242.277 455.301 242.622C455.815 242.958 456.211 243.42 456.491 244.008C456.781 244.587 456.925 245.249 456.925 245.996V246.304C456.925 247.051 456.781 247.723 456.491 248.32C456.202 248.908 455.791 249.379 455.259 249.734C454.727 250.079 454.093 250.252 453.355 250.252ZM452.767 248.376C453.337 248.376 453.794 248.171 454.139 247.76C454.494 247.34 454.671 246.803 454.671 246.15C454.671 245.497 454.494 244.969 454.139 244.568C453.794 244.167 453.337 243.966 452.767 243.966C452.422 243.966 452.1 244.045 451.801 244.204C451.512 244.363 451.274 244.591 451.087 244.89C450.91 245.189 450.821 245.543 450.821 245.954V246.472C450.821 246.873 450.915 247.219 451.101 247.508C451.297 247.788 451.545 248.003 451.843 248.152C452.142 248.301 452.45 248.376 452.767 248.376ZM458.579 250V241.432H457.669V239.78H460.833V250H458.579ZM466.411 250.266C465.758 250.266 465.179 250.154 464.675 249.93C464.18 249.706 463.765 249.407 463.429 249.034C463.093 248.651 462.841 248.227 462.673 247.76C462.505 247.284 462.421 246.799 462.421 246.304V246.024C462.421 245.52 462.505 245.03 462.673 244.554C462.841 244.078 463.093 243.653 463.429 243.28C463.765 242.907 464.171 242.613 464.647 242.398C465.132 242.174 465.692 242.062 466.327 242.062C467.148 242.062 467.839 242.249 468.399 242.622C468.968 242.986 469.402 243.467 469.701 244.064C470 244.661 470.149 245.305 470.149 245.996V246.752H464.535C464.61 247.275 464.796 247.69 465.095 247.998C465.403 248.297 465.842 248.446 466.411 248.446C466.812 248.446 467.144 248.371 467.405 248.222C467.676 248.063 467.858 247.863 467.951 247.62H470.009C469.841 248.404 469.435 249.043 468.791 249.538C468.156 250.023 467.363 250.266 466.411 250.266ZM466.327 243.882C465.842 243.882 465.445 244.022 465.137 244.302C464.838 244.573 464.647 244.965 464.563 245.478H468.007C467.932 244.965 467.75 244.573 467.461 244.302C467.181 244.022 466.803 243.882 466.327 243.882Z" fill="#A878D8"/>
</g>
<defs>
<clipPath id="clip0_2_3218">
<rect width="550.71" height="567.986" fill="white"/>
</clipPath>
</defs>
</svg>
