<svg width="551" height="568" viewBox="0 0 551 568" fill="none" xmlns="http://www.w3.org/2000/svg">
<g clip-path="url(#clip0_2_3218)">
<path d="M386.602 567.986H235.877C234.124 567.984 232.445 567.287 231.206 566.048C229.967 564.809 229.27 563.13 229.268 561.377V455.998C229.27 454.246 229.967 452.566 231.206 451.327C232.445 450.088 234.124 449.391 235.877 449.389H386.602C388.354 449.391 390.034 450.088 391.273 451.327C392.511 452.566 393.208 454.246 393.21 455.998V561.377C393.208 563.129 392.511 564.809 391.273 566.048C390.034 567.287 388.354 567.984 386.602 567.986Z" fill="#F2F2F2"/>
<path d="M140.287 293.286C141.297 291.993 142.012 290.494 142.38 288.894C142.749 287.295 142.762 285.634 142.42 284.029C142.077 282.424 141.386 280.914 140.397 279.604C139.407 278.295 138.142 277.219 136.692 276.451L135.742 175.638L116.9 184.285L121.044 281.786C119.916 284.308 119.752 287.157 120.584 289.792C121.416 292.427 123.185 294.665 125.557 296.083C127.929 297.5 130.739 297.999 133.454 297.483C136.168 296.968 138.6 295.474 140.287 293.286Z" fill="#9E616A"/>
<path d="M139.779 150.114C139.779 150.114 121.45 141.223 118.915 157.998C116.38 174.773 105.954 218.431 105.954 218.431L137.593 216.194L139.779 150.114Z" fill="#9E616A"/>
<path d="M140.287 293.286C141.297 291.993 142.012 290.494 142.38 288.894C142.749 287.295 142.762 285.634 142.42 284.029C142.077 282.424 141.386 280.914 140.397 279.604C139.407 278.295 138.142 277.219 136.692 276.451L135.742 175.638L116.9 184.285L121.044 281.786C119.916 284.308 119.752 287.157 120.584 289.792C121.416 292.427 123.185 294.665 125.557 296.083C127.929 297.5 130.739 297.999 133.454 297.483C136.168 296.968 138.6 295.474 140.287 293.286Z" fill="#9E616A"/>
<path d="M139.779 150.114C139.779 150.114 121.45 141.223 118.915 157.998C116.38 174.773 105.954 218.431 105.954 218.431L137.593 216.194L139.779 150.114Z" fill="#C587EC"/>
<path d="M86.7078 538.459C85.9678 538.493 85.2351 538.299 84.6091 537.903C83.9832 537.506 83.4942 536.927 83.2084 536.244C82.9226 535.56 82.8538 534.805 83.0113 534.081C83.1689 533.357 83.5452 532.699 84.0892 532.197C84.1803 531.834 84.2457 531.574 84.3368 531.212C84.3042 531.133 84.2714 531.055 84.2384 530.976C83.4928 529.215 82.2435 527.713 80.6473 526.66C79.0512 525.607 77.1794 525.049 75.267 525.056C73.3547 525.063 71.4871 525.635 69.8988 526.7C68.3105 527.765 67.0724 529.276 66.3399 531.042C63.4125 538.093 59.6854 545.156 58.7677 552.61C58.3636 555.905 58.5341 559.246 59.2716 562.483C52.396 547.484 48.8257 531.183 48.8027 514.684C48.8013 510.543 49.0313 506.406 49.4917 502.292C49.8722 498.919 50.4002 495.569 51.0755 492.244C54.7607 474.203 62.6729 457.293 74.1625 442.903C79.7234 439.869 84.2206 435.203 87.048 429.534C88.0723 427.496 88.7963 425.321 89.1974 423.076C88.5701 423.158 87.9325 423.209 87.3052 423.251C87.1098 423.261 86.9041 423.271 86.7087 423.281L86.635 423.285C85.9456 423.316 85.2619 423.147 84.6663 422.798C84.0706 422.449 83.5885 421.936 83.2778 421.32C82.9672 420.704 82.8413 420.011 82.9153 419.325C82.9893 418.638 83.26 417.988 83.6949 417.452C83.9657 417.119 84.2368 416.786 84.5079 416.453C84.9193 415.939 85.341 415.435 85.7523 414.921C85.7998 414.872 85.8444 414.82 85.886 414.766C86.3591 414.18 86.8321 413.604 87.3052 413.018C86.4417 411.678 85.2803 410.555 83.9115 409.738C79.1707 406.961 72.6302 408.884 69.2057 413.172C65.7709 417.461 65.1231 423.477 66.3159 428.835C67.489 433.394 69.4295 437.72 72.0543 441.628C71.7972 441.957 71.5298 442.276 71.2727 442.605C66.573 448.648 62.4768 455.137 59.043 461.979C59.8781 454.314 58.8814 446.56 56.135 439.355C53.3515 432.64 48.1343 426.985 43.54 421.18C38.0214 414.207 26.7051 417.25 25.7329 426.089C25.7234 426.175 25.7143 426.26 25.7053 426.346C26.3877 426.731 27.0557 427.14 27.7093 427.572C28.5304 428.12 29.1666 428.904 29.5346 429.821C29.9026 430.737 29.9852 431.743 29.7716 432.707C29.558 433.671 29.0582 434.548 28.3376 435.223C27.617 435.899 26.7092 436.34 25.7333 436.491L25.6333 436.506C25.8764 438.966 26.3062 441.403 26.9188 443.798C28.694 450.482 31.8309 456.727 36.1328 462.142C40.4348 467.557 45.8091 472.025 51.9187 475.266C52.3198 475.472 52.7106 475.677 53.1117 475.873C49.6617 485.65 47.4977 495.834 46.674 506.169C46.2077 512.266 46.2352 518.391 46.7563 524.484L46.7254 524.268C45.409 517.493 41.7947 511.38 36.493 506.96C28.6186 500.492 17.4936 498.11 8.99854 492.911C8.09572 492.331 7.04597 492.022 5.97309 492.019C4.90021 492.016 3.84894 492.32 2.9433 492.896C2.03767 493.471 1.31543 494.293 0.861761 495.265C0.408091 496.238 0.241923 497.319 0.382849 498.383C0.394242 498.459 0.405811 498.534 0.417578 498.61C1.68394 499.126 2.91693 499.72 4.10941 500.389C4.79182 500.774 5.45982 501.183 6.11341 501.615C6.93449 502.164 7.57073 502.947 7.93873 503.864C8.30672 504.78 8.38932 505.786 8.17573 506.75C7.96213 507.714 7.4623 508.591 6.74171 509.267C6.02111 509.942 5.11338 510.384 4.13743 510.534L4.03742 510.549C3.96542 510.56 3.90373 510.57 3.83185 510.58C5.9956 515.747 9.03248 520.502 12.8095 524.638C17.4754 529.645 23.1148 533.646 29.3818 536.396C35.6489 539.145 42.4115 540.586 49.2552 540.63H49.2655C51.1233 548.702 53.8149 556.56 57.2972 564.077H85.9889C86.0918 563.758 86.1843 563.429 86.2769 563.11C83.6211 563.277 80.9549 563.118 78.3377 562.637C80.4665 560.025 82.5952 557.392 84.7239 554.78C84.7714 554.731 84.8161 554.68 84.8576 554.626C85.9374 553.289 87.0275 551.962 88.1073 550.625L88.1079 550.624C88.1655 546.526 87.6952 542.438 86.7087 538.46L86.7078 538.459Z" fill="#F2F2F2"/>
<path d="M509.708 538.459C508.968 538.493 508.235 538.299 507.609 537.903C506.983 537.506 506.494 536.927 506.208 536.244C505.923 535.56 505.854 534.805 506.011 534.081C506.169 533.357 506.545 532.699 507.089 532.197C507.18 531.834 507.246 531.574 507.337 531.212C507.304 531.133 507.271 531.055 507.238 530.976C506.493 529.215 505.243 527.713 503.647 526.66C502.051 525.607 500.179 525.049 498.267 525.056C496.355 525.063 494.487 525.635 492.899 526.7C491.31 527.765 490.072 529.276 489.34 531.042C486.412 538.093 482.685 545.156 481.768 552.61C481.364 555.905 481.534 559.246 482.272 562.483C475.396 547.484 471.826 531.183 471.803 514.684C471.801 510.543 472.031 506.406 472.492 502.292C472.872 498.919 473.4 495.569 474.075 492.244C477.761 474.203 485.673 457.293 497.162 442.903C502.723 439.869 507.221 435.203 510.048 429.534C511.072 427.496 511.796 425.321 512.197 423.076C511.57 423.158 510.932 423.209 510.305 423.251C510.11 423.261 509.904 423.271 509.709 423.281L509.635 423.285C508.946 423.316 508.262 423.147 507.666 422.798C507.071 422.449 506.588 421.936 506.278 421.32C505.967 420.704 505.841 420.011 505.915 419.325C505.989 418.638 506.26 417.988 506.695 417.452C506.966 417.119 507.237 416.786 507.508 416.453C507.919 415.939 508.341 415.435 508.752 414.921C508.8 414.872 508.844 414.82 508.886 414.766C509.359 414.18 509.832 413.604 510.305 413.018C509.442 411.678 508.28 410.555 506.911 409.738C502.171 406.961 495.63 408.884 492.206 413.172C488.771 417.461 488.123 423.477 489.316 428.835C490.489 433.394 492.429 437.72 495.054 441.628C494.797 441.957 494.53 442.276 494.273 442.605C489.573 448.648 485.477 455.137 482.043 461.979C482.878 454.314 481.881 446.56 479.135 439.355C476.351 432.64 471.134 426.985 466.54 421.18C461.021 414.207 449.705 417.25 448.733 426.089C448.723 426.175 448.714 426.26 448.705 426.346C449.388 426.731 450.056 427.14 450.709 427.572C451.53 428.12 452.166 428.904 452.534 429.821C452.902 430.737 452.985 431.743 452.771 432.707C452.558 433.671 452.058 434.548 451.337 435.223C450.617 435.899 449.709 436.34 448.733 436.491L448.633 436.506C448.876 438.966 449.306 441.403 449.919 443.798C451.694 450.482 454.831 456.727 459.133 462.142C463.435 467.557 468.809 472.025 474.919 475.266C475.32 475.472 475.711 475.677 476.112 475.873C472.662 485.65 470.498 495.834 469.674 506.169C469.208 512.266 469.235 518.391 469.756 524.484L469.725 524.268C468.409 517.493 464.795 511.38 459.493 506.96C451.619 500.492 440.494 498.11 431.999 492.911C431.096 492.331 430.046 492.022 428.973 492.019C427.9 492.016 426.849 492.32 425.943 492.896C425.038 493.471 424.315 494.293 423.862 495.265C423.408 496.238 423.242 497.319 423.383 498.383C423.394 498.459 423.406 498.534 423.418 498.61C424.684 499.126 425.917 499.72 427.109 500.389C427.792 500.774 428.46 501.183 429.113 501.615C429.934 502.164 430.571 502.947 430.939 503.864C431.307 504.78 431.389 505.786 431.176 506.75C430.962 507.714 430.462 508.591 429.742 509.267C429.021 509.942 428.113 510.384 427.137 510.534L427.037 510.549C426.965 510.56 426.904 510.57 426.832 510.58C428.996 515.747 432.032 520.502 435.81 524.638C440.475 529.645 446.115 533.646 452.382 536.396C458.649 539.145 465.412 540.586 472.255 540.63H472.266C474.123 548.702 476.815 556.56 480.297 564.077H508.989C509.092 563.758 509.184 563.429 509.277 563.11C506.621 563.277 503.955 563.118 501.338 562.637C503.466 560.025 505.595 557.392 507.724 554.78C507.771 554.731 507.816 554.68 507.858 554.626C508.937 553.289 510.027 551.962 511.107 550.625L511.108 550.624C511.165 546.526 510.695 542.438 509.709 538.46L509.708 538.459Z" fill="#F2F2F2"/>
<path d="M399.22 563.889C399.137 563.889 399.055 563.887 398.972 563.885C396.873 563.765 394.9 562.84 393.465 561.302C392.031 559.765 391.244 557.733 391.27 555.63C391.27 542.835 382.13 535.372 373.073 533.651C364.015 531.931 352.775 535.522 348.083 547.427L343.818 558.134C340.13 561.813 335.134 563.879 329.925 563.879C324.716 563.879 319.719 561.813 316.032 558.134L315.779 557.882L315.936 557.561L391.27 403.427V399.65C391.166 398.485 391.166 397.314 391.272 396.15L391.27 7.94662C391.27 6.88252 391.484 5.82926 391.898 4.8493C392.313 3.86935 392.92 2.98266 393.684 2.24187C394.448 1.50107 395.353 0.921247 396.345 0.536787C397.337 0.152328 398.397 -0.028944 399.46 0.00375196C401.56 0.123758 403.532 1.04884 404.967 2.58645C406.402 4.12407 407.188 6.15575 407.163 8.25863V396.195C407.267 397.359 407.267 398.53 407.161 399.695L407.163 403.426L482.654 557.882L482.401 558.134C478.714 561.813 473.717 563.879 468.508 563.879C463.299 563.879 458.302 561.813 454.615 558.134L454.503 557.964L450.35 547.427C445.658 535.523 434.419 531.934 425.36 533.651C416.303 535.371 407.163 542.835 407.163 555.63V555.943C407.163 558.05 406.326 560.07 404.837 561.56C403.347 563.051 401.327 563.888 399.22 563.889L399.22 563.889Z" fill="#E6E6E6"/>
<path d="M549.896 281.013H274.093C270.887 281.009 267.813 279.734 265.546 277.467C263.279 275.2 262.004 272.127 262 268.921V76.0926C262.004 72.8866 263.279 69.8128 265.546 67.5458C267.813 65.2788 270.887 64.0036 274.093 64H549.896C553.102 64.0037 556.175 65.2789 558.442 67.546C560.709 69.813 561.985 72.8867 561.988 76.0927V268.921C561.984 272.127 560.709 275.2 558.442 277.467C556.175 279.734 553.102 281.009 549.896 281.013Z" fill="white"/>
<path d="M537.396 282.486H261.593C257.989 282.482 254.534 281.049 251.986 278.5C249.438 275.952 248.004 272.498 248 268.894V76.0654C248.004 72.4616 249.438 69.0067 251.986 66.4586C254.534 63.9104 257.989 62.4771 261.593 62.4731H537.396C541 62.4772 544.454 63.9106 547.003 66.4587C549.551 69.0069 550.984 72.4617 550.988 76.0654V268.894C550.984 272.498 549.551 275.952 547.003 278.5C544.454 281.048 541 282.482 537.396 282.486ZM261.593 65.4731C258.784 65.4762 256.092 66.5931 254.106 68.5789C252.12 70.5646 251.003 73.257 251 76.0654V268.894C251.003 271.702 252.121 274.394 254.106 276.38C256.092 278.366 258.785 279.483 261.593 279.486H537.396C540.204 279.483 542.897 278.366 544.882 276.38C546.868 274.394 547.985 271.702 547.988 268.894V76.0654C547.985 73.2571 546.868 70.5647 544.882 68.5789C542.897 66.5932 540.204 65.4762 537.396 65.4731H261.593Z" fill="#F2F2F2"/>
<path d="M439.995 76.0292H358.438C353.267 76.0234 348.31 73.9668 344.654 70.3105C340.997 66.6543 338.941 61.6971 338.935 56.5264V56.1718H459.498V56.5264C459.492 61.6971 457.435 66.6543 453.779 70.3105C450.123 73.9668 445.166 76.0234 439.995 76.0292Z" fill="#E6E6E6"/>
<path d="M440.35 293.042H358.792C353.622 293.036 348.665 290.98 345.008 287.323C341.352 283.667 339.296 278.71 339.29 273.539V273.185H459.852V273.539C459.846 278.71 457.79 283.667 454.134 287.323C450.477 290.98 445.52 293.036 440.35 293.042Z" fill="#E6E6E6"/>
<path d="M549.67 564.882C549.671 565.039 549.64 565.194 549.58 565.338C549.521 565.483 549.433 565.614 549.323 565.725C549.212 565.835 549.081 565.923 548.936 565.983C548.791 566.042 548.636 566.073 548.48 566.072H1.18997C0.874364 566.072 0.57171 565.947 0.348541 565.724C0.125373 565.501 -3.05176e-05 565.198 -3.05176e-05 564.882C-3.05176e-05 564.567 0.125373 564.264 0.348541 564.041C0.57171 563.818 0.874364 563.692 1.18997 563.692H548.48C548.636 563.692 548.791 563.722 548.936 563.782C549.081 563.842 549.212 563.929 549.322 564.04C549.433 564.15 549.521 564.282 549.58 564.426C549.64 564.571 549.671 564.726 549.67 564.882Z" fill="#CCCCCC"/>
<path d="M184.306 537.181H198.722L205.58 481.575L184.303 481.576L184.306 537.181Z" fill="#9E616A"/>
<path d="M179.424 530.07L202.213 528.709V538.473L223.879 553.437C224.949 554.176 225.755 555.237 226.179 556.467C226.603 557.696 226.623 559.029 226.236 560.27C225.849 561.512 225.076 562.597 224.028 563.368C222.98 564.139 221.714 564.554 220.414 564.554H193.282L188.606 554.896L186.78 564.554H176.55L179.424 530.07Z" fill="#2F2E41"/>
<path d="M135.277 227.892L133.865 234.622L132.664 259.447L180.908 252.915L184.613 224.169L179.492 215.755L135.277 227.892Z" fill="#9E616A"/>
<path d="M111.347 537.181H125.763L132.621 481.575L111.344 481.576L111.347 537.181Z" fill="#9E616A"/>
<path d="M103.526 438.941L103.525 438.792L108.922 413.6L112.249 401.059L103 327.63C100.822 274.281 131.772 248.637 132.016 248.385L132.687 247.687L182.323 246.472C209.029 262.473 206.006 349.992 210.896 409.511C211.245 413.755 215.627 420.02 214.55 424.057C206.004 456.084 208.507 490.718 201.997 491.742L182.036 491.465L171.726 444.676L181.243 408.99C177.022 408.212 174.105 387.578 174.105 387.578C172.266 385.394 165.917 366.822 165.917 366.822L157.452 315.412L143.851 403.836L147.126 424.581L144.416 431.713L132.807 490.599L132.684 491.548L110.799 489.363L103.526 438.941Z" fill="#2F2E41"/>
<path d="M106.465 530.07L129.254 528.709V538.473L150.92 553.437C151.991 554.176 152.797 555.237 153.221 556.467C153.645 557.696 153.665 559.029 153.278 560.27C152.891 561.512 152.117 562.597 151.069 563.368C150.022 564.139 148.755 564.554 147.455 564.554H120.324L115.647 554.896L113.821 564.554H103.592L106.465 530.07Z" fill="#2F2E41"/>
<path d="M175.078 130.806L187.246 144.326L201.862 171.874L194.682 205.842L197.821 221.782L202.456 239.304C184.597 249.183 163.382 235.539 143.893 229.479L124.717 237.952L125.731 214.63L126.251 155.869C126.271 153.613 126.754 151.384 127.672 149.322C128.589 147.26 129.92 145.408 131.583 143.882C133.246 142.356 135.204 141.188 137.337 140.45C139.47 139.712 141.732 139.421 143.983 139.594L156.827 130.13L175.078 130.806Z" fill="#C587EC"/>
<path d="M171.67 123.729C185.84 123.729 197.327 112.242 197.327 98.0719C197.327 83.9018 185.84 72.4147 171.67 72.4147C157.5 72.4147 146.013 83.9018 146.013 98.0719C146.013 112.242 157.5 123.729 171.67 123.729Z" fill="#9E616A"/>
<path d="M201.862 88.8125C201.41 91.3265 190.608 92.5398 190.934 88.0671C188.832 92.2781 185.692 98.3891 189.692 105.389C188.125 107.096 187.138 109.254 186.872 111.555C186.606 113.857 187.074 116.183 188.21 118.202C189.348 120.052 190.302 122.01 191.057 124.047C191.21 124.541 191.318 125.048 191.382 125.561C191.447 126.077 191.371 126.601 191.163 127.078C190.956 127.554 190.624 127.967 190.202 128.271C189.78 128.575 189.284 128.76 188.767 128.806C188.249 128.853 187.728 128.759 187.259 128.535C176.378 123.206 157.404 124.109 145.501 127.361C145.58 125.045 145.549 122.735 145.406 120.43C144.971 123.312 143.809 126.036 142.027 128.344C139.989 128.947 137.991 129.573 136.056 130.192C135.761 130.288 135.445 130.301 135.143 130.232C134.841 130.163 134.563 130.012 134.339 129.798C134.115 129.583 133.954 129.311 133.872 129.012C133.791 128.713 133.792 128.397 133.875 128.098C134.252 126.73 134.323 125.294 134.081 123.895C133.59 120.993 132.13 118.368 131.1 115.616C130.069 112.864 129.482 109.7 130.743 107.043C132.701 102.92 138.221 101.659 140.656 97.7967C143.392 93.4589 141.266 87.8046 141.694 82.6895C142.297 75.4571 148.221 69.5808 154.898 66.7417C166.461 61.8249 180.926 65.8067 189.593 74.8949C190.809 74.0739 192.229 73.606 193.694 73.543C195.16 73.48 196.615 73.8244 197.896 74.538C200.458 75.9099 202.298 76.6237 203.448 79.2962C204.455 81.6435 202.322 86.2907 201.862 88.8125Z" fill="#2F2E41"/>
<path d="M190.841 390.533L130.477 330.168C129.776 329.466 129.382 328.514 129.382 327.522C129.382 326.529 129.776 325.577 130.477 324.875L172.68 282.671C173.383 281.97 174.335 281.576 175.327 281.576C176.319 281.576 177.271 281.97 177.974 282.671L238.338 343.036C239.039 343.738 239.433 344.69 239.433 345.682C239.433 346.675 239.039 347.626 238.338 348.329L196.134 390.533C195.432 391.234 194.48 391.627 193.488 391.627C192.495 391.627 191.544 391.234 190.841 390.533Z" fill="white"/>
<path d="M193.488 392.626C192.865 392.628 192.248 392.507 191.672 392.269C191.096 392.031 190.574 391.681 190.134 391.24L129.769 330.875C128.881 329.986 128.382 328.779 128.382 327.522C128.382 326.264 128.881 325.058 129.769 324.168L171.974 281.964C172.864 281.076 174.07 280.577 175.327 280.577C176.585 280.577 177.791 281.076 178.681 281.964L239.045 342.329C239.934 343.218 240.433 344.425 240.433 345.682C240.433 346.94 239.934 348.146 239.045 349.036L196.841 391.24C196.402 391.681 195.879 392.031 195.303 392.269C194.728 392.507 194.111 392.628 193.488 392.626ZM175.327 282.577C174.967 282.575 174.61 282.645 174.277 282.783C173.944 282.921 173.642 283.123 173.388 283.378L131.184 325.582C130.67 326.097 130.382 326.795 130.382 327.522C130.382 328.249 130.67 328.946 131.184 329.461L191.548 389.826C192.071 390.323 192.766 390.601 193.488 390.601C194.21 390.601 194.904 390.323 195.427 389.826L237.631 347.622C238.145 347.107 238.433 346.409 238.433 345.682C238.433 344.955 238.145 344.257 237.631 343.743L177.266 283.378C177.012 283.123 176.71 282.921 176.377 282.783C176.044 282.645 175.687 282.575 175.327 282.577Z" fill="#E6E6E6"/>
<path d="M168.097 288.286C167.086 286.993 166.372 285.494 166.003 283.894C165.635 282.295 165.621 280.634 165.964 279.029C166.307 277.424 166.997 275.914 167.987 274.604C168.977 273.295 170.241 272.219 171.692 271.451L172.642 170.638L191.484 179.285L187.339 276.786C188.468 279.308 188.631 282.157 187.8 284.792C186.968 287.427 185.198 289.665 182.826 291.083C180.454 292.5 177.645 292.999 174.93 292.483C172.215 291.968 169.784 290.474 168.097 288.286Z" fill="#9E616A"/>
<path d="M168.604 145.114C168.604 145.114 186.934 136.223 189.469 152.998C192.003 169.773 202.43 213.431 202.43 213.431L170.791 211.194L168.604 145.114Z" fill="#9E616A"/>
<path d="M168.097 288.286C167.086 286.993 166.372 285.494 166.003 283.894C165.635 282.295 165.621 280.634 165.964 279.029C166.307 277.424 166.997 275.914 167.987 274.604C168.977 273.295 170.241 272.219 171.692 271.451L172.642 170.638L191.484 179.285L187.339 276.786C188.468 279.308 188.631 282.157 187.8 284.792C186.968 287.427 185.198 289.665 182.826 291.083C180.454 292.5 177.645 292.999 174.93 292.483C172.215 291.968 169.784 290.474 168.097 288.286Z" fill="#9E616A"/>
<path d="M168.604 145.114C168.604 145.114 186.934 136.223 189.469 152.998C192.003 169.773 202.43 213.431 202.43 213.431L170.791 211.194L168.604 145.114Z" fill="#C587EC"/>
<path d="M332.296 177L350.728 135.168L349.936 134.088H333.952V142.584H324.376V124.44H364.192V131.928L344.824 177H332.296ZM393.238 178.368C389.062 178.368 385.486 177.696 382.51 176.352C379.534 175.008 377.11 173.136 375.238 170.736C373.366 168.336 371.998 165.6 371.134 162.528C370.27 159.456 369.838 156.192 369.838 152.736V148.632C369.838 143.88 370.678 139.56 372.358 135.672C374.038 131.736 376.606 128.616 380.062 126.312C383.518 124.008 387.91 122.856 393.238 122.856C398.566 122.856 402.934 124.008 406.342 126.312C409.798 128.616 412.366 131.736 414.046 135.672C415.726 139.56 416.566 143.88 416.566 148.632V152.736C416.566 156.192 416.11 159.456 415.198 162.528C414.334 165.6 412.966 168.336 411.094 170.736C409.27 173.136 406.87 175.008 403.894 176.352C400.966 177.696 397.414 178.368 393.238 178.368ZM393.238 167.496C397.126 167.496 400.006 166.152 401.878 163.464C403.798 160.728 404.758 156.504 404.758 150.792C404.758 144.744 403.774 140.4 401.806 137.76C399.886 135.072 397.03 133.728 393.238 133.728C389.398 133.728 386.494 135.048 384.526 137.688C382.606 140.328 381.646 144.648 381.646 150.648C381.646 156.456 382.582 160.728 384.454 163.464C386.374 166.152 389.302 167.496 393.238 167.496ZM448.152 178.368C443.976 178.368 440.4 177.696 437.424 176.352C434.448 175.008 432.024 173.136 430.152 170.736C428.28 168.336 426.912 165.6 426.048 162.528C425.184 159.456 424.752 156.192 424.752 152.736V148.632C424.752 143.88 425.592 139.56 427.272 135.672C428.952 131.736 431.52 128.616 434.976 126.312C438.432 124.008 442.824 122.856 448.152 122.856C453.48 122.856 457.848 124.008 461.256 126.312C464.712 128.616 467.28 131.736 468.96 135.672C470.64 139.56 471.48 143.88 471.48 148.632V152.736C471.48 156.192 471.024 159.456 470.112 162.528C469.248 165.6 467.88 168.336 466.008 170.736C464.184 173.136 461.784 175.008 458.808 176.352C455.88 177.696 452.328 178.368 448.152 178.368ZM448.152 167.496C452.04 167.496 454.92 166.152 456.792 163.464C458.712 160.728 459.672 156.504 459.672 150.792C459.672 144.744 458.688 140.4 456.72 137.76C454.8 135.072 451.944 133.728 448.152 133.728C444.312 133.728 441.408 135.048 439.44 137.688C437.52 140.328 436.56 144.648 436.56 150.648C436.56 156.456 437.496 160.728 439.368 163.464C441.288 166.152 444.216 167.496 448.152 167.496Z" fill="#A878D8"/>
<path d="M370.048 232.266C369.124 232.266 368.317 232.107 367.626 231.79C366.945 231.463 366.38 231.039 365.932 230.516C365.484 229.984 365.148 229.415 364.924 228.808C364.709 228.192 364.602 227.595 364.602 227.016V226.708C364.602 226.073 364.714 225.448 364.938 224.832C365.171 224.216 365.517 223.656 365.974 223.152C366.431 222.639 367.001 222.233 367.682 221.934C368.363 221.626 369.152 221.472 370.048 221.472C370.944 221.472 371.733 221.626 372.414 221.934C373.095 222.233 373.665 222.639 374.122 223.152C374.579 223.656 374.925 224.216 375.158 224.832C375.391 225.448 375.508 226.073 375.508 226.708V227.016C375.508 227.595 375.396 228.192 375.172 228.808C374.948 229.415 374.612 229.984 374.164 230.516C373.716 231.039 373.147 231.463 372.456 231.79C371.775 232.107 370.972 232.266 370.048 232.266ZM370.048 230.124C370.692 230.124 371.247 229.979 371.714 229.69C372.19 229.401 372.554 229.009 372.806 228.514C373.058 228.019 373.184 227.473 373.184 226.876C373.184 226.241 373.053 225.681 372.792 225.196C372.54 224.701 372.181 224.314 371.714 224.034C371.247 223.754 370.692 223.614 370.048 223.614C369.404 223.614 368.849 223.754 368.382 224.034C367.915 224.314 367.556 224.701 367.304 225.196C367.052 225.681 366.926 226.241 366.926 226.876C366.926 227.473 367.052 228.019 367.304 228.514C367.556 229.009 367.915 229.401 368.382 229.69C368.849 229.979 369.404 230.124 370.048 230.124ZM380.86 232.266C379.964 232.266 379.198 232.084 378.564 231.72C377.938 231.356 377.462 230.88 377.136 230.292C376.809 229.695 376.646 229.046 376.646 228.346V228.024C376.646 227.305 376.814 226.647 377.15 226.05C377.495 225.443 377.98 224.963 378.606 224.608C379.24 224.244 379.992 224.062 380.86 224.062C381.728 224.062 382.479 224.244 383.114 224.608C383.748 224.963 384.234 225.443 384.57 226.05C384.915 226.647 385.088 227.305 385.088 228.024V228.346C385.088 229.046 384.92 229.695 384.584 230.292C384.257 230.88 383.781 231.356 383.156 231.72C382.53 232.084 381.765 232.266 380.86 232.266ZM380.86 230.376C381.504 230.376 381.994 230.171 382.33 229.76C382.675 229.34 382.848 228.817 382.848 228.192C382.848 227.548 382.67 227.016 382.316 226.596C381.97 226.167 381.485 225.952 380.86 225.952C380.234 225.952 379.749 226.167 379.404 226.596C379.058 227.016 378.886 227.548 378.886 228.192C378.886 228.817 379.054 229.34 379.39 229.76C379.726 230.171 380.216 230.376 380.86 230.376ZM390.389 232.266C389.493 232.266 388.728 232.084 388.093 231.72C387.468 231.356 386.992 230.88 386.665 230.292C386.338 229.695 386.175 229.046 386.175 228.346V228.024C386.175 227.305 386.343 226.647 386.679 226.05C387.024 225.443 387.51 224.963 388.135 224.608C388.77 224.244 389.521 224.062 390.389 224.062C391.257 224.062 392.008 224.244 392.643 224.608C393.278 224.963 393.763 225.443 394.099 226.05C394.444 226.647 394.617 227.305 394.617 228.024V228.346C394.617 229.046 394.449 229.695 394.113 230.292C393.786 230.88 393.31 231.356 392.685 231.72C392.06 232.084 391.294 232.266 390.389 232.266ZM390.389 230.376C391.033 230.376 391.523 230.171 391.859 229.76C392.204 229.34 392.377 228.817 392.377 228.192C392.377 227.548 392.2 227.016 391.845 226.596C391.5 226.167 391.014 225.952 390.389 225.952C389.764 225.952 389.278 226.167 388.933 226.596C388.588 227.016 388.415 227.548 388.415 228.192C388.415 228.817 388.583 229.34 388.919 229.76C389.255 230.171 389.745 230.376 390.389 230.376ZM399.918 232.266C399.022 232.266 398.257 232.084 397.622 231.72C396.997 231.356 396.521 230.88 396.194 230.292C395.868 229.695 395.704 229.046 395.704 228.346V228.024C395.704 227.305 395.872 226.647 396.208 226.05C396.554 225.443 397.039 224.963 397.664 224.608C398.299 224.244 399.05 224.062 399.918 224.062C400.786 224.062 401.538 224.244 402.172 224.608C402.807 224.963 403.292 225.443 403.628 226.05C403.974 226.647 404.146 227.305 404.146 228.024V228.346C404.146 229.046 403.978 229.695 403.642 230.292C403.316 230.88 402.84 231.356 402.214 231.72C401.589 232.084 400.824 232.266 399.918 232.266ZM399.918 230.376C400.562 230.376 401.052 230.171 401.388 229.76C401.734 229.34 401.906 228.817 401.906 228.192C401.906 227.548 401.729 227.016 401.374 226.596C401.029 226.167 400.544 225.952 399.918 225.952C399.293 225.952 398.808 226.167 398.462 226.596C398.117 227.016 397.944 227.548 397.944 228.192C397.944 228.817 398.112 229.34 398.448 229.76C398.784 230.171 399.274 230.376 399.918 230.376ZM405.71 234.8V224.328H407.488V226.274C407.712 225.565 408.085 225.028 408.608 224.664C409.14 224.291 409.76 224.104 410.47 224.104C411.179 224.104 411.795 224.277 412.318 224.622C412.85 224.958 413.26 225.42 413.55 226.008C413.848 226.596 413.998 227.259 413.998 227.996V228.318C413.998 229.055 413.858 229.723 413.578 230.32C413.298 230.917 412.896 231.389 412.374 231.734C411.851 232.079 411.216 232.252 410.47 232.252C409.947 232.252 409.466 232.154 409.028 231.958C408.589 231.762 408.23 231.463 407.95 231.062V234.8H405.71ZM409.84 230.376C410.409 230.376 410.866 230.171 411.212 229.76C411.566 229.349 411.744 228.813 411.744 228.15C411.744 227.497 411.566 226.969 411.212 226.568C410.866 226.167 410.409 225.966 409.84 225.966C409.494 225.966 409.172 226.045 408.874 226.204C408.584 226.363 408.346 226.591 408.16 226.89C407.982 227.189 407.894 227.543 407.894 227.954V228.472C407.894 228.873 407.987 229.219 408.174 229.508C408.37 229.788 408.617 230.003 408.916 230.152C409.214 230.301 409.522 230.376 409.84 230.376ZM418.465 232.238C417.373 232.238 416.519 232.014 415.903 231.566C415.287 231.118 414.961 230.488 414.923 229.676H416.911C416.939 229.919 417.084 230.138 417.345 230.334C417.607 230.521 417.994 230.614 418.507 230.614C418.89 230.614 419.212 230.549 419.473 230.418C419.735 230.287 419.865 230.091 419.865 229.83C419.865 229.606 419.767 229.429 419.571 229.298C419.375 229.158 419.025 229.06 418.521 229.004L417.919 228.948C416.995 228.845 416.3 228.589 415.833 228.178C415.376 227.767 415.147 227.231 415.147 226.568C415.147 226.027 415.283 225.574 415.553 225.21C415.833 224.846 416.211 224.571 416.687 224.384C417.163 224.197 417.709 224.104 418.325 224.104C419.315 224.104 420.108 224.323 420.705 224.762C421.312 225.191 421.634 225.817 421.671 226.638H419.683C419.646 226.395 419.511 226.185 419.277 226.008C419.053 225.831 418.727 225.742 418.297 225.742C417.952 225.742 417.677 225.807 417.471 225.938C417.266 226.069 417.163 226.246 417.163 226.47C417.163 226.685 417.252 226.848 417.429 226.96C417.607 227.072 417.896 227.151 418.297 227.198L418.899 227.254C419.833 227.357 420.561 227.623 421.083 228.052C421.615 228.472 421.881 229.032 421.881 229.732C421.881 230.507 421.573 231.118 420.957 231.566C420.341 232.014 419.511 232.238 418.465 232.238ZM422.873 232V229.494H425.337V232H422.873ZM426.701 232V229.494H429.165V232H426.701ZM430.529 232V229.494H432.993V232H430.529Z" fill="#A878D8"/>
<path d="M292.584 250V246.122H292.08L289.098 239.78H291.45L293.536 244.4H293.984L295.86 239.78H298.086L295.342 246.122H294.838V250H292.584ZM302.182 250.266C301.286 250.266 300.521 250.084 299.886 249.72C299.261 249.356 298.785 248.88 298.458 248.292C298.131 247.695 297.968 247.046 297.968 246.346V246.024C297.968 245.305 298.136 244.647 298.472 244.05C298.817 243.443 299.303 242.963 299.928 242.608C300.563 242.244 301.314 242.062 302.182 242.062C303.05 242.062 303.801 242.244 304.436 242.608C305.071 242.963 305.556 243.443 305.892 244.05C306.237 244.647 306.41 245.305 306.41 246.024V246.346C306.41 247.046 306.242 247.695 305.906 248.292C305.579 248.88 305.103 249.356 304.478 249.72C303.853 250.084 303.087 250.266 302.182 250.266ZM302.182 248.376C302.826 248.376 303.316 248.171 303.652 247.76C303.997 247.34 304.17 246.817 304.17 246.192C304.17 245.548 303.993 245.016 303.638 244.596C303.293 244.167 302.807 243.952 302.182 243.952C301.557 243.952 301.071 244.167 300.726 244.596C300.381 245.016 300.208 245.548 300.208 246.192C300.208 246.817 300.376 247.34 300.712 247.76C301.048 248.171 301.538 248.376 302.182 248.376ZM310.563 250.238C309.677 250.238 308.995 249.953 308.519 249.384C308.043 248.815 307.805 247.947 307.805 246.78V242.328H310.045V246.892C310.045 247.303 310.162 247.629 310.395 247.872C310.629 248.115 310.941 248.236 311.333 248.236C311.735 248.236 312.061 248.11 312.313 247.858C312.565 247.606 312.691 247.265 312.691 246.836V242.328H314.931V250H313.153V248.208C312.836 249.561 312.005 250.238 310.661 250.238H310.563ZM316.997 250V242.328H318.775V244.932C318.859 244.064 319.125 243.397 319.573 242.93C320.03 242.463 320.651 242.23 321.435 242.23H321.729V244.162H321.169C320.543 244.162 320.063 244.33 319.727 244.666C319.4 245.002 319.237 245.478 319.237 246.094V250H316.997ZM325.829 252.8V242.328H327.607V244.274C327.831 243.565 328.204 243.028 328.727 242.664C329.259 242.291 329.879 242.104 330.589 242.104C331.298 242.104 331.914 242.277 332.437 242.622C332.969 242.958 333.379 243.42 333.669 244.008C333.967 244.596 334.117 245.259 334.117 245.996V246.318C334.117 247.055 333.977 247.723 333.697 248.32C333.417 248.917 333.015 249.389 332.493 249.734C331.97 250.079 331.335 250.252 330.589 250.252C330.066 250.252 329.585 250.154 329.147 249.958C328.708 249.762 328.349 249.463 328.069 249.062V252.8H325.829ZM329.959 248.376C330.528 248.376 330.985 248.171 331.331 247.76C331.685 247.349 331.863 246.813 331.863 246.15C331.863 245.497 331.685 244.969 331.331 244.568C330.985 244.167 330.528 243.966 329.959 243.966C329.613 243.966 329.291 244.045 328.993 244.204C328.703 244.363 328.465 244.591 328.279 244.89C328.101 245.189 328.013 245.543 328.013 245.954V246.472C328.013 246.873 328.106 247.219 328.293 247.508C328.489 247.788 328.736 248.003 329.035 248.152C329.333 248.301 329.641 248.376 329.959 248.376ZM335.672 250V242.328H337.45V244.932C337.534 244.064 337.8 243.397 338.248 242.93C338.706 242.463 339.326 242.23 340.11 242.23H340.404V244.162H339.844C339.219 244.162 338.738 244.33 338.402 244.666C338.076 245.002 337.912 245.478 337.912 246.094V250H335.672ZM345.262 250.266C344.366 250.266 343.601 250.084 342.966 249.72C342.341 249.356 341.865 248.88 341.538 248.292C341.211 247.695 341.048 247.046 341.048 246.346V246.024C341.048 245.305 341.216 244.647 341.552 244.05C341.897 243.443 342.383 242.963 343.008 242.608C343.643 242.244 344.394 242.062 345.262 242.062C346.13 242.062 346.881 242.244 347.516 242.608C348.151 242.963 348.636 243.443 348.972 244.05C349.317 244.647 349.49 245.305 349.49 246.024V246.346C349.49 247.046 349.322 247.695 348.986 248.292C348.659 248.88 348.183 249.356 347.558 249.72C346.933 250.084 346.167 250.266 345.262 250.266ZM345.262 248.376C345.906 248.376 346.396 248.171 346.732 247.76C347.077 247.34 347.25 246.817 347.25 246.192C347.25 245.548 347.073 245.016 346.718 244.596C346.373 244.167 345.887 243.952 345.262 243.952C344.637 243.952 344.151 244.167 343.806 244.596C343.461 245.016 343.288 245.548 343.288 246.192C343.288 246.817 343.456 247.34 343.792 247.76C344.128 248.171 344.618 248.376 345.262 248.376ZM354.217 250.252C353.499 250.252 352.864 250.084 352.313 249.748C351.772 249.403 351.347 248.936 351.039 248.348C350.731 247.76 350.577 247.097 350.577 246.36V246.038C350.577 245.301 350.722 244.633 351.011 244.036C351.301 243.439 351.711 242.967 352.243 242.622C352.785 242.277 353.415 242.104 354.133 242.104C355.253 242.104 356.079 242.529 356.611 243.378V239.78H358.865V250H357.087V248.39C356.835 248.997 356.462 249.459 355.967 249.776C355.473 250.093 354.889 250.252 354.217 250.252ZM354.777 248.376C355.291 248.376 355.734 248.203 356.107 247.858C356.481 247.513 356.667 247.023 356.667 246.388V245.87C356.667 245.469 356.579 245.128 356.401 244.848C356.224 244.559 355.991 244.339 355.701 244.19C355.412 244.041 355.099 243.966 354.763 243.966C354.194 243.966 353.727 244.171 353.363 244.582C352.999 244.993 352.817 245.529 352.817 246.192C352.817 246.864 352.999 247.396 353.363 247.788C353.737 248.18 354.208 248.376 354.777 248.376ZM363.487 250.238C362.6 250.238 361.919 249.953 361.443 249.384C360.967 248.815 360.729 247.947 360.729 246.78V242.328H362.969V246.892C362.969 247.303 363.086 247.629 363.319 247.872C363.552 248.115 363.865 248.236 364.257 248.236C364.658 248.236 364.985 248.11 365.237 247.858C365.489 247.606 365.615 247.265 365.615 246.836V242.328H367.855V250H366.077V248.208C365.76 249.561 364.929 250.238 363.585 250.238H363.487ZM373.364 250.266C372.702 250.266 372.123 250.159 371.628 249.944C371.143 249.72 370.737 249.421 370.41 249.048C370.084 248.675 369.841 248.255 369.682 247.788C369.524 247.312 369.444 246.822 369.444 246.318V246.052C369.444 245.352 369.589 244.699 369.878 244.092C370.177 243.485 370.616 242.995 371.194 242.622C371.782 242.249 372.501 242.062 373.35 242.062C374.041 242.062 374.652 242.197 375.184 242.468C375.716 242.729 376.141 243.098 376.458 243.574C376.776 244.05 376.953 244.596 376.99 245.212H374.792C374.755 244.867 374.615 244.577 374.372 244.344C374.13 244.101 373.789 243.98 373.35 243.98C372.781 243.98 372.361 244.185 372.09 244.596C371.82 244.997 371.684 245.529 371.684 246.192C371.684 246.817 371.81 247.335 372.062 247.746C372.324 248.147 372.758 248.348 373.364 248.348C373.812 248.348 374.162 248.231 374.414 247.998C374.666 247.765 374.816 247.457 374.862 247.074H377.046C377.009 247.709 376.827 248.269 376.5 248.754C376.183 249.23 375.749 249.603 375.198 249.874C374.657 250.135 374.046 250.266 373.364 250.266ZM381.965 250.098C381.19 250.098 380.565 250.005 380.089 249.818C379.613 249.622 379.263 249.3 379.039 248.852C378.824 248.395 378.717 247.779 378.717 247.004V243.966H377.555V242.328H378.717V240.256H380.803V242.328H383.043V243.966H380.803V247.088C380.803 247.452 380.896 247.732 381.083 247.928C381.279 248.115 381.554 248.208 381.909 248.208H383.043V250.098H381.965ZM387.489 250V239.78H389.729V243.588C390.139 242.589 390.895 242.09 391.997 242.09H392.095C392.944 242.09 393.593 242.393 394.041 243C394.489 243.597 394.713 244.475 394.713 245.632V250H392.473V245.492C392.473 245.072 392.347 244.736 392.095 244.484C391.852 244.223 391.53 244.092 391.129 244.092C390.709 244.092 390.368 244.232 390.107 244.512C389.855 244.783 389.729 245.137 389.729 245.576V250H387.489ZM398.806 250.196C397.975 250.196 397.303 249.981 396.79 249.552C396.286 249.123 396.034 248.516 396.034 247.732C396.034 247.172 396.178 246.715 396.468 246.36C396.757 245.996 397.163 245.73 397.686 245.562C398.208 245.385 398.81 245.296 399.492 245.296H400.878V245.268C400.878 244.484 400.486 244.092 399.702 244.092C399.496 244.092 399.226 244.101 398.89 244.12C398.554 244.129 398.204 244.143 397.84 244.162C397.485 244.171 397.168 244.185 396.888 244.204V242.314C397.214 242.286 397.616 242.263 398.092 242.244C398.568 242.216 399.006 242.202 399.408 242.202C400.584 242.202 401.48 242.454 402.096 242.958C402.721 243.453 403.034 244.232 403.034 245.296V250H401.256V248.558C401.088 249.09 400.798 249.496 400.388 249.776C399.977 250.056 399.45 250.196 398.806 250.196ZM399.478 248.642C399.842 248.642 400.159 248.539 400.43 248.334C400.7 248.129 400.85 247.737 400.878 247.158V246.542H399.478C399.086 246.542 398.782 246.64 398.568 246.836C398.362 247.032 398.26 247.289 398.26 247.606C398.26 247.914 398.362 248.166 398.568 248.362C398.782 248.549 399.086 248.642 399.478 248.642ZM407.846 250.238C406.754 250.238 405.9 250.014 405.284 249.566C404.668 249.118 404.341 248.488 404.304 247.676H406.292C406.32 247.919 406.465 248.138 406.726 248.334C406.987 248.521 407.375 248.614 407.888 248.614C408.271 248.614 408.593 248.549 408.854 248.418C409.115 248.287 409.246 248.091 409.246 247.83C409.246 247.606 409.148 247.429 408.952 247.298C408.756 247.158 408.406 247.06 407.902 247.004L407.3 246.948C406.376 246.845 405.681 246.589 405.214 246.178C404.757 245.767 404.528 245.231 404.528 244.568C404.528 244.027 404.663 243.574 404.934 243.21C405.214 242.846 405.592 242.571 406.068 242.384C406.544 242.197 407.09 242.104 407.706 242.104C408.695 242.104 409.489 242.323 410.086 242.762C410.693 243.191 411.015 243.817 411.052 244.638H409.064C409.027 244.395 408.891 244.185 408.658 244.008C408.434 243.831 408.107 243.742 407.678 243.742C407.333 243.742 407.057 243.807 406.852 243.938C406.647 244.069 406.544 244.246 406.544 244.47C406.544 244.685 406.633 244.848 406.81 244.96C406.987 245.072 407.277 245.151 407.678 245.198L408.28 245.254C409.213 245.357 409.941 245.623 410.464 246.052C410.996 246.472 411.262 247.032 411.262 247.732C411.262 248.507 410.954 249.118 410.338 249.566C409.722 250.014 408.891 250.238 407.846 250.238ZM420.371 250.252C419.662 250.252 419.05 250.084 418.537 249.748C418.024 249.412 417.655 248.927 417.431 248.292V250H415.653V239.78H417.893V243.546C418.164 243.07 418.523 242.711 418.971 242.468C419.419 242.225 419.928 242.104 420.497 242.104C421.197 242.104 421.804 242.277 422.317 242.622C422.83 242.958 423.227 243.42 423.507 244.008C423.796 244.587 423.941 245.249 423.941 245.996V246.304C423.941 247.051 423.796 247.723 423.507 248.32C423.218 248.908 422.807 249.379 422.275 249.734C421.743 250.079 421.108 250.252 420.371 250.252ZM419.783 248.376C420.352 248.376 420.81 248.171 421.155 247.76C421.51 247.34 421.687 246.803 421.687 246.15C421.687 245.497 421.51 244.969 421.155 244.568C420.81 244.167 420.352 243.966 419.783 243.966C419.438 243.966 419.116 244.045 418.817 244.204C418.528 244.363 418.29 244.591 418.103 244.89C417.926 245.189 417.837 245.543 417.837 245.954V246.472C417.837 246.873 417.93 247.219 418.117 247.508C418.313 247.788 418.56 248.003 418.859 248.152C419.158 248.301 419.466 248.376 419.783 248.376ZM429.011 250.266C428.357 250.266 427.779 250.154 427.275 249.93C426.78 249.706 426.365 249.407 426.029 249.034C425.693 248.651 425.441 248.227 425.273 247.76C425.105 247.284 425.021 246.799 425.021 246.304V246.024C425.021 245.52 425.105 245.03 425.273 244.554C425.441 244.078 425.693 243.653 426.029 243.28C426.365 242.907 426.771 242.613 427.247 242.398C427.732 242.174 428.292 242.062 428.927 242.062C429.748 242.062 430.439 242.249 430.999 242.622C431.568 242.986 432.002 243.467 432.301 244.064C432.599 244.661 432.749 245.305 432.749 245.996V246.752H427.135C427.209 247.275 427.396 247.69 427.695 247.998C428.003 248.297 428.441 248.446 429.011 248.446C429.412 248.446 429.743 248.371 430.005 248.222C430.275 248.063 430.457 247.863 430.551 247.62H432.609C432.441 248.404 432.035 249.043 431.391 249.538C430.756 250.023 429.963 250.266 429.011 250.266ZM428.927 243.882C428.441 243.882 428.045 244.022 427.737 244.302C427.438 244.573 427.247 244.965 427.163 245.478H430.607C430.532 244.965 430.35 244.573 430.061 244.302C429.781 244.022 429.403 243.882 428.927 243.882ZM437.747 250.266C437.094 250.266 436.515 250.154 436.011 249.93C435.516 249.706 435.101 249.407 434.765 249.034C434.429 248.651 434.177 248.227 434.009 247.76C433.841 247.284 433.757 246.799 433.757 246.304V246.024C433.757 245.52 433.841 245.03 434.009 244.554C434.177 244.078 434.429 243.653 434.765 243.28C435.101 242.907 435.507 242.613 435.983 242.398C436.468 242.174 437.028 242.062 437.663 242.062C438.484 242.062 439.175 242.249 439.735 242.622C440.304 242.986 440.738 243.467 441.037 244.064C441.336 244.661 441.485 245.305 441.485 245.996V246.752H435.871C435.946 247.275 436.132 247.69 436.431 247.998C436.739 248.297 437.178 248.446 437.747 248.446C438.148 248.446 438.48 248.371 438.741 248.222C439.012 248.063 439.194 247.863 439.287 247.62H441.345C441.177 248.404 440.771 249.043 440.127 249.538C439.492 250.023 438.699 250.266 437.747 250.266ZM437.663 243.882C437.178 243.882 436.781 244.022 436.473 244.302C436.174 244.573 435.983 244.965 435.899 245.478H439.343C439.268 244.965 439.086 244.573 438.797 244.302C438.517 244.022 438.139 243.882 437.663 243.882ZM442.969 250V242.328H444.747V244.288C445.055 242.823 445.919 242.09 447.337 242.09H447.435C448.322 242.09 449.003 242.384 449.479 242.972C449.955 243.551 450.193 244.433 450.193 245.618V250H447.953V245.492C447.953 245.081 447.832 244.745 447.589 244.484C447.347 244.223 447.02 244.092 446.609 244.092C446.189 244.092 445.849 244.227 445.587 244.498C445.335 244.759 445.209 245.105 445.209 245.534V250H442.969ZM457.954 250.238C456.862 250.238 456.008 250.014 455.392 249.566C454.776 249.118 454.449 248.488 454.412 247.676H456.4C456.428 247.919 456.572 248.138 456.834 248.334C457.095 248.521 457.482 248.614 457.996 248.614C458.378 248.614 458.7 248.549 458.962 248.418C459.223 248.287 459.354 248.091 459.354 247.83C459.354 247.606 459.256 247.429 459.06 247.298C458.864 247.158 458.514 247.06 458.01 247.004L457.408 246.948C456.484 246.845 455.788 246.589 455.322 246.178C454.864 245.767 454.636 245.231 454.636 244.568C454.636 244.027 454.771 243.574 455.042 243.21C455.322 242.846 455.7 242.571 456.176 242.384C456.652 242.197 457.198 242.104 457.814 242.104C458.803 242.104 459.596 242.323 460.194 242.762C460.8 243.191 461.122 243.817 461.16 244.638H459.172C459.134 244.395 458.999 244.185 458.766 244.008C458.542 243.831 458.215 243.742 457.786 243.742C457.44 243.742 457.165 243.807 456.96 243.938C456.754 244.069 456.652 244.246 456.652 244.47C456.652 244.685 456.74 244.848 456.918 244.96C457.095 245.072 457.384 245.151 457.786 245.198L458.388 245.254C459.321 245.357 460.049 245.623 460.572 246.052C461.104 246.472 461.37 247.032 461.37 247.732C461.37 248.507 461.062 249.118 460.446 249.566C459.83 250.014 458.999 250.238 457.954 250.238ZM465.411 250.238C464.524 250.238 463.843 249.953 463.367 249.384C462.891 248.815 462.653 247.947 462.653 246.78V242.328H464.893V246.892C464.893 247.303 465.009 247.629 465.243 247.872C465.476 248.115 465.789 248.236 466.181 248.236C466.582 248.236 466.909 248.11 467.161 247.858C467.413 247.606 467.539 247.265 467.539 246.836V242.328H469.779V250H468.001V248.208C467.683 249.561 466.853 250.238 465.509 250.238H465.411ZM474.756 250.238C473.664 250.238 472.81 250.014 472.194 249.566C471.578 249.118 471.252 248.488 471.214 247.676H473.202C473.23 247.919 473.375 248.138 473.636 248.334C473.898 248.521 474.285 248.614 474.798 248.614C475.181 248.614 475.503 248.549 475.764 248.418C476.026 248.287 476.156 248.091 476.156 247.83C476.156 247.606 476.058 247.429 475.862 247.298C475.666 247.158 475.316 247.06 474.812 247.004L474.21 246.948C473.286 246.845 472.591 246.589 472.124 246.178C471.667 245.767 471.438 245.231 471.438 244.568C471.438 244.027 471.574 243.574 471.844 243.21C472.124 242.846 472.502 242.571 472.978 242.384C473.454 242.197 474 242.104 474.616 242.104C475.606 242.104 476.399 242.323 476.996 242.762C477.603 243.191 477.925 243.817 477.962 244.638H475.974C475.937 244.395 475.802 244.185 475.568 244.008C475.344 243.831 475.018 243.742 474.588 243.742C474.243 243.742 473.968 243.807 473.762 243.938C473.557 244.069 473.454 244.246 473.454 244.47C473.454 244.685 473.543 244.848 473.72 244.96C473.898 245.072 474.187 245.151 474.588 245.198L475.19 245.254C476.124 245.357 476.852 245.623 477.374 246.052C477.906 246.472 478.172 247.032 478.172 247.732C478.172 248.507 477.864 249.118 477.248 249.566C476.632 250.014 475.802 250.238 474.756 250.238ZM479.624 252.8V242.328H481.402V244.274C481.626 243.565 481.999 243.028 482.522 242.664C483.054 242.291 483.674 242.104 484.384 242.104C485.093 242.104 485.709 242.277 486.232 242.622C486.764 242.958 487.174 243.42 487.464 244.008C487.762 244.596 487.912 245.259 487.912 245.996V246.318C487.912 247.055 487.772 247.723 487.492 248.32C487.212 248.917 486.81 249.389 486.288 249.734C485.765 250.079 485.13 250.252 484.384 250.252C483.861 250.252 483.38 250.154 482.942 249.958C482.503 249.762 482.144 249.463 481.864 249.062V252.8H479.624ZM483.754 248.376C484.323 248.376 484.78 248.171 485.126 247.76C485.48 247.349 485.658 246.813 485.658 246.15C485.658 245.497 485.48 244.969 485.126 244.568C484.78 244.167 484.323 243.966 483.754 243.966C483.408 243.966 483.086 244.045 482.788 244.204C482.498 244.363 482.26 244.591 482.074 244.89C481.896 245.189 481.808 245.543 481.808 245.954V246.472C481.808 246.873 481.901 247.219 482.088 247.508C482.284 247.788 482.531 248.003 482.83 248.152C483.128 248.301 483.436 248.376 483.754 248.376ZM492.981 250.266C492.328 250.266 491.749 250.154 491.245 249.93C490.751 249.706 490.335 249.407 489.999 249.034C489.663 248.651 489.411 248.227 489.243 247.76C489.075 247.284 488.991 246.799 488.991 246.304V246.024C488.991 245.52 489.075 245.03 489.243 244.554C489.411 244.078 489.663 243.653 489.999 243.28C490.335 242.907 490.741 242.613 491.217 242.398C491.703 242.174 492.263 242.062 492.897 242.062C493.719 242.062 494.409 242.249 494.969 242.622C495.539 242.986 495.973 243.467 496.271 244.064C496.57 244.661 496.719 245.305 496.719 245.996V246.752H491.105C491.18 247.275 491.367 247.69 491.665 247.998C491.973 248.297 492.412 248.446 492.981 248.446C493.383 248.446 493.714 248.371 493.975 248.222C494.246 248.063 494.428 247.863 494.521 247.62H496.579C496.411 248.404 496.005 249.043 495.361 249.538C494.727 250.023 493.933 250.266 492.981 250.266ZM492.897 243.882C492.412 243.882 492.015 244.022 491.707 244.302C491.409 244.573 491.217 244.965 491.133 245.478H494.577C494.503 244.965 494.321 244.573 494.031 244.302C493.751 244.022 493.373 243.882 492.897 243.882ZM498.204 250V242.328H499.982V244.288C500.29 242.823 501.153 242.09 502.572 242.09H502.67C503.556 242.09 504.238 242.384 504.714 242.972C505.19 243.551 505.428 244.433 505.428 245.618V250H503.188V245.492C503.188 245.081 503.066 244.745 502.824 244.484C502.581 244.223 502.254 244.092 501.844 244.092C501.424 244.092 501.083 244.227 500.822 244.498C500.57 244.759 500.444 245.105 500.444 245.534V250H498.204ZM510.5 250.252C509.782 250.252 509.147 250.084 508.596 249.748C508.055 249.403 507.63 248.936 507.322 248.348C507.014 247.76 506.86 247.097 506.86 246.36V246.038C506.86 245.301 507.005 244.633 507.294 244.036C507.584 243.439 507.994 242.967 508.526 242.622C509.068 242.277 509.698 242.104 510.416 242.104C511.536 242.104 512.362 242.529 512.894 243.378V239.78H515.148V250H513.37V248.39C513.118 248.997 512.745 249.459 512.25 249.776C511.756 250.093 511.172 250.252 510.5 250.252ZM511.06 248.376C511.574 248.376 512.017 248.203 512.39 247.858C512.764 247.513 512.95 247.023 512.95 246.388V245.87C512.95 245.469 512.862 245.128 512.684 244.848C512.507 244.559 512.274 244.339 511.984 244.19C511.695 244.041 511.382 243.966 511.046 243.966C510.477 243.966 510.01 244.171 509.646 244.582C509.282 244.993 509.1 245.529 509.1 246.192C509.1 246.864 509.282 247.396 509.646 247.788C510.02 248.18 510.491 248.376 511.06 248.376ZM520.694 250.266C520.041 250.266 519.462 250.154 518.958 249.93C518.464 249.706 518.048 249.407 517.712 249.034C517.376 248.651 517.124 248.227 516.956 247.76C516.788 247.284 516.704 246.799 516.704 246.304V246.024C516.704 245.52 516.788 245.03 516.956 244.554C517.124 244.078 517.376 243.653 517.712 243.28C518.048 242.907 518.454 242.613 518.93 242.398C519.416 242.174 519.976 242.062 520.61 242.062C521.432 242.062 522.122 242.249 522.682 242.622C523.252 242.986 523.686 243.467 523.984 244.064C524.283 244.661 524.432 245.305 524.432 245.996V246.752H518.818C518.893 247.275 519.08 247.69 519.378 247.998C519.686 248.297 520.125 248.446 520.694 248.446C521.096 248.446 521.427 248.371 521.688 248.222C521.959 248.063 522.141 247.863 522.234 247.62H524.292C524.124 248.404 523.718 249.043 523.074 249.538C522.44 250.023 521.646 250.266 520.694 250.266ZM520.61 243.882C520.125 243.882 519.728 244.022 519.42 244.302C519.122 244.573 518.93 244.965 518.846 245.478H522.29C522.216 244.965 522.034 244.573 521.744 244.302C521.464 244.022 521.086 243.882 520.61 243.882ZM529.081 250.252C528.362 250.252 527.727 250.084 527.177 249.748C526.635 249.403 526.211 248.936 525.903 248.348C525.595 247.76 525.441 247.097 525.441 246.36V246.038C525.441 245.301 525.585 244.633 525.875 244.036C526.164 243.439 526.575 242.967 527.107 242.622C527.648 242.277 528.278 242.104 528.997 242.104C530.117 242.104 530.943 242.529 531.475 243.378V239.78H533.729V250H531.951V248.39C531.699 248.997 531.325 249.459 530.831 249.776C530.336 250.093 529.753 250.252 529.081 250.252ZM529.641 248.376C530.154 248.376 530.597 248.203 530.971 247.858C531.344 247.513 531.531 247.023 531.531 246.388V245.87C531.531 245.469 531.442 245.128 531.265 244.848C531.087 244.559 530.854 244.339 530.565 244.19C530.275 244.041 529.963 243.966 529.627 243.966C529.057 243.966 528.591 244.171 528.227 244.582C527.863 244.993 527.681 245.529 527.681 246.192C527.681 246.864 527.863 247.396 528.227 247.788C528.6 248.18 529.071 248.376 529.641 248.376Z" fill="#A878D8"/>
</g>
<defs>
<clipPath id="clip0_2_3218">
<rect width="550.71" height="567.986" fill="white"/>
</clipPath>
</defs>
</svg>
