<svg xmlns="http://www.w3.org/2000/svg" width="49" height="43.556" viewBox="0 0 49 43.556">
  <path id="Icon_awesome-shopping-cart" data-name="Icon awesome-shopping-cart" d="M44.927,25.633,48.948,7.939a2.042,2.042,0,0,0-1.991-2.494H13.544l-.78-3.812a2.042,2.042,0,0,0-2-1.632H2.042A2.042,2.042,0,0,0,0,2.042V3.4A2.042,2.042,0,0,0,2.042,5.444H7.987L13.963,34.66a4.764,4.764,0,1,0,5.7.729H37.5a4.763,4.763,0,1,0,5.41-.885l.469-2.065a2.042,2.042,0,0,0-1.991-2.494H18.555L18,27.222H42.936A2.042,2.042,0,0,0,44.927,25.633Z" fill="#9060a8"/>
</svg>
