<svg width="19" height="19" viewBox="0 0 19 19" fill="none" xmlns="http://www.w3.org/2000/svg">
<path d="M17.3264 4.38271C17.2592 4.25481 17.1583 4.14769 17.0347 4.07291C16.9111 3.99813 16.7694 3.95852 16.6249 3.95837H2.37493C2.23073 3.95897 2.08941 3.99887 1.96618 4.07377C1.84295 4.14867 1.74247 4.25575 1.67555 4.38349C1.60863 4.51123 1.57779 4.6548 1.58636 4.79875C1.59493 4.94271 1.64258 5.0816 1.72418 5.2005L8.84919 15.4922C8.92181 15.5976 9.01899 15.6839 9.13236 15.7435C9.24572 15.8031 9.37187 15.8342 9.49994 15.8342C9.628 15.8342 9.75415 15.8031 9.86751 15.7435C9.98088 15.6839 10.0781 15.5976 10.1507 15.4922L17.2757 5.2005C17.3581 5.08184 17.4064 4.94287 17.4153 4.79868C17.4242 4.6545 17.3935 4.51063 17.3264 4.38271ZM9.49994 13.6507L3.88543 5.54171H15.1144L9.49994 13.6507Z" fill="black"/>
</svg>
