<svg width="896" height="748" viewBox="0 0 896 748" fill="none" xmlns="http://www.w3.org/2000/svg">
<g clip-path="url(#clip0_7_3)">
<path d="M41.634 712.765C54.0624 735.815 80.44 745.71 80.44 745.71C80.44 745.71 86.6671 718.233 74.2387 695.184C61.8103 672.134 35.4327 662.239 35.4327 662.239C35.4327 662.239 29.2056 689.715 41.634 712.765Z" fill="#2F2E41"/>
<path d="M50.1765 705.182C72.6149 718.682 81.2567 745.497 81.2567 745.497C81.2567 745.497 53.5186 750.424 31.0802 736.924C8.64174 723.424 0 696.609 0 696.609C0 696.609 27.7381 691.682 50.1765 705.182Z" fill="#C587EC"/>
<path d="M553.249 35.9092H413.249V37.9092H553.249V35.9092Z" fill="#F2F2F2"/>
<path d="M515.249 37.4092H513.249V55.9092H515.249V37.4092Z" fill="#F2F2F2"/>
<path d="M454.249 37.4092H452.249V55.9092H454.249V37.4092Z" fill="#F2F2F2"/>
<path d="M624.249 131.913H484.249V133.913H624.249V131.913Z" fill="#F2F2F2"/>
<path d="M524.249 113.912H522.249V132.412H524.249V113.912Z" fill="#F2F2F2"/>
<path d="M585.249 113.912H583.249V132.412H585.249V113.912Z" fill="#F2F2F2"/>
<path d="M810.249 176.915H670.249V178.915H810.249V176.915Z" fill="#F2F2F2"/>
<path d="M710.249 158.914H708.249V177.414H710.249V158.914Z" fill="#F2F2F2"/>
<path d="M771.249 158.914H769.249V177.414H771.249V158.914Z" fill="#F2F2F2"/>
<path d="M796.249 640.932H656.249V642.932H796.249V640.932Z" fill="#F2F2F2"/>
<path d="M696.249 622.932H694.249V641.432H696.249V622.932Z" fill="#F2F2F2"/>
<path d="M757.249 622.932H755.249V641.432H757.249V622.932Z" fill="#F2F2F2"/>
<path d="M557.249 319.92H417.249V321.92H557.249V319.92Z" fill="#F2F2F2"/>
<path d="M457.249 301.919H455.249V320.419H457.249V301.919Z" fill="#F2F2F2"/>
<path d="M518.249 301.919H516.249V320.419H518.249V301.919Z" fill="#F2F2F2"/>
<path d="M601.249 560.929H461.249V562.929H601.249V560.929Z" fill="#F2F2F2"/>
<path d="M501.249 542.929H499.249V561.429H501.249V542.929Z" fill="#F2F2F2"/>
<path d="M562.249 542.929H560.249V561.429H562.249V542.929Z" fill="#F2F2F2"/>
<path d="M825.249 487.926H685.249V489.926H825.249V487.926Z" fill="#F2F2F2"/>
<path d="M725.249 469.926H723.249V488.426H725.249V469.926Z" fill="#F2F2F2"/>
<path d="M786.249 469.926H784.249V488.426H786.249V469.926Z" fill="#F2F2F2"/>
<path d="M362.06 702.211H125.274V700.508H360.356V617.885H145.18L134.727 596.107L136.263 595.37L146.252 616.18H362.06V702.211Z" fill="#2F2E41"/>
<path d="M156.788 743.948C166.667 743.948 174.675 735.94 174.675 726.061C174.675 716.182 166.667 708.173 156.788 708.173C146.91 708.173 138.902 716.182 138.902 726.061C138.902 735.94 146.91 743.948 156.788 743.948Z" fill="#3F3D56"/>
<path d="M333.101 743.948C342.979 743.948 350.987 735.94 350.987 726.061C350.987 716.182 342.979 708.173 333.101 708.173C323.222 708.173 315.214 716.182 315.214 726.061C315.214 735.94 323.222 743.948 333.101 743.948Z" fill="#3F3D56"/>
<path d="M540.927 357.239C547.043 357.239 552 352.281 552 346.166C552 340.051 547.043 335.093 540.927 335.093C534.812 335.093 529.854 340.051 529.854 346.166C529.854 352.281 534.812 357.239 540.927 357.239Z" fill="#3F3D56"/>
<path d="M387.385 589.776H121.237L63.6484 401.532H446.693L446.344 402.64L387.385 589.776ZM122.497 588.072H386.136L444.37 403.236H65.9508L122.497 588.072Z" fill="#2F2E41"/>
<path d="M366.61 579.98H132.842L82.26 413.031H418.701L418.395 414.014L366.61 579.98Z" fill="#F2F2F2"/>
<path d="M451.465 384.715L449.818 384.278L461.059 341.907H526.448V343.611H462.37L451.465 384.715Z" fill="#2F2E41"/>
<path d="M427.552 458.601H82.2584V460.305H427.552V458.601Z" fill="#2F2E41"/>
<path d="M407.778 521.364H101.459V523.067H407.778V521.364Z" fill="#2F2E41"/>
<path d="M256.017 402.384H254.314V588.924H256.017V402.384Z" fill="#2F2E41"/>
<path d="M332.286 402.33L320.057 588.866L321.758 588.977L333.986 402.442L332.286 402.33Z" fill="#2F2E41"/>
<path d="M178.081 402.328L176.38 402.439L188.538 588.979L190.238 588.868L178.081 402.328Z" fill="#2F2E41"/>
<path d="M896 745.028H0V747.028H896V745.028Z" fill="#2F2E41"/>
<path d="M595.411 61.8783C595.411 61.8783 610.029 103.486 601.033 109.887C592.037 116.289 631.394 168.565 631.394 168.565L678.623 155.763L652.76 112.021C652.76 112.021 649.386 68.2795 649.386 61.8783C649.386 55.4771 595.411 61.8783 595.411 61.8783Z" fill="#A0616A"/>
<path opacity="0.1" d="M595.411 61.8783C595.411 61.8783 610.029 103.486 601.033 109.887C592.037 116.289 631.394 168.565 631.394 168.565L678.623 155.763L652.76 112.021C652.76 112.021 649.386 68.2795 649.386 61.8783C649.386 55.4771 595.411 61.8783 595.411 61.8783Z" fill="black"/>
<path d="M570.874 358.468C570.874 358.468 566.606 411.811 570.874 439.55C575.141 467.288 581.542 544.103 581.542 544.103C581.542 544.103 581.542 689.197 605.012 691.331C628.482 693.464 645.552 695.598 647.685 687.063C649.819 678.528 637.017 674.261 643.418 669.993C649.819 665.726 651.953 650.79 643.418 633.72C634.883 616.65 643.418 443.817 643.418 443.817L683.957 552.638C683.957 552.638 688.225 642.255 692.492 655.057C696.759 667.86 688.225 691.331 703.16 693.464C718.096 695.598 735.165 682.796 743.7 678.528C752.234 674.261 730.898 674.261 735.165 672.127C739.432 669.993 752.234 663.592 747.967 661.458C743.7 659.324 739.432 556.905 739.432 556.905C739.432 556.905 727.697 338.197 712.762 329.662C697.826 321.127 688.225 335.828 688.225 335.828L570.874 358.468Z" fill="#2F2E41"/>
<path d="M609.279 682.796V699.866C609.279 699.866 590.077 746.267 609.279 746.267C628.482 746.267 643.418 751.075 643.418 744.674V687.063L609.279 682.796Z" fill="#2F2E41"/>
<path d="M735.165 682.765V699.835C735.165 699.835 754.368 746.236 735.165 746.236C715.962 746.236 701.027 751.045 701.027 744.644V687.033L735.165 682.765Z" fill="#2F2E41"/>
<path d="M625.282 92.8169C646.493 92.8169 663.688 75.6214 663.688 54.4097C663.688 33.1979 646.493 16.0024 625.282 16.0024C604.071 16.0024 586.876 33.1979 586.876 54.4097C586.876 75.6214 604.071 92.8169 625.282 92.8169Z" fill="#A0616A"/>
<path d="M613.547 125.89C613.547 125.89 624.215 157.896 641.284 151.495L658.354 145.094L688.225 349.933C688.225 349.933 664.754 384.073 630.616 362.735C596.477 341.398 613.547 125.89 613.547 125.89Z" fill="#C587EC"/>
<path d="M643.418 119.489L653.019 99.2188C653.019 99.2188 709.561 125.89 718.096 134.425C726.631 142.96 726.63 155.763 726.63 155.763L711.695 209.106C711.695 209.106 715.962 326.462 715.962 330.729C715.962 334.997 730.898 358.468 720.23 349.933C709.561 341.398 707.428 332.863 698.893 345.665C690.358 358.468 671.156 373.404 671.156 373.404L643.418 119.489Z" fill="#3F3D56"/>
<path d="M718.096 273.118L711.695 332.863C711.695 332.863 673.289 367.003 681.824 369.136C690.358 371.27 694.626 362.735 694.626 362.735C694.626 362.735 709.561 377.671 718.096 369.136C726.63 360.601 747.967 279.52 747.967 279.52L718.096 273.118Z" fill="#A0616A"/>
<path d="M626.1 0.129876C617.586 -0.174506 608.474 -0.325072 601.296 4.26324C597.993 6.56592 595.096 9.4019 592.724 12.6551C585.732 21.4939 579.691 32.6151 582.288 43.5816L585.304 42.4052C585.304 45.3325 584.654 48.2232 583.399 50.8681C583.824 49.633 585.246 51.6297 584.866 52.8791L581.543 63.7802C587.005 61.7777 593.8 65.8321 594.631 71.5901C595.011 58.9284 596.324 44.4094 606.595 36.9955C611.775 33.2567 618.33 32.1153 624.637 31.1018C630.455 30.1667 636.555 29.2751 642.127 31.1906C647.7 33.1062 652.446 38.8059 651.183 44.5621C653.752 43.6769 656.626 45.4678 657.896 47.8708C659.166 50.2738 659.233 53.1085 659.271 55.8261C662.01 57.762 665.127 53.9179 666.244 50.7548C668.864 43.3302 671.193 35.4268 669.782 27.6809C668.37 19.935 662.058 12.5326 654.185 12.5064C655.141 11.4567 655.651 10.0764 655.607 8.65748L649.118 8.10915C650.765 7.87588 652.28 7.07706 653.403 5.84952C650.798 8.71656 630.313 0.280492 626.1 0.129876Z" fill="#2F2E41"/>
<path d="M624.215 113.088C624.215 113.088 606.846 96.0665 600.595 97.1092C594.344 98.1519 585.809 113.088 585.809 113.088C585.809 113.088 534.602 130.158 536.735 147.228C538.869 164.298 562.339 247.513 562.339 247.513C562.339 247.513 581.542 347.799 564.473 358.468C547.403 369.136 645.552 396.875 647.685 384.073C649.819 371.27 654.086 243.246 647.685 224.042C641.284 204.839 624.215 113.088 624.215 113.088Z" fill="#3F3D56"/>
<path d="M698.893 147.228H725.276C725.276 147.228 743.7 228.31 745.833 236.845C747.967 245.38 752.234 285.921 750.101 285.921C747.967 285.921 705.294 277.386 705.294 283.787L698.893 147.228Z" fill="#3F3D56"/>
<path d="M698 348.013H597C587.144 302.672 586.32 258.863 597 217.008H698C681.701 258.111 680.682 301.619 698 348.013Z" fill="#F2F2F2"/>
<path d="M555.938 292.322L585.809 305.124C585.809 305.124 643.418 313.659 643.418 290.188C643.418 266.717 585.809 279.52 585.809 279.52L566.605 273.379L555.938 292.322Z" fill="#A0616A"/>
<path d="M562.339 134.425L536.735 140.827L517.532 253.915C517.532 253.915 511.131 283.787 521.8 285.921C532.468 288.054 562.339 305.124 562.339 305.124C562.339 305.124 566.606 273.118 575.141 273.118L553.804 256.048L566.606 181.368L562.339 134.425Z" fill="#3F3D56"/>
<path d="M200.249 352.921H60.2485V354.921H200.249V352.921Z" fill="#F2F2F2"/>
<path d="M100.249 334.921H98.2485V353.421H100.249V334.921Z" fill="#F2F2F2"/>
<path d="M161.249 334.921H159.249V353.421H161.249V334.921Z" fill="#F2F2F2"/>
<path d="M249.249 56.91H109.249V58.91H249.249V56.91Z" fill="#F2F2F2"/>
<path d="M211.249 58.41H209.249V76.91H211.249V58.41Z" fill="#F2F2F2"/>
<path d="M150.249 58.41H148.249V76.91H150.249V58.41Z" fill="#F2F2F2"/>
<path d="M390.249 253.917H250.249V255.917H390.249V253.917Z" fill="#F2F2F2"/>
<path d="M352.249 255.418H350.249V273.918H352.249V255.418Z" fill="#F2F2F2"/>
<path d="M291.249 255.418H289.249V273.918H291.249V255.418Z" fill="#F2F2F2"/>
<path d="M152.249 252.917H12.2485V254.917H152.249V252.917Z" fill="#F2F2F2"/>
<path d="M114.249 254.418H112.249V272.917H114.249V254.418Z" fill="#F2F2F2"/>
<path d="M53.2485 254.418H51.2485V272.917H53.2485V254.418Z" fill="#F2F2F2"/>
<path d="M320.249 152.914H180.249V154.914H320.249V152.914Z" fill="#F2F2F2"/>
<path d="M220.249 134.913H218.249V153.413H220.249V134.913Z" fill="#F2F2F2"/>
<path d="M281.249 134.913H279.249V153.413H281.249V134.913Z" fill="#F2F2F2"/>
</g>
<defs>
<clipPath id="clip0_7_3">
<rect width="896" height="748" fill="white"/>
</clipPath>
</defs>
</svg>
