<svg width="20" height="28" viewBox="0 0 20 28" fill="none" xmlns="http://www.w3.org/2000/svg">
<path d="M5.61004 27.92C5.40539 27.8336 5.23534 27.6815 5.12669 27.4878C5.01805 27.2941 4.97701 27.0696 5.01004 26.85L6.83004 15H2.00004C1.84691 15.0041 1.69489 14.973 1.55569 14.9091C1.4165 14.8451 1.29385 14.75 1.19722 14.6312C1.10059 14.5123 1.03256 14.3729 0.99837 14.2235C0.964181 14.0742 0.964753 13.9191 1.00004 13.77L4.00004 0.769991C4.05283 0.546261 4.18109 0.347549 4.36322 0.207305C4.54536 0.0670604 4.77025 -0.00615217 5.00004 -8.79931e-06H15C15.1494 -0.000516771 15.297 0.0324549 15.432 0.0964835C15.567 0.160512 15.6859 0.25397 15.78 0.369991C15.8755 0.487323 15.9431 0.624777 15.9777 0.772008C16.0124 0.919238 16.0132 1.07241 15.98 1.21999L14.25 8.99999H19C19.1875 8.99962 19.3712 9.05192 19.5303 9.15093C19.6895 9.24995 19.8176 9.39169 19.9 9.55999C19.9717 9.72153 19.9993 9.89917 19.9799 10.0748C19.9606 10.2505 19.8951 10.4179 19.79 10.56L6.79004 27.56C6.70218 27.6902 6.58487 27.7979 6.44761 27.8744C6.31036 27.9508 6.15703 27.9939 6.00004 28C5.86623 27.9975 5.73403 27.9704 5.61004 27.92V27.92ZM11.75 11L13.75 1.99999H5.80004L3.26004 13H9.17004L7.58004 23.28L17 11H11.75Z" fill="#f0d8f0" />
</svg>
