<svg xmlns="http://www.w3.org/2000/svg" width="41.585" height="41.575" viewBox="0 0 41.585 41.575">
  <path id="Icon_awesome-instagram" data-name="Icon awesome-instagram" d="M20.792,12.366A10.659,10.659,0,1,0,31.451,23.025,10.643,10.643,0,0,0,20.792,12.366Zm0,17.589a6.93,6.93,0,1,1,6.93-6.93,6.943,6.943,0,0,1-6.93,6.93ZM34.373,11.93a2.486,2.486,0,1,1-2.486-2.486A2.48,2.48,0,0,1,34.373,11.93Zm7.06,2.523c-.158-3.33-.918-6.281-3.358-8.711s-5.381-3.191-8.711-3.358c-3.433-.195-13.721-.195-17.153,0C8.889,2.542,5.939,3.3,3.5,5.733S.308,11.114.141,14.444c-.195,3.433-.195,13.721,0,17.153.158,3.33.918,6.281,3.358,8.711S8.88,43.5,12.21,43.667c3.433.195,13.721.195,17.153,0,3.33-.158,6.281-.918,8.711-3.358s3.191-5.381,3.358-8.711c.195-3.433.195-13.712,0-17.144ZM37,35.28a7.016,7.016,0,0,1-3.952,3.952c-2.737,1.085-9.231.835-12.255.835s-9.528.241-12.255-.835A7.016,7.016,0,0,1,4.585,35.28C3.5,32.544,3.75,26.05,3.75,23.025S3.508,13.5,4.585,10.77A7.016,7.016,0,0,1,8.537,6.818c2.737-1.085,9.231-.835,12.255-.835s9.528-.241,12.255.835A7.016,7.016,0,0,1,37,10.77c1.085,2.737.835,9.231.835,12.255S38.084,32.553,37,35.28Z" transform="translate(0.005 -2.238)" fill="#f0d8f0"/>
</svg>
