<svg width="663" height="694" viewBox="0 0 663 694" fill="none" xmlns="http://www.w3.org/2000/svg">
<g clip-path="url(#clip0_14_3)">
<path d="M256.471 694C398.116 694 512.942 673.708 512.942 648.676C512.942 623.644 398.116 603.352 256.471 603.352C114.826 603.352 0 623.644 0 648.676C0 673.708 114.826 694 256.471 694Z" fill="#3F3D56"/>
<path d="M412.651 501.476C551.082 501.476 663.303 389.217 663.303 250.738C663.303 112.259 551.082 0 412.651 0C274.22 0 162 112.259 162 250.738C162 389.217 274.22 501.476 412.651 501.476Z" fill="#3F3D56"/>
<path opacity="0.05" d="M412.348 457.731C526.628 457.731 619.269 365.057 619.269 250.738C619.269 136.419 526.628 43.7458 412.348 43.7458C298.069 43.7458 205.428 136.419 205.428 250.738C205.428 365.057 298.069 457.731 412.348 457.731Z" fill="black"/>
<path opacity="0.05" d="M440.59 420.297C534.251 420.297 610.179 344.343 610.179 250.648C610.179 156.954 534.251 81 440.59 81C346.928 81 271 156.954 271 250.648C271 344.343 346.928 420.297 440.59 420.297Z" fill="black"/>
<path opacity="0.05" d="M412.348 372.373C479.502 372.373 533.941 317.915 533.941 250.738C533.941 183.561 479.502 129.103 412.348 129.103C345.195 129.103 290.756 183.561 290.756 250.738C290.756 317.915 345.195 372.373 412.348 372.373Z" fill="black"/>
<path d="M163.917 273.178C163.917 273.178 144.211 328.666 152.969 348.379C161.728 368.092 175.595 387.075 175.595 387.075C175.595 387.075 170.486 276.828 163.917 273.178Z" fill="#D0CDE1"/>
<path opacity="0.1" d="M163.917 273.178C163.917 273.178 144.211 328.666 152.969 348.379C161.728 368.092 175.595 387.075 175.595 387.075C175.595 387.075 170.486 276.828 163.917 273.178Z" fill="black"/>
<path d="M177.785 401.677C177.785 401.677 176.325 415.55 175.595 416.28C174.865 417.01 176.325 418.47 175.595 420.66C174.865 422.851 174.135 425.771 175.595 426.501C177.055 427.231 167.567 491.481 167.567 491.481C167.567 491.481 144.211 522.146 153.699 570.333L156.619 619.251C156.619 619.251 179.244 620.711 179.244 612.68C179.244 612.68 177.785 603.188 177.785 598.808C177.785 594.427 181.434 594.427 179.244 592.237C177.055 590.046 177.055 588.586 177.055 588.586C177.055 588.586 180.704 585.666 179.974 584.936C179.244 584.206 186.543 532.368 186.543 532.368C186.543 532.368 194.571 524.336 194.571 519.956V515.575C194.571 515.575 198.221 506.084 198.221 505.353C198.221 504.623 217.927 460.086 217.927 460.086L225.955 492.211L234.714 538.209C234.714 538.209 239.093 579.825 247.851 595.887C247.851 595.887 263.178 648.456 263.178 646.995C263.178 645.535 288.723 641.885 287.994 635.313C287.264 628.742 272.666 536.748 272.666 536.748L276.316 400.217L177.785 401.677Z" fill="#2F2E41"/>
<path d="M158.078 615.6C158.078 615.6 138.372 654.296 151.51 655.757C164.647 657.217 169.756 657.217 175.595 651.376C178.787 648.183 185.251 643.898 190.456 640.67C193.54 638.789 196.031 636.075 197.644 632.842C199.257 629.609 199.926 625.986 199.575 622.39C199.19 618.817 197.856 615.874 194.571 615.6C185.813 614.87 175.595 606.839 175.595 606.839L158.078 615.6Z" fill="#2F2E41"/>
<path d="M266.827 644.075C266.827 644.075 247.121 682.771 260.259 684.231C273.396 685.691 278.505 685.691 284.344 679.85C287.536 676.657 294 672.373 299.205 669.145C302.289 667.263 304.78 664.55 306.393 661.316C308.006 658.083 308.675 654.46 308.324 650.864C307.939 647.292 306.605 644.349 303.32 644.075C294.562 643.345 284.344 635.313 284.344 635.313L266.827 644.075Z" fill="#2F2E41"/>
<path d="M246 209.853C262.944 209.853 276.68 196.112 276.68 179.161C276.68 162.211 262.944 148.47 246 148.47C229.055 148.47 215.319 162.211 215.319 179.161C215.319 196.112 229.055 209.853 246 209.853Z" fill="#FFB8B8"/>
<path d="M226.276 189.246C226.276 189.246 204.362 229.583 202.609 229.583C200.855 229.583 242.055 242.736 242.055 242.736C242.055 242.736 253.451 204.153 255.204 200.645L226.276 189.246Z" fill="#FFB8B8"/>
<path d="M259.894 233.386C259.894 233.386 216.102 209.293 211.723 210.023C207.344 210.753 160.633 251.639 161.362 268.432C162.092 285.224 167.931 312.969 167.931 312.969C167.931 312.969 170.121 390.361 174.5 391.091C178.879 391.821 173.77 404.963 175.23 404.963C176.69 404.963 277.41 404.963 278.14 402.773C278.87 400.582 259.894 233.386 259.894 233.386Z" fill="#D0CDE1"/>
<path d="M284.344 406.788C284.344 406.788 298.212 449.135 286.534 447.675C274.856 446.214 269.747 411.169 269.747 411.169L284.344 406.788Z" fill="#FFB8B8"/>
<path d="M247.121 230.831C247.121 230.831 220.116 236.672 224.495 273.178C228.875 309.683 236.903 346.189 236.903 346.189L263.908 405.328L266.827 416.28L286.534 411.169L271.936 326.476C271.936 326.476 266.827 235.942 260.259 233.021C256.116 231.255 251.612 230.504 247.121 230.831V230.831Z" fill="#D0CDE1"/>
<path opacity="0.1" d="M230.699 345.094L264.273 404.962L235.987 341.877L230.699 345.094Z" fill="black"/>
<path d="M276.545 170.124L276.646 167.779L281.31 168.94C281.26 168.187 281.047 167.454 280.686 166.792C280.326 166.129 279.825 165.552 279.22 165.102L284.188 164.824C280.019 158.898 274.693 153.879 268.531 150.069C262.369 146.26 255.499 143.739 248.337 142.66C237.591 141.102 225.625 143.357 218.257 151.334C214.683 155.204 212.437 160.125 210.839 165.145C207.897 174.391 207.297 185.414 213.433 192.93C219.668 200.568 230.56 202.065 240.373 203.01C243.826 203.343 247.445 203.652 250.644 202.312C251 198.641 250.531 194.936 249.269 191.47C248.744 190.397 248.493 189.211 248.539 188.017C248.975 185.096 252.869 184.361 255.794 184.755C258.72 185.15 262.237 185.753 264.159 183.512C265.483 181.969 265.405 179.721 265.581 177.694C266.058 172.178 276.495 171.281 276.545 170.124Z" fill="#2F2E41"/>
<path d="M464.724 654.913C484.467 654.913 500.471 638.903 500.471 619.153C500.471 599.403 484.467 583.392 464.724 583.392C444.98 583.392 428.976 599.403 428.976 619.153C428.976 638.903 444.98 654.913 464.724 654.913Z" fill="#C587EC"/>
<path d="M44.893 642.439C64.636 642.439 80.6409 626.428 80.6409 606.678C80.6409 586.928 64.636 570.918 44.893 570.918C25.1499 570.918 9.14502 586.928 9.14502 606.678C9.14502 626.428 25.1499 642.439 44.893 642.439Z" fill="#C587EC"/>
<path d="M44.8929 585.056C59.1263 585.056 70.6647 573.513 70.6647 559.275C70.6647 545.037 59.1263 533.494 44.8929 533.494C30.6595 533.494 19.1211 545.037 19.1211 559.275C19.1211 573.513 30.6595 585.056 44.8929 585.056Z" fill="#C587EC"/>
<path d="M44.8927 537.653C54.9938 537.653 63.1823 529.461 63.1823 519.357C63.1823 509.252 54.9938 501.061 44.8927 501.061C34.7916 501.061 26.603 509.252 26.603 519.357C26.603 529.461 34.7916 537.653 44.8927 537.653Z" fill="#C587EC"/>
<path d="M332.24 188V161.72H340.628L351.68 183.752H352.148V161.72H356.972V188H348.548L337.496 165.968H336.992V188H332.24ZM375.807 188.684C373.431 188.684 371.367 188.264 369.615 187.424C367.863 186.584 366.411 185.492 365.259 184.148C364.131 182.78 363.291 181.316 362.739 179.756C362.187 178.172 361.911 176.648 361.911 175.184V174.392C361.911 172.784 362.199 171.188 362.775 169.604C363.351 168.02 364.215 166.58 365.367 165.284C366.543 163.964 367.995 162.92 369.723 162.152C371.451 161.36 373.479 160.964 375.807 160.964C378.087 160.964 380.091 161.36 381.819 162.152C383.571 162.92 385.023 163.964 386.175 165.284C387.327 166.58 388.191 168.02 388.767 169.604C389.367 171.188 389.667 172.784 389.667 174.392V175.184C389.667 176.648 389.379 178.172 388.803 179.756C388.251 181.316 387.399 182.78 386.247 184.148C385.119 185.492 383.679 186.584 381.927 187.424C380.199 188.264 378.159 188.684 375.807 188.684ZM375.807 183.932C377.583 183.932 379.119 183.524 380.415 182.708C381.711 181.868 382.707 180.752 383.403 179.36C384.123 177.968 384.483 176.456 384.483 174.824C384.483 173.096 384.123 171.548 383.403 170.18C382.707 168.788 381.711 167.696 380.415 166.904C379.119 166.112 377.583 165.716 375.807 165.716C374.007 165.716 372.459 166.112 371.163 166.904C369.867 167.696 368.859 168.788 368.139 170.18C367.443 171.548 367.095 173.096 367.095 174.824C367.095 176.456 367.443 177.968 368.139 179.36C368.835 180.752 369.831 181.868 371.127 182.708C372.447 183.524 374.007 183.932 375.807 183.932ZM329.648 233L338.612 206.72H346.964L356.18 233H350.924L348.512 226.016H337.064L334.76 233H329.648ZM338.504 221.696H347.036L343.4 211.004H342.068L338.504 221.696ZM370.908 233.684C368.508 233.684 366.456 233.264 364.752 232.424C363.072 231.584 361.692 230.492 360.612 229.148C359.556 227.804 358.776 226.352 358.272 224.792C357.768 223.208 357.516 221.672 357.516 220.184V219.392C357.516 217.784 357.768 216.188 358.272 214.604C358.8 212.996 359.604 211.544 360.684 210.248C361.764 208.952 363.132 207.92 364.788 207.152C366.444 206.36 368.424 205.964 370.728 205.964C373.08 205.964 375.144 206.396 376.92 207.26C378.696 208.124 380.112 209.324 381.168 210.86C382.224 212.396 382.86 214.196 383.076 216.26H377.928C377.64 214.46 376.836 213.092 375.516 212.156C374.22 211.196 372.624 210.716 370.728 210.716C368.976 210.716 367.5 211.112 366.3 211.904C365.124 212.672 364.224 213.74 363.6 215.108C363 216.476 362.7 218.048 362.7 219.824C362.7 221.552 363.012 223.1 363.636 224.468C364.26 225.836 365.184 226.928 366.408 227.744C367.632 228.536 369.132 228.932 370.908 228.932C372.876 228.932 374.532 228.452 375.876 227.492C377.244 226.508 378.072 225.14 378.36 223.388H383.508C383.268 225.284 382.62 227.012 381.564 228.572C380.532 230.132 379.116 231.38 377.316 232.316C375.54 233.228 373.404 233.684 370.908 233.684ZM392.795 233V211.22H385.199V206.72H405.503V211.22H397.907V233H392.795ZM409.656 233V206.72H414.768V233H409.656ZM427.23 233L418.842 206.72H424.134L430.83 228.752H432.09L438.318 206.72H443.43L435.654 233H427.23ZM447.553 233V206.72H463.465V211.04H452.557V217.484H462.816V221.804H452.557V228.68H463.753V233H447.553ZM332.24 278V251.54H341.312C344.624 251.54 347.18 252.344 348.98 253.952C350.804 255.536 351.716 257.696 351.716 260.432V261.008C351.716 263.744 350.804 265.916 348.98 267.524C347.18 269.132 344.624 269.936 341.312 269.936H337.352V278H332.24ZM341.744 255.968H337.352V265.508H341.744C343.28 265.508 344.456 265.064 345.272 264.176C346.112 263.288 346.532 262.136 346.532 260.72C346.532 259.304 346.112 258.164 345.272 257.3C344.456 256.412 343.28 255.968 341.744 255.968ZM355.935 278V251.54H365.691C368.835 251.54 371.343 252.248 373.215 253.664C375.087 255.08 376.023 257.228 376.023 260.108V260.72C376.023 262.688 375.567 264.308 374.655 265.58C373.767 266.852 372.531 267.788 370.947 268.388L377.967 278H371.991L365.799 269.216H365.691H361.047V278H355.935ZM366.231 255.896H361.047V265.076H366.231C367.623 265.076 368.739 264.656 369.579 263.816C370.419 262.976 370.839 261.872 370.839 260.504C370.839 259.136 370.419 258.032 369.579 257.192C368.739 256.328 367.623 255.896 366.231 255.896ZM393.842 278.684C391.466 278.684 389.402 278.264 387.65 277.424C385.898 276.584 384.446 275.492 383.294 274.148C382.166 272.78 381.326 271.316 380.774 269.756C380.222 268.172 379.946 266.648 379.946 265.184V264.392C379.946 262.784 380.234 261.188 380.81 259.604C381.386 258.02 382.25 256.58 383.402 255.284C384.578 253.964 386.03 252.92 387.758 252.152C389.486 251.36 391.514 250.964 393.842 250.964C396.122 250.964 398.126 251.36 399.854 252.152C401.606 252.92 403.058 253.964 404.21 255.284C405.362 256.58 406.226 258.02 406.802 259.604C407.402 261.188 407.702 262.784 407.702 264.392V265.184C407.702 266.648 407.414 268.172 406.838 269.756C406.286 271.316 405.434 272.78 404.282 274.148C403.154 275.492 401.714 276.584 399.962 277.424C398.234 278.264 396.194 278.684 393.842 278.684ZM393.842 273.932C395.618 273.932 397.154 273.524 398.45 272.708C399.746 271.868 400.742 270.752 401.438 269.36C402.158 267.968 402.518 266.456 402.518 264.824C402.518 263.096 402.158 261.548 401.438 260.18C400.742 258.788 399.746 257.696 398.45 256.904C397.154 256.112 395.618 255.716 393.842 255.716C392.042 255.716 390.494 256.112 389.198 256.904C387.902 257.696 386.894 258.788 386.174 260.18C385.478 261.548 385.13 263.096 385.13 264.824C385.13 266.456 385.478 267.968 386.174 269.36C386.87 270.752 387.866 271.868 389.162 272.708C390.482 273.524 392.042 273.932 393.842 273.932ZM412.642 278.144V251.54H422.146C424.522 251.54 426.586 251.9 428.338 252.62C430.114 253.316 431.59 254.276 432.766 255.5C433.966 256.7 434.854 258.068 435.43 259.604C436.03 261.14 436.33 262.736 436.33 264.392V265.184C436.33 266.768 436.03 268.328 435.43 269.864C434.854 271.4 433.966 272.792 432.766 274.04C431.59 275.288 430.114 276.284 428.338 277.028C426.586 277.772 424.522 278.144 422.146 278.144H412.642ZM422.47 256.292H417.754V273.392H422.47C424.27 273.392 425.818 273.032 427.114 272.312C428.41 271.568 429.406 270.548 430.102 269.252C430.798 267.956 431.146 266.468 431.146 264.788C431.146 262.172 430.378 260.108 428.842 258.596C427.306 257.06 425.182 256.292 422.47 256.292ZM451.744 278.684C449.272 278.684 447.196 278.216 445.516 277.28C443.836 276.344 442.564 275.036 441.7 273.356C440.836 271.652 440.404 269.66 440.404 267.38V251.72H445.516V267.668C445.516 269.564 446.044 271.088 447.1 272.24C448.18 273.368 449.728 273.932 451.744 273.932C453.712 273.932 455.224 273.368 456.28 272.24C457.36 271.112 457.9 269.588 457.9 267.668V251.72H463.012V267.38C463.012 269.66 462.58 271.652 461.716 273.356C460.852 275.036 459.58 276.344 457.9 277.28C456.244 278.216 454.192 278.684 451.744 278.684ZM480.842 278.684C478.442 278.684 476.39 278.264 474.686 277.424C473.006 276.584 471.626 275.492 470.546 274.148C469.49 272.804 468.71 271.352 468.206 269.792C467.702 268.208 467.45 266.672 467.45 265.184V264.392C467.45 262.784 467.702 261.188 468.206 259.604C468.734 257.996 469.538 256.544 470.618 255.248C471.698 253.952 473.066 252.92 474.722 252.152C476.378 251.36 478.358 250.964 480.662 250.964C483.014 250.964 485.078 251.396 486.854 252.26C488.63 253.124 490.046 254.324 491.102 255.86C492.158 257.396 492.794 259.196 493.01 261.26H487.862C487.574 259.46 486.77 258.092 485.45 257.156C484.154 256.196 482.558 255.716 480.662 255.716C478.91 255.716 477.434 256.112 476.234 256.904C475.058 257.672 474.158 258.74 473.534 260.108C472.934 261.476 472.634 263.048 472.634 264.824C472.634 266.552 472.946 268.1 473.57 269.468C474.194 270.836 475.118 271.928 476.342 272.744C477.566 273.536 479.066 273.932 480.842 273.932C482.81 273.932 484.466 273.452 485.81 272.492C487.178 271.508 488.006 270.14 488.294 268.388H493.442C493.202 270.284 492.554 272.012 491.498 273.572C490.466 275.132 489.05 276.38 487.25 277.316C485.474 278.228 483.338 278.684 480.842 278.684ZM502.729 278V256.22H495.133V251.72H515.437V256.22H507.841V278H502.729ZM527.813 278.684C525.485 278.684 523.517 278.312 521.909 277.568C520.301 276.824 519.077 275.804 518.237 274.508C517.421 273.212 517.013 271.724 517.013 270.044H522.017C522.017 270.764 522.209 271.448 522.593 272.096C522.977 272.744 523.589 273.272 524.429 273.68C525.293 274.088 526.421 274.292 527.813 274.292C529.685 274.292 531.089 273.908 532.025 273.14C532.961 272.372 533.429 271.436 533.429 270.332C533.429 269.42 533.033 268.676 532.241 268.1C531.449 267.524 530.225 267.164 528.569 267.02L526.265 266.84C523.745 266.624 521.729 265.844 520.217 264.5C518.729 263.132 517.985 261.332 517.985 259.1C517.985 257.444 518.369 256.004 519.137 254.78C519.929 253.556 521.045 252.62 522.485 251.972C523.925 251.3 525.605 250.964 527.525 250.964C529.493 250.964 531.197 251.312 532.637 252.008C534.101 252.704 535.229 253.688 536.021 254.96C536.813 256.208 537.209 257.684 537.209 259.388H532.205C532.205 258.332 531.809 257.396 531.017 256.58C530.249 255.764 529.085 255.356 527.525 255.356C525.989 255.356 524.849 255.728 524.105 256.472C523.361 257.216 522.989 258.092 522.989 259.1C522.989 259.916 523.277 260.636 523.853 261.26C524.453 261.86 525.413 262.208 526.733 262.304L529.037 262.52C530.909 262.688 532.541 263.096 533.933 263.744C535.349 264.368 536.453 265.232 537.245 266.336C538.037 267.44 538.433 268.772 538.433 270.332C538.433 271.988 537.989 273.452 537.101 274.724C536.237 275.972 535.013 276.944 533.429 277.64C531.845 278.336 529.973 278.684 527.813 278.684Z" fill="#C587EC"/>
</g>
<defs>
<clipPath id="clip0_14_3">
<rect width="663" height="694" fill="white"/>
</clipPath>
</defs>
</svg>
