<svg xmlns="http://www.w3.org/2000/svg" width="49.509" height="49.393" viewBox="0 0 49.509 49.393">
  <path id="account-circle" d="M24.755.25A23.853,23.853,0,0,1,42.262,7.5a23.787,23.787,0,0,1,7.246,17.45A23.787,23.787,0,0,1,42.262,42.4a23.853,23.853,0,0,1-17.507,7.246A23.853,23.853,0,0,1,7.248,42.4,23.792,23.792,0,0,1,0,24.947,23.78,23.78,0,0,1,7.246,7.5,23.858,23.858,0,0,1,24.755.25Zm0,7.42a7.294,7.294,0,0,0-5.276,2.145,7.01,7.01,0,0,0-2.2,5.218,7.2,7.2,0,0,0,2.2,5.276,7.191,7.191,0,0,0,5.276,2.2,7.014,7.014,0,0,0,5.218-2.2,7.3,7.3,0,0,0,2.145-5.276A7.325,7.325,0,0,0,24.755,7.67Zm0,35.132a17.214,17.214,0,0,0,8.464-2.145,17.683,17.683,0,0,0,6.32-5.855q0-2.319-2.724-4.116a20.236,20.236,0,0,0-6.029-2.667,23.785,23.785,0,0,0-6.029-.87,23.952,23.952,0,0,0-6.029.87A20.143,20.143,0,0,0,12.7,30.686q-2.724,1.8-2.844,4.116a17.762,17.762,0,0,0,14.9,8Z" transform="translate(0 -0.25)" fill="#9060a8"/>
</svg>
