<svg width="29" height="28" viewBox="0 0 29 28" fill="none" xmlns="http://www.w3.org/2000/svg">
<path d="M4.11111 5.99998H5.66667C6.49178 5.99998 7.28311 5.6722 7.86655 5.08876C8.45 4.50531 8.77778 3.71399 8.77778 2.88887C8.77778 2.47631 8.94167 2.08065 9.23339 1.78892C9.52511 1.4972 9.92077 1.33331 10.3333 1.33331H19.6667C20.0792 1.33331 20.4749 1.4972 20.7666 1.78892C21.0583 2.08065 21.2222 2.47631 21.2222 2.88887C21.2222 3.71399 21.55 4.50531 22.1334 5.08876C22.7169 5.6722 23.5082 5.99998 24.3333 5.99998H25.8889C26.714 5.99998 27.5053 6.32776 28.0888 6.9112C28.6722 7.49465 29 8.28597 29 9.11109V23.1111C29 23.9362 28.6722 24.7275 28.0888 25.311C27.5053 25.8944 26.714 26.2222 25.8889 26.2222H4.11111C3.28599 26.2222 2.49467 25.8944 1.91122 25.311C1.32778 24.7275 1 23.9362 1 23.1111V9.11109C1 8.28597 1.32778 7.49465 1.91122 6.9112C2.49467 6.32776 3.28599 5.99998 4.11111 5.99998" stroke="#f0d8f0" stroke-width="2" stroke-linecap="round" stroke-linejoin="round"/>
<path d="M16.1668 10.8144C15.4772 10.6363 14.756 10.6185 14.0584 10.7622C13.3608 10.906 12.7053 11.2075 12.1423 11.6437C11.5792 12.0799 11.1234 12.6391 10.8099 13.2787C10.4964 13.9182 10.3334 14.621 10.3335 15.3333M13.8257 19.8506C14.5157 20.03 15.2377 20.049 15.9362 19.906C16.6347 19.763 17.2911 19.4618 17.8551 19.0257C18.4191 18.5895 18.8756 18.0299 19.1897 17.3898C19.5037 16.7498 19.667 16.0462 19.6668 15.3333L13.8257 19.8506Z" stroke="#f0d8f0" stroke-width="2" stroke-linecap="round" stroke-linejoin="round"/>
<path d="M18.1108 15.3333H21.222V18.4444" stroke="#f0d8f0" stroke-width="2" stroke-linecap="round" stroke-linejoin="round"/>
<path d="M11.8885 15.3333H8.77734V12.2222" stroke="#f0d8f0" stroke-width="2" stroke-linecap="round" stroke-linejoin="round"/>
</svg>
