<svg width="138" height="138" viewBox="0 0 138 138" fill="none" xmlns="http://www.w3.org/2000/svg">
<path d="M43.1252 20.7C37.1777 20.7 31.4738 23.0626 27.2683 27.2681C23.0628 31.4736 20.7002 37.1775 20.7002 43.125V52.4124C20.7002 53.7849 21.2454 55.1011 22.2159 56.0716C23.1864 57.0421 24.5027 57.5874 25.8752 57.5874C27.2477 57.5874 28.564 57.0421 29.5345 56.0716C30.505 55.1011 31.0502 53.7849 31.0502 52.4124V43.125C31.0502 36.4596 36.4598 31.05 43.1252 31.05H52.4126C53.7851 31.05 55.1014 30.5047 56.0719 29.5342C57.0424 28.5637 57.5876 27.2474 57.5876 25.875C57.5876 24.5025 57.0424 23.1862 56.0719 22.2157C55.1014 21.2452 53.7851 20.7 52.4126 20.7H43.1252ZM85.5878 20.7C84.2153 20.7 82.899 21.2452 81.9285 22.2157C80.958 23.1862 80.4128 24.5025 80.4128 25.875C80.4128 27.2474 80.958 28.5637 81.9285 29.5342C82.899 30.5047 84.2153 31.05 85.5878 31.05H94.8752C101.541 31.05 106.95 36.4596 106.95 43.125V52.4124C106.95 53.7849 107.495 55.1011 108.466 56.0716C109.436 57.0421 110.753 57.5874 112.125 57.5874C113.498 57.5874 114.814 57.0421 115.784 56.0716C116.755 55.1011 117.3 53.7849 117.3 52.4124V43.125C117.3 37.1775 114.938 31.4736 110.732 27.2681C106.527 23.0626 100.823 20.7 94.8752 20.7H85.5878ZM31.0502 85.5876C31.0502 84.2151 30.505 82.8988 29.5345 81.9283C28.564 80.9578 27.2477 80.4126 25.8752 80.4126C24.5027 80.4126 23.1864 80.9578 22.2159 81.9283C21.2454 82.8988 20.7002 84.2151 20.7002 85.5876V94.875C20.7002 100.822 23.0628 106.526 27.2683 110.732C31.4738 114.937 37.1777 117.3 43.1252 117.3H52.4126C53.7851 117.3 55.1014 116.755 56.0719 115.784C57.0424 114.814 57.5876 113.497 57.5876 112.125C57.5876 110.752 57.0424 109.436 56.0719 108.466C55.1014 107.495 53.7851 106.95 52.4126 106.95H43.1252C39.9227 106.95 36.8514 105.678 34.5869 103.413C32.3224 101.149 31.0502 98.0774 31.0502 94.875V85.5876ZM117.3 85.5876C117.3 84.2151 116.755 82.8988 115.784 81.9283C114.814 80.9578 113.498 80.4126 112.125 80.4126C110.753 80.4126 109.436 80.9578 108.466 81.9283C107.495 82.8988 106.95 84.2151 106.95 85.5876V94.875C106.95 98.0774 105.678 101.149 103.414 103.413C101.149 105.678 98.0777 106.95 94.8752 106.95H85.5878C84.2153 106.95 82.899 107.495 81.9285 108.466C80.958 109.436 80.4128 110.752 80.4128 112.125C80.4128 113.497 80.958 114.814 81.9285 115.784C82.899 116.755 84.2153 117.3 85.5878 117.3H94.8752C100.823 117.3 106.527 114.937 110.732 110.732C114.938 106.526 117.3 100.822 117.3 94.875V85.5876ZM46.5752 63.825C45.2027 63.825 43.8864 64.3702 42.9159 65.3407C41.9454 66.3112 41.4002 67.6275 41.4002 69C41.4002 70.3725 41.9454 71.6887 42.9159 72.6592C43.8864 73.6297 45.2027 74.175 46.5752 74.175H91.4252C92.7977 74.175 94.114 73.6297 95.0845 72.6592C96.055 71.6887 96.6002 70.3725 96.6002 69C96.6002 67.6275 96.055 66.3112 95.0845 65.3407C94.114 64.3702 92.7977 63.825 91.4252 63.825H46.5752Z" fill="black" fill-opacity="0.53"/>
</svg>
