<svg xmlns="http://www.w3.org/2000/svg" width="24.5" height="16.333" viewBox="0 0 24.5 16.333">
  <path id="Icon_awesome-eye" data-name="Icon awesome-eye" d="M24.352,12.046A13.643,13.643,0,0,0,12.25,4.5a13.645,13.645,0,0,0-12.1,7.546,1.376,1.376,0,0,0,0,1.242,13.643,13.643,0,0,0,12.1,7.546,13.645,13.645,0,0,0,12.1-7.546A1.376,1.376,0,0,0,24.352,12.046Zm-12.1,6.746a6.125,6.125,0,1,1,6.125-6.125A6.125,6.125,0,0,1,12.25,18.792Zm0-10.208a4.054,4.054,0,0,0-1.077.161A2.035,2.035,0,0,1,8.328,11.59,4.074,4.074,0,1,0,12.25,8.583Z" transform="translate(0 -4.5)" fill="#9060a8"/>
</svg>
