<svg xmlns="http://www.w3.org/2000/svg" width="41" height="33.3" viewBox="0 0 41 33.3">
  <path id="Icon_awesome-twitter" data-name="Icon awesome-twitter" d="M36.786,11.68c.026.364.026.728.026,1.093,0,11.108-8.455,23.908-23.908,23.908A23.746,23.746,0,0,1,0,32.908a17.384,17.384,0,0,0,2.029.1,16.829,16.829,0,0,0,10.432-3.59A8.418,8.418,0,0,1,4.6,23.595a10.6,10.6,0,0,0,1.587.13A8.887,8.887,0,0,0,8.4,23.439a8.4,8.4,0,0,1-6.738-8.247v-.1a8.463,8.463,0,0,0,3.8,1.067,8.415,8.415,0,0,1-2.6-11.239,23.885,23.885,0,0,0,17.326,8.793,9.486,9.486,0,0,1-.208-1.925A8.411,8.411,0,0,1,34.522,6.034a16.544,16.544,0,0,0,5.333-2.029,8.38,8.38,0,0,1-3.694,4.631A16.845,16.845,0,0,0,41,7.335a18.063,18.063,0,0,1-4.214,4.344Z" transform="translate(0 -3.381)" fill="#f0d8f0"/>
</svg>
